<svg width="20" height="20" viewBox="0 0 20 20" xmlns="http://www.w3.org/2000/svg">
    <path d="M9.77,10.08 C9.44,9.59 8.93,9.25 8.25,9.05 C8.75,8.81 9.12,8.51 9.38,8.14 C9.63,7.77 9.76,7.3 9.76,6.74 C9.76,6.23 9.67,5.79 9.51,5.44 C9.33,5.09 9.09,4.81 8.78,4.6 C8.47,4.39 8.1,4.23 7.67,4.14 C7.23,4.05 6.75,4 6.22,4 L1,4 L1,15.07 L6.37,15.07 C6.86,15.07 7.35,15.01 7.81,14.89 C8.29,14.76 8.71,14.57 9.07,14.31 C9.44,14.06 9.73,13.72 9.95,13.31 C10.16,12.9 10.27,12.42 10.27,11.86 C10.27,11.17 10.11,10.57 9.77,10.08 L9.77,10.08 Z M3.42,5.91 L6.18,5.91 C6.89,5.91 7.46,6.48 7.46,7.19 C7.46,7.9 6.89,8.47 6.18,8.47 L3.42,8.47 L3.42,5.91 L3.42,5.91 Z M6.48,13.19 L3.42,13.19 L3.42,10.16 L6.48,10.16 C7.23,10.16 7.84,10.83 7.84,11.67 C7.84,12.51 7.23,13.19 6.48,13.19 L6.48,13.19 Z"></path>
    <path d="M18.95,10.22 C18.77,8.68 17.88,7.21 16.33,6.73 C12.54,5.55 9.72,9.82 11.54,13.09 C12.38,14.59 14.1,15.17 15.74,14.96 C17.31,14.77 18.36,13.78 18.84,12.32 L16.9,12.32 C16.53,13.48 14.67,13.65 13.82,12.94 C13.79,12.92 13.77,12.9 13.74,12.87 C13.34,12.48 13.19,11.85 13.19,11.32 L19.01,11.32 C19.04,10.96 18.97,10.42 18.95,10.22 L18.95,10.22 Z M13.19,9.93 C13.13,8.47 15.2,7.47 16.27,8.66 C16.58,9.01 16.73,9.47 16.77,9.93 L13.19,9.93 L13.19,9.93 Z"></path>
    <rect x="13" y="4" width="4" height="1"></rect>
</svg>