<svg width="20" height="20" viewBox="0 0 20 20" xmlns="http://www.w3.org/2000/svg">
    <path d="M9.5,10.6c-0.4-0.5-0.9-0.9-1.6-1.1c0.5-0.3,0.9-0.6,1.2-1C9.3,8.1,9.5,7.6,9.5,7c0-0.6-0.1-1-0.3-1.4 C9,5.2,8.7,4.9,8.4,4.6C8.1,4.4,7.7,4.3,7.2,4.2C6.7,4.1,6.2,4,5.6,4H0v12h5.8c0.5,0,1.1-0.1,1.6-0.2c0.5-0.1,1-0.3,1.4-0.6 c0.4-0.3,0.7-0.6,1-1.1c0.2-0.4,0.3-1,0.3-1.6C10,11.8,9.8,11.1,9.5,10.6L9.5,10.6z M5.6,6.1C6.4,6.1,7,6.7,7,7.5S6.4,8.8,5.6,8.8 h-3V6.1H5.6z M5.9,14H2.6v-3.3h3.3c0.8,0,1.5,0.7,1.5,1.6C7.4,13.2,6.7,14,5.9,14L5.9,14z"></path>
    <path d="M19.9,10.9C19.7,9.2,18.7,7.6,17,7c-4.2-1.3-7.3,3.4-5.3,7.1c0.9,1.7,2.8,2.3,4.7,2.1c1.7-0.2,2.9-1.3,3.4-2.9h-2.2 c-0.4,1.3-2.5,1.5-3.4,0.7c0,0-0.1,0-0.1-0.1c-0.4-0.4-0.6-1.1-0.6-1.7H20C20,11.7,19.9,11.1,19.9,10.9L19.9,10.9z M13.5,10.6 C13.5,9,15.8,7.9,17,9.2c0.3,0.4,0.5,0.9,0.6,1.4H13.5L13.5,10.6z"></path>
    <rect x="13.5" y="4" width="4" height="1"></rect>
</svg>
