<svg xmlns="http://www.w3.org/2000/svg" id="cog" viewBox="0 0 20 20">
    <circle fill="none" stroke="#000000" stroke-width="1" cx="10.34" cy="9.9" r="3.5"/>
    <path fill="none" stroke="#000000" stroke-width="1" d="M18.75,12 C18.39,13.46 17.68,14.77 16.71,15.85 C15.68,15.13 14.48,14.72 13.75,15.2 C13,15.69 12.9,16.99 13.16,18.24 C12.2,18.59 11.18,18.78 10.11,18.78 C9.27,18.78 8.45,18.66 7.68,18.44 C7.92,17.14 7.8,15.78 7.01,15.3 C6.2,14.81 4.9,15.36 3.85,16.21 C2.74,15.1 1.91,13.7 1.5,12.13 C2.79,11.67 3.95,10.83 3.95,9.88 C3.95,8.94 2.79,8.1 1.51,7.65 C1.89,6.16 2.65,4.83 3.67,3.76 C4.74,4.57 6.05,5.08 6.84,4.57 C7.62,4.07 7.7,2.71 7.42,1.42 C8.27,1.14 9.17,1 10.11,1 C11.08,1 12.02,1.16 12.89,1.45 C12.68,2.71 12.82,4 13.58,4.46 C14.33,4.92 15.51,4.48 16.52,3.73 C17.59,4.84 18.37,6.22 18.74,7.77 C17.6,8.25 16.64,9.02 16.64,9.88 C16.64,10.75 17.61,11.52 18.75,12 L18.75,12 Z"/>
</svg>