<svg xmlns="http://www.w3.org/2000/svg" id="dribbble" viewBox="0 0 20 20">
    <path d="M10,2 C5.59,2 2,5.59 2,10 C2,14.41 5.59,18 10,18 C14.41,18 18,14.41 18,10 C18,5.59 14.41,2 10,2 L10,2 Z M15.32,5.43 C16.37,6.64 17,8.2 17.01,9.91 C16.47,9.79 15.61,9.65 14.47,9.63 C13.61,9.61 12.81,9.65 11.98,9.8 C11.79,9.33 11.33,8.34 11.32,8.32 C12.5,7.82 13.52,7.19 14.31,6.51 C14.76,6.11 15.1,5.73 15.32,5.43 L15.32,5.43 Z M10,2.97 C11.78,2.97 13.41,3.63 14.64,4.73 C14.43,4.98 14.11,5.37 13.67,5.77 C12.95,6.39 11.99,6.98 10.87,7.44 C10.02,5.91 8.81,4.11 8.2,3.23 C8.77,3.05 9.38,2.97 10,2.97 L10,2.97 Z M7.24,3.55 C7.76,4.29 9.04,6.17 9.94,7.77 C8.94,8.05 7.58,8.29 6,8.45 C4.8,8.57 3.73,8.62 3.11,8.62 C3.57,6.33 5.14,4.44 7.24,3.55 L7.24,3.55 Z M2.97,10 C2.97,9.86 2.97,9.74 2.99,9.6 C3.6,9.59 4.77,9.55 6.09,9.42 C7.37,9.29 9.08,9.06 10.4,8.66 C10.43,8.71 10.84,9.6 11,10.02 C10.33,10.21 9.64,10.48 8.89,10.86 C7.85,11.4 6.86,12.15 6.09,12.98 C5.55,13.56 5.09,14.24 4.8,14.71 C3.66,13.46 2.97,11.81 2.97,10 L2.97,10 Z M10,17.03 C8.3,17.03 6.73,16.42 5.51,15.4 C5.78,14.96 6.26,14.24 6.81,13.64 C7.5,12.89 8.4,12.21 9.34,11.72 C10.06,11.35 10.73,11.1 11.38,10.92 C11.77,11.92 12.08,12.84 12.25,13.39 C12.55,14.41 12.8,15.75 12.91,16.38 C12.03,16.8 11.04,17.03 10,17.03 L10,17.03 Z M13.81,15.89 C13.68,15.17 13.46,14.04 13.19,13.12 C13.05,12.64 12.75,11.76 12.35,10.73 C13.04,10.62 13.73,10.59 14.46,10.61 C15.64,10.63 16.49,10.79 16.95,10.9 C16.71,12.99 15.51,14.8 13.81,15.89 L13.81,15.89 Z"></path>
</svg>