<svg width="20" height="20" viewBox="0 0 20 20" xmlns="http://www.w3.org/2000/svg">
    <path d="M10,0.5c-5.2,0-9.5,4.3-9.5,9.5c0,5.2,4.3,9.5,9.5,9.5c5.2,0,9.5-4.3,9.5-9.5C19.5,4.8,15.2,0.5,10,0.5L10,0.5z M16.3,4.6 c1.2,1.4,2,3.3,2,5.3c-0.6-0.1-1.7-0.3-3-0.3c-1,0-2,0-3,0.2C12.1,9.2,11.6,8,11.6,8c1.4-0.6,2.6-1.3,3.6-2.1 C15.7,5.4,16.1,4.9,16.3,4.6L16.3,4.6z M10,1.7c2.1,0,4,0.8,5.5,2.1C15.3,4,14.9,4.5,14.4,5c-0.9,0.7-2,1.4-3.3,2 c-1-1.8-2.4-4-3.2-5C8.5,1.7,9.3,1.7,10,1.7L10,1.7z M6.7,2.3c0.6,0.9,2.1,3.1,3.2,5C8.7,7.7,7.1,8,5.3,8.2C3.8,8.3,2.6,8.4,1.8,8.4 C2.4,5.6,4.2,3.4,6.7,2.3L6.7,2.3z M1.7,10c0-0.2,0-0.3,0-0.5c0.7,0,2.1-0.1,3.7-0.2c1.5-0.2,3.6-0.4,5.1-0.9c0,0.1,0.5,1.1,0.7,1.6 c-0.8,0.2-1.6,0.5-2.5,1c-1.2,0.6-2.4,1.5-3.3,2.5c-0.6,0.7-1.2,1.5-1.5,2.1C2.5,14.1,1.7,12.2,1.7,10L1.7,10z M10,18.3 c-2,0-3.9-0.7-5.3-1.9C5,15.9,5.6,15,6.2,14.3c0.8-0.9,1.9-1.7,3-2.3c0.9-0.4,1.7-0.7,2.4-1c0.5,1.2,0.8,2.3,1,2.9 c0.4,1.2,0.7,2.8,0.8,3.5C12.4,18.1,11.2,18.3,10,18.3L10,18.3z M14.5,17c-0.2-0.9-0.4-2.2-0.7-3.3c-0.2-0.6-0.5-1.6-1-2.8 c0.8-0.1,1.6-0.2,2.5-0.1c1.4,0,2.4,0.2,3,0.3C18,13.6,16.5,15.7,14.5,17L14.5,17z"></path>
</svg>
