<svg xmlns="http://www.w3.org/2000/svg" id="google-plus" viewBox="0 0 20 20">
    <path d="M12.65,9.04 C13.1,11.26 12.12,14.15 9.67,15.26 C6.47,16.71 2.56,15.35 1.34,11.82 C0.03,8.01 2.63,4.14 6.51,3.85 C8.03,3.74 9.39,4.1 10.59,5.04 C10.72,5.14 10.83,5.25 11,5.4 C10.48,5.9 9.98,6.37 9.45,6.87 C8.55,6.09 7.5,5.83 6.35,6.02 C5.49,6.16 4.79,6.59 4.21,7.24 C3.12,8.45 2.93,10.35 3.76,11.79 C4.63,13.29 6.27,13.98 8.03,13.58 C9.28,13.3 10.37,12.17 10.47,11.01 L7.25,11.01 L7.25,9.04 L12.65,9.04 L12.65,9.04 Z"></path>
    <polygon points="20 9 20 11 18 11 18 13 16 13 16 11 14 11 14 9 16 9 16 7 18 7 18 9"></polygon>
</svg>