<svg width="20" height="20" viewBox="0 0 20 20" xmlns="http://www.w3.org/2000/svg">
    <path d="M13.54,1 L6.46,1 C3.45,1 1,3.44 1,6.44 L1,13.56 C1,16.56 3.45,19 6.46,19 L13.53,19 C16.55,19 18.99,16.56 18.99,13.56 L18.99,6.44 C19,3.44 16.55,1 13.54,1 L13.54,1 Z M17.47,13.98 C17.47,15.88 15.92,17.43 14.01,17.43 L6.13,17.43 C4.22,17.43 2.67,15.89 2.67,13.98 L2.67,6.19 C2.67,4.29 4.22,2.74 6.13,2.74 L14.01,2.74 C15.92,2.74 17.47,4.28 17.47,6.19 L17.47,13.98 L17.47,13.98 Z"></path>
    <circle cx="14.87" cy="5.26" r="1.09"></circle>
    <path d="M10.03,5.45 C7.48,5.45 5.4,7.51 5.4,10.05 C5.4,12.6 7.47,14.66 10.03,14.66 C12.59,14.66 14.66,12.6 14.66,10.05 C14.65,7.51 12.58,5.45 10.03,5.45 L10.03,5.45 Z M10.08,13 C8.42,13 7.08,11.66 7.08,10.01 C7.08,8.36 8.42,7.02 10.08,7.02 C11.74,7.02 13.08,8.36 13.08,10.01 C13.08,11.66 11.74,13 10.08,13 L10.08,13 Z"></path>
</svg>