<svg width="20" height="20" viewBox="0 0 20 20" xmlns="http://www.w3.org/2000/svg">
    <path d="M7.7,13.54 L9.48,11.76 L5.68,7.96 C5.1,7.39 5.1,6.44 5.68,5.87 C6.26,5.29 7.19,5.29 7.77,5.87 L9.54,4.09 C8.53,3.07 7.1,2.71 5.8,3.02 C5.62,1.87 4.62,1 3.43,1 C2.1,1 1.03,2.08 1.02,3.41 C1.02,4.56 1.82,5.52 2.89,5.76 C2.48,7.12 2.82,8.66 3.89,9.73 L7.7,13.54 L7.7,13.54 Z"></path>
    <path d="M10.23,4.08 C11.3,3.01 12.82,2.67 14.18,3.07 C14.35,1.9 15.35,1 16.57,1 C17.9,1 18.98,2.08 18.98,3.41 C18.98,4.63 18.07,5.65 16.89,5.8 C17.28,7.15 16.94,8.67 15.88,9.73 L14.1,7.95 C14.68,7.38 14.68,6.44 14.1,5.86 C13.53,5.28 12.59,5.28 12.02,5.86 L8.16,9.72 L6.38,7.94"></path>
    <path d="M14.23,17.07 C12.87,17.49 11.32,17.16 10.24,16.07 L12.02,14.29 C12.6,14.87 13.53,14.87 14.11,14.29 C14.68,13.71 14.69,12.78 14.11,12.2 L10.28,8.36 L12.06,6.59 L15.89,10.43 C16.91,11.45 17.26,12.89 16.95,14.2 C18.1,14.37 19,15.37 19,16.59 C19,17.92 17.92,19 16.59,19 C15.42,19 14.45,18.17 14.23,17.07"></path>
    <path d="M13.37,12.24 L9.54,16.08 C8.51,17.11 7.07,17.46 5.75,17.13 C5.51,18.2 4.55,19 3.41,19 C2.08,19 1,17.92 1,16.59 C1,15.45 1.79,14.49 2.85,14.24 C2.52,12.92 2.86,11.46 3.9,10.43 L5.68,12.2 C5.1,12.78 5.1,13.71 5.68,14.3 C6.26,14.88 7.19,14.88 7.77,14.3 L11.6,10.46"></path>
</svg>