<svg width="20" height="20" viewBox="0 0 20 20" xmlns="http://www.w3.org/2000/svg">
    <path d="M10,0.5 C4.76,0.5 0.5,4.76 0.5,10 C0.5,15.24 4.76,19.5 10,19.5 C15.24,19.5 19.5,15.24 19.5,10 C19.5,4.76 15.24,0.5 10,0.5 L10,0.5 Z M10,1.5 C11.49,1.5 12.89,1.88 14.11,2.56 L11.85,4.82 C11.27,4.61 10.65,4.5 10,4.5 C9.21,4.5 8.47,4.67 7.79,4.96 L5.58,2.75 C6.87,1.95 8.38,1.5 10,1.5 L10,1.5 Z M4.96,7.8 C4.67,8.48 4.5,9.21 4.5,10 C4.5,10.65 4.61,11.27 4.83,11.85 L2.56,14.11 C1.88,12.89 1.5,11.49 1.5,10 C1.5,8.38 1.95,6.87 2.75,5.58 L4.96,7.79 L4.96,7.8 L4.96,7.8 Z M10,18.5 C8.25,18.5 6.62,17.97 5.27,17.06 L7.46,14.87 C8.22,15.27 9.08,15.5 10,15.5 C10.79,15.5 11.53,15.33 12.21,15.04 L14.42,17.25 C13.13,18.05 11.62,18.5 10,18.5 L10,18.5 Z M10,14.5 C7.52,14.5 5.5,12.48 5.5,10 C5.5,7.52 7.52,5.5 10,5.5 C12.48,5.5 14.5,7.52 14.5,10 C14.5,12.48 12.48,14.5 10,14.5 L10,14.5 Z M15.04,12.21 C15.33,11.53 15.5,10.79 15.5,10 C15.5,9.08 15.27,8.22 14.87,7.46 L17.06,5.27 C17.97,6.62 18.5,8.25 18.5,10 C18.5,11.62 18.05,13.13 17.25,14.42 L15.04,12.21 L15.04,12.21 Z"></path>
</svg>