<svg xmlns="http://www.w3.org/2000/svg" id="link" viewBox="0 0 20 20">
    <path d="M7.39,14.72 C7,15.11 6.37,15.11 5.99,14.72 L5.29,14.02 C4.9,13.63 4.9,13.01 5.29,12.62 L8.6,9.3 C7.94,9.13 7.2,9.29 6.69,9.8 L4.59,11.91 C3.82,12.68 3.82,13.94 4.59,14.72 L5.29,15.42 C6.06,16.2 7.32,16.2 8.1,15.42 L10.21,13.31 C10.73,12.79 10.89,12.06 10.72,11.4 L7.39,14.72 L7.39,14.72 Z"></path>
    <path d="M15.42,5.28 L14.72,4.58 C13.94,3.81 12.68,3.81 11.91,4.58 L9.81,6.69 C9.29,7.2 9.12,7.94 9.3,8.6 L12.61,5.29 C13,4.9 13.63,4.9 14.01,5.29 L14.71,5.99 C15.1,6.38 15.1,7.01 14.71,7.39 L11.4,10.7 C12.06,10.87 12.79,10.71 13.31,10.19 L15.42,8.09 C16.19,7.32 16.19,6.06 15.42,5.28 L15.42,5.28 Z"></path>
    <path d="M7.89,12.11 C7.99,12.21 8.11,12.25 8.24,12.25 C8.37,12.25 8.5,12.2 8.59,12.11 L12.1,8.6 C12.29,8.41 12.29,8.09 12.1,7.9 C11.91,7.71 11.59,7.71 11.4,7.9 L7.9,11.4 C7.7,11.6 7.7,11.91 7.89,12.11 L7.89,12.11 Z"></path>
</svg>