<svg width="20" height="20" viewBox="0 0 20 20" xmlns="http://www.w3.org/2000/svg">
<path d="M10.2,1.2L10.2,1.2C10.2,1.2,10.2,1.2,10.2,1.2l-0.4,0c-0.4,0-1.3,0.1-2.3,0.5c-0.5,0.2-1,0.6-1.5,1
	C5.6,3.1,5.1,3.7,4.8,4.4c-0.4,1-0.3,2.7-0.3,4l0,0c0,0.1,0,0.3,0,0.4C4.5,8.9,4.4,9,4.3,9C4,9,3.7,8.9,3.4,8.7
	C3.3,8.7,3.2,8.6,3,8.6c-0.2,0-0.4,0.1-0.6,0.2C2.2,9,2.1,9.1,2,9.4c0,0.1,0,0.4,0.3,0.7c0.2,0.2,0.4,0.3,0.7,0.4
	c0.1,0,0.2,0.1,0.3,0.1c0.4,0.1,0.9,0.3,1.1,0.6c0.1,0.2,0,0.4-0.1,0.7c0,0,0,0,0,0c0,0.1-0.4,0.8-1,1.6c-0.4,0.4-0.8,0.8-1.2,1.1
	c-0.5,0.3-1.1,0.6-1.7,0.7c-0.2,0-0.4,0.2-0.4,0.5c0,0.1,0,0.1,0,0.2l0,0c0.1,0.2,0.3,0.4,0.7,0.6c0.4,0.2,1.1,0.4,2,0.5
	c0,0.1,0.1,0.3,0.1,0.4c0,0.2,0.1,0.3,0.1,0.5c0.1,0.2,0.2,0.4,0.5,0.4c0.1,0,0.3,0,0.5-0.1c0.3-0.1,0.6-0.1,1-0.1
	c0.2,0,0.5,0,0.8,0.1c0.5,0.1,0.9,0.4,1.4,0.7C7.8,19.4,8.6,20,9.9,20c0,0,0.1,0,0.1,0c0,0,0.1,0,0.1,0c1.2,0,2-0.6,2.8-1.1l0,0
	c0.5-0.3,0.9-0.6,1.4-0.7c0.3,0,0.5-0.1,0.8-0.1c0.4,0,0.8,0.1,1,0.1c0.2,0,0.3,0.1,0.5,0.1l0,0h0c0.3,0,0.4-0.1,0.5-0.4
	c0-0.2,0.1-0.3,0.1-0.5c0-0.1,0.1-0.3,0.1-0.4c0.9-0.1,1.5-0.3,2-0.5c0.4-0.2,0.6-0.4,0.7-0.6c0-0.1,0-0.1,0-0.2
	c0-0.2-0.2-0.4-0.4-0.5c-2.7-0.4-3.9-3.2-3.9-3.3c0,0,0,0,0,0c-0.1-0.3-0.2-0.5-0.1-0.7c0.1-0.3,0.7-0.5,1.1-0.6
	c0.1,0,0.2-0.1,0.3-0.1c0.4-0.1,0.6-0.3,0.8-0.5C17.9,9.8,18,9.6,18,9.5c0-0.3-0.3-0.6-0.6-0.7c-0.1-0.1-0.3-0.1-0.4-0.1
	c-0.1,0-0.3,0-0.4,0.1c-0.3,0.1-0.6,0.2-0.8,0.2c-0.1,0-0.2,0-0.3-0.1c0-0.1,0-0.3,0-0.4l0-0.1c0.1-1.4,0.2-3-0.3-4
	c-0.3-0.7-0.7-1.3-1.2-1.8c-0.4-0.4-0.9-0.7-1.5-1C11.5,1.3,10.6,1.2,10.2,1.2"/>
</svg>