<svg width="20" height="20" viewBox="0 0 20 20" xmlns="http://www.w3.org/2000/svg">
	<path fill="none" stroke="#444" d="M17.8,14.8c0,1.2-1,2.2-2.3,2.2c-1.2,0-2.3-1-2.3-2.2 c0-1.2,1-2.3,2.3-2.3C16.7,12.5,17.8,13.5,17.8,14.8z"></path>
	<path fill="none" stroke="#444" d="M17.8,4.8c0,1.2-1,2.2-2.3,2.2c-1.2,0-2.3-1-2.3-2.2 c0-1.2,1-2.3,2.3-2.3C16.7,2.5,17.8,3.5,17.8,4.8z"></path>
	<path fill="none" stroke="#444" d="M6.8,9.8c0,1.2-1,2.2-2.3,2.2s-2.3-1-2.3-2.2c0-1.2,1-2.3,2.3-2.3 S6.8,8.5,6.8,9.8z"></path>
	<line fill="none" stroke="#444" x1="13.4" y1="14" x2="6.3" y2="10.7"></line>
	<line fill="none" stroke="#444" x1="13.5" y1="5.5" x2="6.5" y2="8.8"></line>
</svg>
