<svg width="20" height="20" viewBox="0 0 20 20" xmlns="http://www.w3.org/2000/svg">
<path d="M18.5,7.5c0,1-0.8,1.8-1.9,1.8c-1,0-1.9-0.8-1.9-1.8s0.8-1.8,1.9-1.8C17.7,5.6,18.5,6.4,18.5,7.5z M17.8,10.6
		l-2.2,1.9c0,0.2,0,0.3,0,0.5c0,1.6-1.3,2.9-3,2.9c-1.4,0-2.6-1-2.9-2.3l-5.5-1.9c-0.4,0.3-1,0.5-1.6,0.5C1.2,12.3,0,11.1,0,9.7
		c0-1.4,1.2-2.6,2.6-2.6c1.2,0,2.3,0.9,2.5,2l5.4,1.8c0.5-0.5,1.2-0.9,2-0.9l0.8-2.4c0,0,0-0.1,0-0.1c0-1.8,1.5-3.3,3.3-3.3
		c1.8,0,3.3,1.5,3.3,3.3C20,8.9,19.1,10.1,17.8,10.6z M4.2,8.8C3.9,8.2,3.3,7.8,2.7,7.8c-1,0-1.8,0.8-1.8,1.8s0.8,1.8,1.8,1.8
		c0.2,0,0.4,0,0.5-0.1l-0.9-0.3c-0.7-0.4-1-1.2-0.6-1.9c0.4-0.7,1.2-1,1.9-0.6L4.2,8.8z M14.1,7.4c0,1.4,1.2,2.6,2.6,2.6
		s2.6-1.2,2.6-2.6c0-1.4-1.2-2.6-2.6-2.6C15.2,4.9,14.1,6,14.1,7.4z M14.1,13.2c0-1.1-0.9-2-2-2c-0.2,0-0.3,0-0.4,0.1l1.1,0.4
		c0.7,0.4,1,1.2,0.6,1.9c-0.4,0.7-1.2,1-1.9,0.6l-1.2-0.4c0.2,0.8,1,1.4,1.9,1.4C13.2,15.2,14.1,14.3,14.1,13.2z"/>
</svg>