<svg width="20" height="20" viewBox="0 0 20 20" xmlns="http://www.w3.org/2000/svg">
    <path d="M6.7,8.91 C6.7,8.91 6.7,12.58 6.71,14.31 C6.71,14.65 6.74,15 6.81,15.34 C7.16,16.9 8.05,18.03 9.55,18.61 C10.92,19.15 12.31,19.12 13.7,18.63 C14.04,18.51 14.37,18.36 14.65,18.11 C14.73,18.04 14.76,17.97 14.72,17.86 C14.52,17.29 14.01,15.77 13.94,15.57 C13.89,15.59 12.84,15.93 12.25,15.84 C11.67,15.78 11.25,15.5 11.07,14.93 C10.99,14.67 10.96,14.41 10.96,14.15 C10.95,12.46 10.93,8.92 10.93,8.92 L14.36,8.92 L14.36,6.33 L10.96,6.33 L10.96,2 L8.35,2 C8.35,2 8.25,2.73 8.18,2.99 C7.95,3.94 7.4,4.91 6.67,5.62 C5.91,6.35 5,6.7 5,6.7 L5,8.91 L6.7,8.91 L6.7,8.91 Z"></path>
</svg>