<svg width="20" height="20" viewBox="0 0 20 20" xmlns="http://www.w3.org/2000/svg">
    <path d="M1.78,7.31 C1.55,7.08 1.36,6.79 1.17,6.54 C0.83,6.11 1.03,6.12 1.45,5.75 C2.5,4.82 3.5,3.81 4.65,3 C5.69,2.27 7.07,1.8 8.01,2.96 C8.88,4.03 8.9,5.65 9.12,6.94 C9.34,8.28 9.55,9.65 10.02,10.93 C10.15,11.29 10.4,11.97 10.85,12.03 C11.43,12.11 12.02,11.09 12.29,10.71 C12.99,9.7 13.94,8.34 13.82,7.04 C13.7,5.66 12.21,5.92 11.28,6.25 C11.43,4.7 12.87,2.96 14.26,2.37 C15.73,1.76 17.92,1.77 18.66,3.43 C19.45,5.23 18.74,7.32 17.88,8.95 C16.94,10.72 15.73,12.36 14.44,13.89 C13.3,15.25 11.95,16.74 10.25,17.39 C8.31,18.13 7.16,16.69 6.5,15.02 C5.78,13.2 5.42,11.16 4.9,9.27 C4.68,8.47 4.42,7.56 3.9,6.9 C3.22,6.05 2.45,6.85 1.78,7.31 C1.69,7.22 1.83,7.27 1.78,7.31 L1.78,7.31 Z"></path>
</svg>