<svg width="20" height="20" viewBox="0 0 20 20" xmlns="http://www.w3.org/2000/svg">
<path d="M13 0H3C1 0 0 1 0 3v10c0 2 1 3 3 3h10c2 0 3-1 3-3V3c0-2-1-3-3-3zm.452 11.394l-1.603.022s-.345.068-.8-.243c-.598-.41-1.164-1.48-1.604-1.342-.446.144-.432 1.106-.432 1.106s.003.206-.1.315c-.11.12-.326.144-.326.144H7.87s-1.582.095-2.975-1.356c-1.52-1.583-2.862-4.723-2.862-4.723s-.078-.206.006-.305c.094-.112.35-.12.35-.12l1.716-.01s.162.026.277.11c.095.07.15.202.15.202s.276.7.643 1.335c.716 1.238 1.05 1.508 1.293 1.376.353-.193.247-1.75.247-1.75s.006-.565-.178-.817c-.145-.194-.415-.25-.534-.267-.096-.014.062-.238.267-.338.31-.15.853-.16 1.497-.153.502.004.646.035.842.083.59.143.39.694.39 2.016 0 .422-.075 1.018.23 1.215.13.085.453.013 1.256-1.352.38-.647.666-1.407.666-1.407s.062-.136.16-.194c.098-.06.232-.04.232-.04l1.804-.012s.542-.065.63.18c.092.257-.203.857-.94 1.84-1.21 1.612-1.345 1.46-.34 2.394.96.89 1.16 1.325 1.192 1.38.4.66-.44.71-.44.71z"/>
</svg>