<svg xmlns="http://www.w3.org/2000/svg" id="whatsapp" viewBox="0 0 20 20">
    <path d="M16.39,3.62 C14.71,1.93 12.47,1 10.08,1 C5.16,1 1.16,5 1.16,9.92 C1.16,11.49 1.57,13.03 2.35,14.38 L1.09,19 L5.82,17.76 C7.12,18.47 8.59,18.85 10.08,18.85 L10.08,18.85 L10.08,18.85 C15,18.85 19,14.85 19,9.93 C19,7.54 18.07,5.3 16.39,3.62 M10.08,17.34 L10.08,17.34 C8.75,17.34 7.44,16.98 6.3,16.31 L6.03,16.15 L3.22,16.89 L3.97,14.16 L3.8,13.87 C3.06,12.69 2.67,11.33 2.67,9.92 C2.67,5.83 6,2.51 10.09,2.51 C12.07,2.51 13.93,3.28 15.33,4.68 C16.73,6.08 17.5,7.94 17.5,9.92 C17.49,14.01 14.17,17.34 10.08,17.34 M14.15,11.79 C13.93,11.68 12.83,11.14 12.63,11.06 C12.42,10.99 12.28,10.95 12.13,11.17 C11.98,11.39 11.55,11.9 11.42,12.04 C11.29,12.19 11.16,12.21 10.94,12.1 C10.72,11.99 10,11.75 9.15,10.99 C8.48,10.4 8.03,9.68 7.9,9.45 C7.77,9.23 7.89,9.11 8,9 C8.1,8.9 8.22,8.74 8.33,8.61 C8.44,8.48 8.48,8.39 8.55,8.24 C8.62,8.09 8.59,7.96 8.53,7.85 C8.47,7.74 8.03,6.64 7.84,6.2 C7.66,5.77 7.48,5.82 7.34,5.82 C7.22,5.8 7.07,5.8 6.92,5.8 C6.77,5.8 6.53,5.86 6.33,6.08 C6.12,6.3 5.55,6.84 5.55,7.94 C5.55,9.04 6.35,10.1 6.46,10.25 C6.57,10.4 8.03,12.65 10.27,13.61 C10.8,13.84 11.22,13.98 11.54,14.08 C12.07,14.25 12.56,14.23 12.94,14.17 C13.37,14.11 14.26,13.63 14.44,13.11 C14.63,12.59 14.63,12.14 14.57,12.05 C14.52,11.95 14.37,11.9 14.15,11.79"/>
</svg>