<svg width="20" height="20" viewBox="0 0 20 20" xmlns="http://www.w3.org/2000/svg">
    <path d="M10,1 C5.03,1 1,5.03 1,10 C1,14.971 5.03,19 10,19 C14.96,19 19,14.971 19,10 C19,5.03 14.96,1 10,1 L10,1 L10,1 Z M15.34,4.16 L15.24,4.16 C14.47,4.16 13.91,4.83 13.91,5.56 C13.91,6.21 14.29,6.76 14.68,7.41 C14.981,7.94 15.33,8.61 15.33,9.59 C15.33,10.26 15.07,11.05 14.74,12.141 L13.95,14.77 L11.109,6.29 C11.58,6.27 12.009,6.22 12.009,6.22 C12.429,6.16 12.379,5.54 11.959,5.57 C11.959,5.57 10.679,5.67 9.858,5.67 C9.079,5.67 7.778,5.57 7.778,5.57 C7.36,5.52 7.3,6.18 7.73,6.21 C7.73,6.21 8.13,6.26 8.55,6.28 L9.779,9.65 L8.06,14.82 L5.19,6.28 C5.67,6.26 6.09,6.21 6.09,6.21 C6.52,6.15 6.47,5.54 6.04,5.56 C6.04,5.56 4.76,5.66 3.94,5.66 C3.79,5.66 3.62,5.66 3.43,5.65 C4.84,3.51 7.26,2.1 10.02,2.1 C12.07,2.09 13.95,2.88 15.34,4.16 L15.34,4.16 L15.34,4.16 Z M2.82,6.77 L6.58,17.08 C3.95,15.8 2.13,13.1 2.13,9.99 C2.13,8.84 2.38,7.74 2.82,6.77 L2.82,6.77 L2.82,6.77 Z M10.16,10.66 L12.58,17.31 C12.6,17.349 12.62,17.379 12.641,17.419 C11.821,17.699 10.94,17.869 10.02,17.869 C9.25,17.869 8.5,17.749 7.791,17.549 L10.16,10.66 L10.16,10.66 L10.16,10.66 Z M13.99,16.79 L16.39,9.82 C16.84,8.7 17,7.8 17,7 C17,6.72 16.98,6.44 16.939,6.19 C17.56,7.31 17.91,8.6 17.91,9.98 C17.91,12.88 16.33,15.42 13.99,16.79 L13.99,16.79 L13.99,16.79 Z"></path>
</svg>
