<svg xmlns="http://www.w3.org/2000/svg" id="wordpress" viewBox="0 0 20 20">
    <path d="M9,0 C4.03,0 0,4.03 0,9 C0,13.97 4.03,18 9,18 C13.96,18 18,13.97 18,9 C18,4.03 13.96,0 9,0 L9,0 Z M14.34,3.16 L14.24,3.16 C13.47,3.16 12.91,3.83 12.91,4.56 C12.91,5.21 13.29,5.76 13.68,6.41 C13.98,6.94 14.33,7.61 14.33,8.59 C14.33,9.26 14.07,10.05 13.74,11.14 L12.95,13.77 L10.11,5.29 C10.58,5.27 11.01,5.22 11.01,5.22 C11.43,5.16 11.38,4.54 10.96,4.57 C10.96,4.57 9.68,4.67 8.86,4.67 C8.08,4.67 6.78,4.57 6.78,4.57 C6.36,4.52 6.3,5.18 6.73,5.21 C6.73,5.21 7.13,5.26 7.55,5.28 L8.78,8.65 L7.06,13.82 L4.19,5.28 C4.67,5.26 5.09,5.21 5.09,5.21 C5.52,5.15 5.47,4.54 5.04,4.56 C5.04,4.56 3.76,4.66 2.94,4.66 C2.79,4.66 2.62,4.66 2.43,4.65 C3.84,2.51 6.26,1.1 9.02,1.1 C11.07,1.09 12.95,1.88 14.34,3.16 L14.34,3.16 Z M1.82,5.77 L5.58,16.08 C2.95,14.8 1.13,12.1 1.13,8.99 C1.13,7.84 1.38,6.74 1.82,5.77 L1.82,5.77 Z M9.16,9.66 L11.58,16.31 C11.6,16.35 11.62,16.38 11.64,16.42 C10.82,16.7 9.94,16.87 9.02,16.87 C8.25,16.87 7.5,16.75 6.79,16.55 L9.16,9.66 L9.16,9.66 Z M12.99,15.79 L15.39,8.82 C15.84,7.7 16,6.8 16,6 C16,5.72 15.98,5.44 15.94,5.19 C16.56,6.31 16.91,7.6 16.91,8.98 C16.91,11.88 15.33,14.42 12.99,15.79 L12.99,15.79 Z"/>
</svg>