<svg width="20" height="20" viewBox="0 0 20 20" xmlns="http://www.w3.org/2000/svg">
    <path d="M8.04,4 C10.17,4 12.31,3.97 14.44,4.1 C15.35,4.15 16.44,4.1 17.14,4.77 C17.86,5.46 17.9,6.62 17.95,7.55 C18.01,8.6 18,9.65 18,10.7 C17.87,11.68 17.99,12.8 17.59,13.72 C17.16,14.71 16.26,14.9 15.29,14.99 C14.19,15.09 13.08,15.05 11.97,15.14 C9.86,15.14 7.75,15.16 5.64,15.05 C4.64,15 3.44,15.06 2.73,14.23 C2.13,13.53 2.11,12.42 2.05,11.54 C1.99,10.49 1.98,9.44 2.02,8.39 C2.05,7.39 2.03,6.25 2.47,5.33 C2.9,4.41 3.79,4.23 4.71,4.15 C5.82,4.06 6.93,4.05 8.04,4 C9.35,4 7.81,4.01 8.04,4 L8.04,4 Z M7.94,6.76 L7.94,12.06 L13.03,9.42 L7.94,6.76 L7.94,6.76 Z"></path>
</svg>