<svg xmlns="http://www.w3.org/2000/svg">

    <symbol id="user" viewBox="0 0 20 20">
        <circle cx="10" cy="5.75" r="3.75" fill="none" stroke-width="1" />
        <path d="M17.5,18.5 L2.5,18.5 C2.5,13 5.93,9.5 10,9.5 C14.07,9.5 17.5,12 17.5,18.5 L17.5,18.5 Z" fill="none" stroke-width="1" />
    </symbol>

    <symbol id="users" viewBox="0 0 20 20">
        <circle cx="7.63" cy="7.31" r="3.32" fill="none" stroke-width="1" />
        <path d="M14.26,18.5 L1,18.5 C1,12.98 4.03,10.63 7.63,10.63 C11.23,10.63 14.26,13 14.26,18.5 L14.26,18.5 Z" fill="none" stroke-width="1" />
        <path d="M11.02,3.41 C11.49,2.57 12.4,2 13.44,2 C14.97,2 16.22,3.25 16.22,4.78 C16.22,6.32 14.97,7.56 13.44,7.56 C13.28,7.56 13.15,7.52 13,7.5" fill="none" stroke-width="1" />
        <path d="M13.5,7.5 C16.52,7.5 18.92,9.97 19,13.5 L15.4,13.5" fill="none" stroke-width="1" />
    </symbol>

    <symbol id="fork" viewBox="0 0 20 20">
        <circle cx="7.5" cy="2.5" r="2" fill="none" stroke-width="1" />
        <circle cx="13" cy="5.5" r="2" fill="none" stroke-width="1" />
        <circle cx="7.5" cy="17.5" r="2" fill="none" stroke-width="1" />
        <path d="M13,7.5 L13,8 C13,9.8 11.9,10.6 10.721,11.3 C9.6,12 7.5,13.3 7.5,15.5 L7.5,4.5" fill="none" stroke-width="1" />
    </symbol>

    <symbol id="bolt" viewBox="0 0 20 20">
        <path d="M4.74,20 L7.73,11.537 L3,11.567 L15.437,0 L12.326,8.438 L17.024,8.506 L4.74,20 L4.74,20 Z M9.179,10.507 L7.1,16.392 L14.473,9.492 L10.866,9.439 L12.994,3.669 L5.618,10.529 L9.179,10.507 L9.179,10.507 Z" id="Shape"></path>
    </symbol>

    <symbol id="storage" viewBox="0 0 20 20">
        <rect x="5" y="2" width="10" height="1"/>
        <rect x="3" y="4" width="14" height="1"/>
        <rect x="1.5" y="6.5" width="17" height="11" fill="none" stroke-width="1" />
    </symbol>

    <symbol id="notification" viewBox="0 0 20 20">
        <path d="M17,15.5 L3,15.5 C2.99,14.61 3.79,13.34 4.1,12.51 C4.58,11.3 4.72,10.35 5.19,7.01 C5.54,4.53 5.89,3.2 7.28,2.16 C8.13,1.56 9.37,1.5 9.81,1.5 L9.96,1.5 C9.96,1.5 11.62,1.41 12.67,2.17 C14.08,3.2 14.42,4.54 14.77,7.02 C15.26,10.35 15.4,11.31 15.87,12.52 C16.2,13.34 17.01,14.61 17,15.5 L17,15.5 Z" fill="none" stroke-width="1" />
        <path d="M12.39,16 C12.39,17.37 11.35,18.43 9.91,18.43 C8.48,18.43 7.42,17.37 7.42,16" fill="none" stroke-width="1" />
    </symbol>

    <symbol id="large-screen" viewBox="0 0 20 20">
        <rect x="0.5" y="3.5" width="19" height="11" fill="none" stroke-width="1"/>
        <rect x="7" y="16" width="6" height="1"/>
    </symbol>

    <symbol id="desktop" viewBox="0 0 20 20">
        <rect x="9" y="14" width="1" height="2"/>
        <rect x="11" y="14" width="1" height="2"/>
        <rect x="6" y="16" width="9" height="1"/>
        <rect x="1.5" y="3.5" width="17" height="10" fill="none" stroke-width="1" />
    </symbol>

    <symbol id="notebook" viewBox="0 0 20 20">
        <rect x="2.5" y="3.5" width="15" height="10" fill="none" stroke-width="1" />
        <rect y="15" width="20" height="1"/>
    </symbol>

    <symbol id="settings" viewBox="0 0 20 20">
        <ellipse cx="6.11" cy="3.55" rx="2.11" ry="2.15" fill="none" stroke-width="1" />
        <ellipse cx="6.11" cy="15.55" rx="2.11" ry="2.15" fill="none" stroke-width="1" />
        <circle cx="13.15" cy="9.55" r="2.15" fill="none" stroke-width="1" />
        <rect x="1" y="3" width="3" height="1"/>
        <rect x="10" y="3" width="8" height="1"/>
        <rect x="1" y="9" width="8" height="1"/>
        <rect x="15" y="9" width="3" height="1"/>
        <rect x="1" y="15" width="3" height="1"/>
        <rect x="10" y="15" width="8" height="1"/>
    </symbol>

    <symbol id="refresh" viewBox="0 0 20 20">
        <polyline points="10,1 13,4 10,7" fill="none" stroke-width="1" />
        <path d="M 12.42,4.39 C 12.42,4.39 11.37,4 10.1,4 6.58,4 2.96,6.63 2.96,11.01 2.96,15.35 6.5,18 10,18 c 3.42,0 7,-2.63 7,-7" fill="none" stroke-width="1" />
    </symbol>

    <symbol id="help" viewBox="0 0 20 20">
        <polygon points="11.6,5.07 14.52,2.15 17.35,4.98 14.52,7.8"/>
        <polygon points="14.66,11.83 17.56,14.73 14.73,17.56 11.9,14.73"/>
        <polygon points="7.81,14.53 4.98,17.36 2.15,14.53 5.1,11.58"/>
        <polygon points="5.24,8.06 2.29,5.11 5.11,2.27 8.18,5.34"/>
        <circle cx="10" cy="10" r="9" fill="none" stroke-width="1" />
        <circle cx="10" cy="10" r="5" fill="none" stroke-width="1" />
    </symbol>

    <symbol id="help-2" viewBox="0 0 20 20">
        <path d="M10,1c-4.96,0-9,4.04-9,9c0,4.96,4.04,9,9,9c4.96,0,9-4.04,9-9C19,5.04,14.96,1,10,1z M10,1.95 c1.41,0,2.74,0.36,3.89,1l-2.14,2.14c-0.55-0.2-1.14-0.3-1.75-0.3c-0.75,0-1.45,0.16-2.09,0.44L5.81,3.13 C7.03,2.37,8.47,1.95,10,1.95z M5.23,7.92C4.95,8.56,4.79,9.25,4.79,10c0,0.62,0.1,1.2,0.31,1.75l-2.15,2.14 c-0.64-1.16-1-2.48-1-3.89c0-1.53,0.43-2.97,1.18-4.19L5.23,7.92L5.23,7.92z M10,18.05c-1.66,0-3.2-0.5-4.48-1.36l2.07-2.07 c0.72,0.38,1.53,0.6,2.41,0.6c0.75,0,1.45-0.16,2.09-0.44l2.09,2.09C12.96,17.63,11.54,18.05,10,18.05z M10,14.26 c-2.35,0-4.26-1.91-4.26-4.26S7.65,5.74,10,5.74c2.35,0,4.26,1.91,4.26,4.26S12.35,14.26,10,14.26z M14.77,12.09 c0.28-0.64,0.44-1.35,0.44-2.09c0-0.87-0.22-1.69-0.6-2.41l2.07-2.07c0.86,1.28,1.36,2.82,1.36,4.48c0,1.54-0.43,2.96-1.18,4.19 L14.77,12.09z" />
    </symbol>

    <symbol id="question" viewBox="0 0 20 20">
        <circle cx="10" cy="10" r="9" fill="none" stroke-width="1.2" />
        <circle cx="10.5" cy="14.5" r="1"/>
        <path d="M8.17,7.79c0-3.04,4.55-3.06,4.55-0.07 c0,0.95-0.91,1.43-1.49,2.03c-0.48,0.49-0.72,0.98-0.78,1.65c-0.01,0.13-0.02,0.24-0.02,0.35" fill="none" stroke-width="1.2"/>
    </symbol>

    <symbol id="info" viewBox="0 0 20 20">
        <path d="M12.13,11.59c-0.16,1.25-1.78,2.53-3.03,2.57c-2.93,0.04,0.79-4.7-0.36-5.79c0.56-0.21,1.88-0.54,1.88,0.44 c0,0.82-0.5,1.74-0.74,2.51c-1.22,3.84,2.25-0.17,2.26-0.14C12.16,11.21,12.16,11.35,12.13,11.59 C12.08,11.95,12.16,11.35,12.13,11.59z M11.56,5.67c0,1-2.2,1.48-2.2,0.36C9.36,5,11.56,4.54,11.56,5.67z" />
        <circle cx="10" cy="10" r="9" fill="none" stroke-width="1" />
    </symbol>

    <symbol id="gear" viewBox="0 0 20 20">
        <circle cx="10.3" cy="10" r="3.5" fill="none" stroke-width="1" />
        <path d="M18.75,12c-0.36,1.46-1.07,2.77-2.04,3.85c-1.03-0.72-2.23-1.13-2.96-0.65 c-0.75,0.49-0.85,1.79-0.59,3.04c-0.96,0.35-1.98,0.54-3.05,0.54c-0.84,0-1.66-0.12-2.43-0.34c0.24-1.3,0.12-2.66-0.67-3.14 c-0.81-0.49-2.11,0.06-3.16,0.91C2.74,15.1,1.91,13.7,1.5,12.13c1.29-0.46,2.45-1.3,2.45-2.25c0-0.94-1.16-1.78-2.44-2.23 c0.38-1.49,1.14-2.82,2.16-3.89c1.07,0.81,2.38,1.32,3.17,0.81c0.78-0.5,0.86-1.86,0.58-3.15C8.27,1.14,9.17,1,10.11,1 c0.97,0,1.91,0.16,2.78,0.45C12.68,2.71,12.82,4,13.58,4.46c0.75,0.46,1.93,0.02,2.94-0.73c1.07,1.11,1.85,2.49,2.22,4.04 c-1.14,0.48-2.1,1.25-2.1,2.11C16.64,10.75,17.61,11.52,18.75,12L18.75,12z" fill="none" stroke-width="1" />
    </symbol>

    <symbol id="thumbnails" viewBox="0 0 20 20">
        <rect x="3.5" y="3.5" width="5" height="5" fill="none" stroke-width="1" />
        <rect x="11.5" y="3.5" width="5" height="5" fill="none" stroke-width="1" />
        <rect x="11.5" y="11.5" width="5" height="5" fill="none" stroke-width="1" />
        <rect x="3.5" y="11.5" width="5" height="5" fill="none" stroke-width="1" />
    </symbol>

    <symbol id="warning" viewBox="0 0 20 20">
        <polygon points="10 1 19 10 10 19 1 10" fill="none" stroke-width="1" />
        <circle cx="10" cy="14" r="1" />
        <path d="M10.966,7.716 C10.845,9.535 10.56,11.289 10.56,11.289 C10.506,11.866 10.266,12 9.99,12 C9.692,12 9.485,11.866 9.43,11.289 C9.43,11.289 9.156,9.535 9.035,7.716 C8.957,6.539 9.035,5.996 9.035,5.996 C9.035,5.441 9.462,5.011 9.99,5 C10.527,5.011 10.966,5.441 10.966,5.996 C10.966,5.996 11.043,6.539 10.966,7.716" />
    </symbol>

    <symbol id="share" viewBox="0 0 20 20">
        <polyline points="6.53 3.94 9.5 1 12.42 3.94" fill="none" stroke-width="1" />
        <line x1="9.5" y1="10.41" x2="9.5" y2="1.41" fill="none" stroke-width="1" />
        <polyline points="6 5.5 3.5 5.5 3.5 18.5 15.5 18.5 15.5 5.5 13 5.5" fill="none" stroke-width="1" />
    </symbol>

    <symbol id="upload" viewBox="0 0 20 20">
        <polyline points="6 7 9.5 3.5 13 7" fill="none" stroke-width="1" />
        <rect x="3" y="17" width="13" height="1"/>
        <line x1="9.5" y1="15" x2="9.5" y2="4" fill="none" stroke-width="1" />
    </symbol>

    <symbol id="trash" viewBox="0 0 20 20">
        <polyline points="6.5 3 6.5 1.5 13.5 1.5 13.5 3" fill="none" stroke-width="1" />
        <polyline points="4.5 4 4.5 18.5 15.5 18.5 15.5 4" fill="none" stroke-width="1" />
        <rect x="8" y="7" width="1" height="9"/>
        <rect x="11" y="7" width="1" height="9"/>
        <rect x="2" y="3" width="16" height="1"/>
    </symbol>

    <symbol id="toggler" viewBox="0 0 20 20">
        <rect x="3" y="5" width="14" height="1" />
        <rect x="3" y="9" width="14" height="1" />
        <rect x="3" y="13" width="14" height="1" />
    </symbol>

    <symbol id="toggler-more-vertical" viewBox="0 0 20 20">
        <circle cx="10" cy="3" r="2" />
        <circle cx="10" cy="10" r="2" />
        <circle cx="10" cy="17" r="2" />
    </symbol>

    <symbol id="toggler-more" viewBox="0 0 20 20">
        <circle cx="3" cy="10" r="2" />
        <circle cx="10" cy="10" r="2" />
        <circle cx="17" cy="10" r="2" />
    </symbol>

    <symbol id="table" viewBox="0 0 20 20">
        <rect x="1" y="3" width="18" height="1" />
        <rect x="1" y="7" width="18" height="1" />
        <rect x="1" y="11" width="18" height="1" />
        <rect x="1" y="15" width="18" height="1" />
    </symbol>

    <symbol id="shopping-cart" viewBox="0 0 20 20">
        <polyline points="1 3 4 5 6 13.5 16.5 13.5 18.5 7.5 9.5 7.5" fill="none" stroke-width="1" />
        <circle cx="14.5" cy="16.5" r="1.5"/>
        <circle cx="8.5" cy="16.5" r="1.5"/>
    </symbol>

    <symbol id="block" viewBox="0 0 20 20">
        <circle cx="10" cy="10" r="9" fill="none" stroke-width="1" />
        <line x1="4" y1="3.5" x2="16" y2="16.5" fill="none" stroke-width="1" />
    </symbol>

    <symbol id="star" viewBox="0 0 20 20">
        <polygon points="10 2 12.63 7.27 18.5 8.12 14.25 12.22 15.25 18 10 15.27 4.75 18 5.75 12.22 1.5 8.12 7.37 7.27" fill="none" stroke-width="1" />
    </symbol>

    <symbol id="sort-up" viewBox="0 0 20 20">
        <polygon points="5 13 10 8 15 13" />
    </symbol>

    <symbol id="sort-down" viewBox="0 0 20 20">
        <polygon points="5 7 15 7 10 12" />
    </symbol>

    <symbol id="sort-left" viewBox="0 0 20 20">
        <polygon points="12 5 7 10 12 15" />
    </symbol>

    <symbol id="sort-right" viewBox="0 0 20 20">
        <polygon points="8 5 13 10 8 15" />
    </symbol>

    <symbol id="smily" viewBox="0 0 20 20">
        <circle cx="7" cy="7" r="1"/>
        <circle cx="13" cy="7" r="1"/>
        <circle cx="10" cy="10" r="8.5" fill="none" stroke-width="1" />
        <path d="M5.47 11.69s1.1 3.18 4.53 3.18c3.53 0 4.75-3.18 4.75-3.18" fill="none" stroke-width="1" />
    </symbol>

    <symbol id="search" viewBox="0 0 20 20">
        <circle cx="9" cy="9" r="7" fill="none" stroke-width="1" />
        <path d="M14,14 L18,18 L14,14 Z" fill="none" stroke-width="1" />
    </symbol>

    <symbol id="reply" viewBox="0 0 20 20">
        <path d="M17.699,13.111 C16.118,10.019 13.839,7.85 11.019,6.611 C10.569,6.421 9.75,6.13 9,5.92 L9,2 L1,9.001 L9,16 L9,12.13 C10.779,12.471 12.497,13.201 14.089,14.251 C17.134,16.28 18.556,18.55 18.556,18.55 C18.556,18.55 18.806,15.281 17.699,13.111 Z M14.819,13.531 C13.169,12.401 11.009,11.411 8,10.921 L8,13.63 L2.549,9.001 L8,4.25 L8,6.801 C8.299,6.86 9.16,7.019 10.369,7.501 C13.301,8.66 15.54,10.971 16.649,13.09 C16.973,13.711 17.478,14.87 17.679,16 C16.87,15.051 15.729,14.15 14.819,13.531 Z" />
    </symbol>

    <symbol id="reply-right" viewBox="0 0 20 20">
        <path d="M2.429,13.111c1.555-3.092,3.796-5.261,6.569-6.5C9.44,6.421,10.262,6.13,11,5.92V2 l8,7.001L10.984,16v-3.87c-1.751,0.341-3.44,1.071-5.006,2.121c-2.994,2.028-4.392,4.299-4.392,4.299S1.34,15.281,2.429,13.111z M5.261,13.531c1.622-1.131,3.779-2.12,6.739-2.61v2.709l5.438-4.629L12,4.25v2.551c-0.295,0.059-1.174,0.218-2.363,0.7 c-2.884,1.159-5.085,3.47-6.176,5.589C3.145,13.711,2.646,14.87,2.449,16C3.245,15.051,4.366,14.15,5.261,13.531z" />
    </symbol>

    <symbol id="plus" viewBox="0 0 20 20">
        <rect x="9" y="1" width="1" height="17"/>
        <rect x="1" y="9" width="17" height="1"/>
    </symbol>

    <symbol id="plus-2" viewBox="0 0 20 20">
        <polygon id="Path-376" points="9 1 10 1 10 9 18 9 18 10 10 10 10 18 9 18 9 10 1 10 1 9 9 9" />
    </symbol>

    <symbol id="lock" viewBox="0 0 20 20">
        <rect height="10" width="13" y="8.5" x="3.5" fill="none" stroke-width="1" />
        <path d="m 13.5,8 0,-2.62 C 13.5,3.275 11.979,1.67 10,1.67 8.019,1.67 6.5,3.274 6.5,5.38 L 6.5,8" fill="none" stroke-width="1" />
    </symbol>

    <symbol id="move" viewBox="0 0 20 20">
        <polygon points="4,5 1,5 1,9 2,9 2,6 4,6 "/>
        <polygon points="1,16 2,16 2,18 4,18 4,19 1,19 "/>
        <polygon points="14,16 14,19 11,19 11,18 13,18 13,16 "/>
        <rect x="5.5" y="1.5" width="13" height="13" fill="none" stroke-width="1" />
        <rect x="1" y="11" width="1" height="3"/>
        <rect x="6" y="18" width="3" height="1"/>
    </symbol>

    <symbol id="media" viewBox="0 0 20 20">
        <polyline points="1,16 6,11 8,13 13,7 19,16 " fill="none" stroke-width="1" />
        <circle r="1.5" cy="6.5" cx="5.5" />
        <rect height="14" width="19" y="2.5" x="0.5" fill="none" stroke-width="1" />
    </symbol>

    <symbol id="minus" viewBox="0 0 20 20">
        <rect height="1" width="18" y="9" x="1" />
    </symbol>

    <symbol id="email" viewBox="0 0 20 20">
        <polyline points="1.4,6.5 10,11 18.6,6.5 " fill="none" stroke-width="1" />
        <path d="M 1,4 1,16 19,16 19,4 1,4 Z M 18,15 2,15 2,5 18,5 18,15 Z" />
    </symbol>

    <symbol id="logout" viewBox="0 0 20 20">
        <polygon points="13.1 13.4 12.5 12.8 15.28 10 8 10 8 9 15.28 9 12.5 6.2 13.1 5.62 17 9.5" />
        <polygon points="13 2 3 2 3 17 13 17 13 16 4 16 4 3 13 3" />
    </symbol>

    <symbol id="home" viewBox="0 0 20 20">
        <polyline points="1 11 10 2 19 11" fill="none" stroke-width="1" />
        <polygon points="15 4 18 4 18 7 17 7 17 5 15 5" />
        <polygon points="3 11 4 11 4 18 7 18 7 12 12 12 12 18 16 18 16 11 17 11 17 19 11 19 11 13 8 13 8 19 3 19" />
    </symbol>

    <symbol id="heart" viewBox="0 0 20 20">
        <path d="M10,4.11 C10,4.11 8.1,2 5.739,2 C3.378,2 1,3.55 1,6.73 C1,8.84 2.673,10.44 2.673,10.44 L10,17.711 L17.326,10.44 C17.326,10.44 19,8.84 19,6.73 C19,3.55 16.62,2 14.26,2 C11.901,2 10,4.11 10,4.11 L10,4.11 Z" fill="none" stroke-width="1" />
    </symbol>

    <symbol id="page" viewBox="0 0 20 20">
        <path d="M 12.42,1 3,1 3,19 17,19 17,5.57 12.42,1 Z M 16,18 4,18 4,2 l 7,0 0,5 5,0 0,11 z M 12,6 12,2 16,6 12,6 Z" />
    </symbol>

    <symbol id="hashtag" viewBox="0 0 20 20">
        <path d="M15.431,8 L15.661,7 L12.911,7 L13.831,3 L12.901,3 L11.98,7 L9.29,7 L10.21,3 L9.281,3 L8.361,7 L5.23,7 L5,8 L8.13,8 L7.21,12 L4.23,12 L4,13 L6.98,13 L6.061,17 L6.991,17 L7.911,13 L10.601,13 L9.681,17 L10.611,17 L11.531,13 L14.431,13 L14.661,12 L11.76,12 L12.681,8 L15.431,8 Z M10.831,12 L8.141,12 L9.061,8 L11.75,8 L10.831,12 Z" />
    </symbol>

    <symbol id="hashtag-2" viewBox="0 0 20 20">
        <polygon points="5.23,7 15.66,7 15.43,8 5,8"/>
        <polygon points="4.23,12 14.66,12 14.43,13 4,13"/>
        <path d="M 13.83,3 12.9,3 9.68,17 10.61,17 13.83,3 Z"/>
        <path d="M 10.15,3 9.22,3 6,17 6.93,17 10.15,3 Z" />
    </symbol>

    <symbol id="code" viewBox="0 0 20 20">
        <polyline points="6,14 2,10 6,6" fill="none" stroke-width="1" />
        <polyline points="15,6 19,10 15,14" fill="none" stroke-width="1" />
        <path d="M13,6 L8,14" fill="none" stroke-width="1" />
    </symbol>

    <symbol id="check" viewBox="0 0 20 20">
        <polyline points="4,10 8,15 17,4 " fill="none" stroke-width="1" />
    </symbol>

    <symbol id="angle-top" viewBox="0 0 20 20">
        <polyline points="4 13 10 7 16 13" fill="none" stroke-width="1" />
    </symbol>

    <symbol id="angle-bottom" viewBox="0 0 20 20">
        <polyline points="16 7 10 13 4 7" fill="none" stroke-width="1" />
    </symbol>

    <symbol id="angle-left" viewBox="0 0 20 20">
        <polyline points="13 16 7 10 13 4" fill="none" stroke-width="1" />
    </symbol>

    <symbol id="angle-right" viewBox="0 0 20 20">
        <polyline points="7 4 13 10 7 16" fill="none" stroke-width="1" />
    </symbol>

    <!-- runden -->
    <symbol id="anchor" viewBox="0 0 20 20">
        <path d="M7.38750024,14.71575 C6.99850024,15.10475 6.37250024,15.10475 5.98350024,14.71575 L5.28250024,14.01475 C4.89350024,13.62475 4.89350024,13.00575 5.28250024,12.61475 L8.59650024,9.29475 C7.93550024,9.12475 7.20250024,9.28575 6.68550024,9.80475 L4.58050024,11.91575 C3.80750024,12.68475 3.80550024,13.94475 4.58050024,14.71575 L5.28250024,15.41575 C6.05650024,16.19475 7.31550024,16.19475 8.08950024,15.41575 L10.1945002,13.31475 C10.7115002,12.79575 10.8765002,12.06475 10.7015002,11.40475 L7.38750024,14.71575"/>
        <path d="M15.4195002,5.28475 L14.7185002,4.58575 C13.9435002,3.80475 12.6845002,3.80475 11.9115002,4.58575 L9.80650024,6.68475 C9.28750024,7.20575 9.12350024,7.93475 9.29750024,8.59475 L12.6125002,5.28475 C13.0005002,4.89475 13.6275002,4.89475 14.0165002,5.28475 L14.7185002,5.98475 C15.1065002,6.37475 15.1065002,6.99575 14.7185002,7.38575 L11.4035002,10.70475 C12.0645002,10.87475 12.7975002,10.71575 13.3135002,10.19475 L15.4195002,8.08575 C16.1935002,7.31475 16.1945002,6.05475 15.4195002,5.28475"/>
        <path d="M7.89450024,12.10475 C7.99050024,12.20475 8.11850024,12.24575 8.24550024,12.24575 C8.37250024,12.24575 8.50050024,12.20475 8.59750024,12.10475 L12.1065002,8.59475 C12.2995002,8.40475 12.2995002,8.08575 12.1065002,7.89475 C11.9135002,7.70475 11.5975002,7.70475 11.4035002,7.89475 L7.89550024,11.40475 C7.70050024,11.59475 7.70050024,11.91575 7.89450024,12.10475"/>
    </symbol>

    <symbol id="calendar" viewBox="0 0 20 20">
        <path d="M 2,3 2,17 18,17 18,3 2,3 Z M 17,16 3,16 3,8 17,8 17,16 Z M 17,7 3,7 3,4 17,4 17,7 Z" />
        <rect width="1" height="3" x="6" y="2" />
        <rect width="1" height="3" x="13" y="2" />
    </symbol>

    <symbol id="shedule" viewBox="0 0 20 20">
        <circle cx="14.5" cy="13.5" r="4.5" fill="none" stroke-width="1" />
        <path d="m 1,2 0,14 10,0 -1,-1 -8,0 0,-8 14,0 0,2 1,1 L 17,2 1,2 Z M 16,6 2,6 2,3 16,3 16,6 Z" />
        <path d="M14 11 L15 11 15 14 17 14 17 15 14 15"/>
        <rect width="1" height="3" x="5" y="1" />
        <rect width="1" height="3" x="12" y="1" />
    </symbol>

    <symbol id="time" viewBox="0 0 20 20">
        <circle r="8" cy="10" cx="10" fill="none" stroke-width="1" />
        <rect x="9" y="4" width="1" height="7" />
        <rect x="10" y="10" width="5" height="1" />
    </symbol>

<!-- socials todo runden -->

    <symbol id="google" viewBox="0 0 20 20">
        <path d="M17.859,9.088 C18.462,12.117 17.138,16.048 13.804,17.558 C9.445,19.533 4.124,17.68 2.468,12.872 C0.681,7.684 4.222,2.42 9.497,2.026 C11.568,1.875 13.414,2.37 15.051,3.649 C15.221,3.779 15.373,3.929 15.614,4.138 C14.906,4.81 14.231,5.448 13.505,6.136 C12.276,5.073 10.846,4.72 9.282,4.979 C8.12,5.167 7.159,5.759 6.366,6.634 C4.877,8.275 4.617,10.863 5.76,12.828 C6.949,14.874 9.172,15.805 11.574,15.263 C13.273,14.879 14.767,13.346 14.898,11.759 L10.515,11.759 L10.515,9.088 L17.859,9.088 L17.859,9.088 Z" id="Shape"></path>
    </symbol>

    <symbol id="xing" viewBox="0 0 20 20">
        <path d="M4.39638082,4.601 C4.24038082,4.601 4.10738082,4.601 4.04138082,4.799 C3.97438082,4.901 3.98338082,5 4.05738082,5.201 L5.81138082,8.201 L5.81138082,8.201 L3.05438082,13.101 C2.98038082,13.201 2.98338082,13.4 3.05438082,13.5 C3.11938082,13.601 3.23738082,13.601 3.39238082,13.601 L5.98938082,13.601 C6.37538082,13.601 6.56338082,13.4 6.69738082,13.101 C6.69738082,13.101 9.39438082,8.4 9.49838082,8.201 C9.48838082,8.201 7.71538082,5.1 7.71538082,5.1 C7.58338082,4.799 7.39038082,4.601 6.99338082,4.601 L4.39638082,4.601" />
        <path d="M15.3023808,1 C14.9143808,1 14.7473808,1.3 14.6063808,1.5 C14.6063808,1.5 9.01438082,11.4 8.83038082,11.8 C8.83938082,11.8 12.5193808,18.5 12.5193808,18.5 C12.6473808,18.8 12.8463808,19 13.2443808,19 L15.8373808,19 C15.9953808,19 16.1163808,19 16.1823808,18.9 C16.2503808,18.8 16.2483808,18.6 16.1773808,18.5 L12.5173808,11.8 C12.5133808,11.8 12.5133808,11.8 12.5173808,11.8 L18.2653808,1.601 C18.3363808,1.5 18.3393808,1.3 18.2703808,1.201 C18.2053808,1.101 18.0813808,1 17.9253808,1 L15.3023808,1" />
    </symbol>

    <symbol id="youtube" viewBox="0 0 20 20">
        <path d="M8.03589669,4 C10.1688967,4 12.3038967,4 14.4348967,4.101 C15.3438967,4.2 16.4288967,4.101 17.1358967,4.8 C17.8568967,5.5 17.8958967,6.7 17.9498967,7.6 C18.0088967,8.601 17.9998967,9.7 17.9998967,10.701 C17.8728967,11.7 17.9938967,12.8 17.5888967,13.8 C17.1568967,14.7 16.2638967,14.901 15.2888967,15 C14.1848967,15.1 13.0738967,15.1 11.9698967,15.201 C9.85789669,15.201 7.74789669,15.201 5.63889669,15.1 C4.63989669,15 3.44289669,15.1 2.72989669,14.3 C2.12489669,13.6 2.10489669,12.5 2.05489669,11.601 C1.99489669,10.5 1.98489669,9.5 2.02089669,8.4 C2.05489669,7.401 2.03489669,6.3 2.46889669,5.4 C2.89989669,4.401 3.78889669,4.3 4.71289669,4.2 C5.81689669,4.101 6.92789669,4.101 8.03589669,4 C9.34689669,4 7.80689669,4 8.03589669,4 Z M7.94389669,6.8 L7.94389669,12.1 L13.0378967,9.5 L7.94389669,6.8 Z" />
    </symbol>

    <symbol id="wordpress" viewBox="0 0 20 20">
        <path d="M10,1 C5.029,1 1,5.101 1,10 C1,15.001 5.029,19 10,19 C14.97,19 19,15.001 19,10 C19,5.101 14.97,1 10,1 Z M1.952,10 C1.952,8.8 2.204,7.7 2.65,6.701 L6.501,17.3 C3.809,16 1.952,13.2 1.952,10 Z M10.023,18.101 C9.23,18.101 8.465,18.001 7.743,17.8 L10.164,10.7 L12.644,17.5 C12.661,17.601 12.681,17.601 12.702,17.601 C11.864,17.9 10.962,18.101 10.023,18.101 Z M11.136,6.2 L12.058,6.2 C12.493,6.101 12.442,5.5 12.007,5.5 C12.007,5.5 10.701,5.601 9.855,5.601 C9.063,5.601 7.73,5.5 7.73,5.5 C7.296,5.5 7.244,6.101 7.68,6.2 L8.524,6.2 L9.782,9.701 L8.016,15.001 L5.079,6.2 L6.001,6.2 C6.436,6.101 6.385,5.5 5.951,5.5 C5.951,5.5 4.643,5.601 3.799,5.601 L3.28,5.601 C4.724,3.401 7.204,1.901 10.023,1.901 C12.123,1.901 14.037,2.7 15.472,4.101 L15.368,4.101 C14.576,4.101 14.012,4.7 14.012,5.5 C14.012,6.2 14.395,6.701 14.804,7.4 C15.112,7.901 15.47,8.601 15.47,9.601 C15.47,10.3 15.204,11.101 14.855,12.2 L14.051,14.9 L11.136,6.2 Z M14.079,17 L16.543,9.9 C17.004,8.7 17.158,7.799 17.158,7 C17.158,6.701 17.137,6.401 17.102,6.101 C17.733,7.3 18.093,8.601 18.093,10 C18.093,13 16.478,15.601 14.079,17 Z" />
    </symbol>

    <symbol id="uikit" viewBox="0 0 20 20">
        <polygon points="14.35 3.5 11.27 5.4 14.75 7.4 14.75 12.7 10 15.4 5 12.7 5 8.6 2 7 2 14.5 9.9 19 17.9 14.5 17.9 5.5" />
        <polygon points="12.58 2.8 9.6 1 6.5 3 9.5 4.6" />
    </symbol>

    <symbol id="twitter" viewBox="0 0 20 20">
        <path d="M19,4.74 C18.339,5.029 17.626,5.229 16.881,5.32 C17.644,4.86 18.227,4.139 18.503,3.28 C17.79,3.7 17.001,4.009 16.159,4.17 C15.485,3.45 14.526,3 13.464,3 C11.423,3 9.771,4.66 9.771,6.7 C9.771,6.99 9.804,7.269 9.868,7.539 C6.795,7.38 4.076,5.919 2.254,3.679 C1.936,4.219 1.754,4.86 1.754,5.539 C1.754,6.82 2.405,7.95 3.397,8.61 C2.79,8.589 2.22,8.429 1.723,8.149 L1.723,8.189 C1.723,9.978 2.997,11.478 4.686,11.82 C4.376,11.899 4.049,11.939 3.713,11.939 C3.475,11.939 3.245,11.919 3.018,11.88 C3.49,13.349 4.852,14.419 6.469,14.449 C5.205,15.429 3.612,16.019 1.882,16.019 C1.583,16.019 1.29,16.009 1,15.969 C2.635,17.019 4.576,17.629 6.662,17.629 C13.454,17.629 17.17,12 17.17,7.129 C17.17,6.969 17.166,6.809 17.157,6.649 C17.879,6.129 18.504,5.478 19,4.74" />
    </symbol>

    <symbol id="pagekit" viewBox="0 0 20 20">
        <polygon points="3 0 18 0 18 16 11 16 11 13 15 13 15 3 6 3 6 16 11 16 11 19 3 19" />
    </symbol>

    <symbol id="instagram" viewBox="0 0 20 20">
        <path d="M16.57,1 L3.429,1 C2.089,1 1,2.1 1,3.5 L1,16.601 C1,17.9 2.089,19 3.429,19 L16.57,19 C17.91,19 19,17.9 19,16.601 L19,3.5 C19,2.1 17.91,1 16.57,1 Z M13.28,3.8 C13.28,3.401 13.61,3.101 14.02,3.101 L16.139,3.101 C16.549,3.101 16.879,3.401 16.879,3.8 L16.879,5.9 C16.879,6.3 16.549,6.701 16.139,6.701 L14.02,6.701 C13.61,6.701 13.28,6.3 13.28,5.9 L13.28,3.8 Z M10,6.3 C12.04,6.3 13.689,8 13.689,10 C13.689,12.101 12.04,13.7 10,13.7 C7.959,13.7 6.31,12.101 6.31,10 C6.31,8 7.959,6.3 10,6.3 Z M17.07,16.4 C17.07,16.8 16.74,17.1 16.33,17.1 L3.669,17.1 C3.259,17.1 2.929,16.8 2.929,16.4 L2.929,8.7 L4.48,8.7 C4.37,9.101 4.31,9.6 4.31,10 C4.31,13.2 6.86,15.701 10,15.701 C13.139,15.701 15.689,13.2 15.689,10 C15.689,9.6 15.629,9.101 15.52,8.7 L17.07,8.7 L17.07,16.4 Z" />
    </symbol>

    <symbol id="linkedin" viewBox="0 0 20 20">
        <polygon id="Path" points="2.21 17.9 5.773 17.9 5.773 7.201 2.21 7.201" />
        <path d="M7.746,17.9 L11.31,17.9 L11.31,11.9 C11.31,11.601 11.333,11.3 11.427,11.1 C11.685,10.4 12.27,9.8 13.255,9.8 C14.544,9.8 15.06,10.7 15.06,12.2 L15.06,17.9 L18.623,17.9 L18.623,11.8 C18.623,8.5 16.866,7 14.52,7 C12.599,7 11.755,8 11.286,8.8 L11.31,8.8 L11.31,7.201 L7.746,7.201 C7.793,8.201 7.746,17.9 7.746,17.9" />
        <path d="M3.993,5.701 C5.235,5.701 6.009,4.901 6.009,3.9 C5.986,2.8 5.235,2 4.016,2 C2.797,2 2,2.8 2,3.9 C2,4.901 2.773,5.701 3.97,5.701 L3.993,5.701 L3.993,5.701 Z" />
    </symbol>

    <symbol id="behance" viewBox="0 0 20 20">
        <polygon points="13 6 17 6 17 5 13 5" />
        <path d="M9.77,10 C9.44,9.6 8.9,9.2 8.25,9 C8.75,8.8 9.12,8.5 9.38,8.1 C9.63,7.8 9.76,7.3 9.76,6.7 C9.76,6.2 9.67,5.8 9.51,5.4 C9.33,5.1 9.09,4.799 8.78,4.6 C8.47,4.4 8,4.2 7.67,4 C7.229,4 6.75,4 6.219,4 L1,4 L1,15.1 L6.37,15.1 C6.86,15.1 7.349,14.999 7.809,14.899 C8.29,14.8 8.71,14.599 9.07,14.299 C9.439,14.1 9.729,13.699 9.949,13.3 C10.159,12.899 10.269,12.399 10.269,11.899 C10.269,11.199 10.11,10.6 9.769,10.099 Z M3.42,5.899 L6.179,5.899 C6.889,5.899 7.46,6.5 7.46,7.198 C7.46,7.899 6.889,8.5 6.179,8.5 L3.42,8.5 L3.42,5.899 Z M6.479,13.198 L3.42,13.198 L3.42,10.198 L6.479,10.198 C7.229,10.198 7.84,10.799 7.84,11.698 C7.84,12.5 7.229,13.198 6.479,13.198 Z"/>
        <path d="M18.96,10.499 C18.78,8.999 17.889,7.499 16.34,7 C12.55,5.8 9.729,10.099 11.55,13.399 C12.389,14.899 14.11,15.399 15.75,15.199 C17.32,14.999 18.37,14.1 18.849,12.6 L16.909,12.6 C16.54,13.799 14.679,13.899 13.83,13.198 C13.8,13.198 13.78,13.198 13.75,13.099 C13.349,12.799 13.199,12.1 13.199,11.599 L19.019,11.599 C19.05,11.199 18.979,10.699 18.96,10.499 Z M13.199,10.198 C13.134,8.698 15.21,7.699 16.28,8.899 C16.59,9.299 16.74,9.699 16.78,10.198 L13.199,10.198 Z"/>
    </symbol>

    <symbol id="facebook" viewBox="0 0 20 20">
        <path d="M10.73,19.001 L10.73,11.25 L13.332,11.25 L13.724,8.23 L10.73,8.23 L10.73,6.3 C10.73,5.42 10.973,4.83 12.23,4.83 L13.827,4.83 L13.827,2.13 C13.552,2.09 12.602,2 11.497,2 C9.187,2 7.609,3.411 7.609,6 L7.609,8.23 L5,8.23 L5,11.25 L7.609,11.25 L7.609,19.001 L10.73,19.001" />
    </symbol>

    <symbol id="github" viewBox="0 0 20 20">
        <path d="M9.999,1 C5.03,1 1,5.1 1,10 C1,14 3.578,17.4 7.155,18.6 C7.605,18.701 7.769,18.401 7.769,18.101 C7.769,17.9 7.761,17.4 7.757,16.601 C5.253,17.201 4.725,15.401 4.725,15.401 C4.316,14.4 3.726,14.1 3.726,14.1 C2.909,13.5 3.788,13.5 3.788,13.5 C4.691,13.601 5.166,14.5 5.166,14.5 C5.969,15.8 7.273,15.401 7.786,15.2 C7.867,14.601 8.1,14.201 8.357,14 C6.358,13.799 4.257,13 4.257,9.6 C4.257,8.601 4.608,7.799 5.184,7.201 C5.091,6.9 4.783,6 5.272,4.799 C5.272,4.799 6.028,4.5 7.747,5.701 C8.464,5.5 9.235,5.4 10,5.4 C10.765,5.4 11.535,5.5 12.253,5.701 C13.971,4.5 14.726,4.799 14.726,4.799 C15.217,6 14.908,6.9 14.815,7.201 C15.392,7.799 15.74,8.601 15.74,9.6 C15.74,13 13.636,13.799 11.631,14 C11.955,14.3 12.242,14.8 12.242,15.701 C12.242,16.901 12.231,17.8 12.231,18.101 C12.231,18.401 12.393,18.701 12.85,18.6 C16.423,17.4 19,14 19,10 C19,5.1 14.97,1 9.999,1" />
    </symbol>

    <symbol id="github-2" viewBox="0 0 20 20">
        <path d="M10,1 C5.041,1 1,5.101 1,10 C1,15 5.041,19 10,19 C14.96,19 19,15 19,10 C19,5.101 14.96,1 10,1 Z M12.741,17.5 C12.741,17.5 12.741,17.5 12.73,17.5 C12.411,17.6 12.291,17.401 12.291,17.2 L12.291,16 C12.291,15.3 12.041,14.8 11.55,14.5 C12.15,14.401 12.701,14.299 13.19,14.101 C13.781,13.9 14.26,13.601 14.621,13.201 C15.281,12.601 15.611,11.5 15.611,10.201 C15.611,9.3 15.311,8.5 14.71,7.9 C14.97,7.201 14.94,6.4 14.621,5.6 L14.4,5.6 C14.23,5.5 13.96,5.6 13.571,5.701 C13.161,5.9 12.72,6.201 12.25,6.5 C11.51,6.3 10.781,6.201 10.071,6.201 C9.361,6.201 8.64,6.3 7.911,6.5 C7.331,6.101 6.811,5.8 6.34,5.701 C6.161,5.6 6.01,5.6 5.89,5.6 L5.531,5.6 C5.19,6.4 5.161,7.201 5.44,7.9 C4.84,8.5 4.531,9.3 4.531,10.201 C4.531,11.9 5.081,13.1 6.18,13.8 C6.611,14.101 7.13,14.2 7.75,14.401 C8.071,14.401 8.351,14.5 8.59,14.5 C8.111,14.8 7.871,15.3 7.871,16 L7.871,17.401 C7.851,17.5 7.76,17.6 7.571,17.6 C4.351,16.601 2.021,13.601 2.021,10 C2.021,5.6 5.601,2.101 10,2.101 C14.4,2.101 17.98,5.6 17.98,10 C17.98,13.5 15.791,16.4 12.741,17.5 Z" />
    </symbol>

    <symbol id="flickr" viewBox="0 0 20 20">
        <circle cx="5" cy="9.5" r="3.5"/>
        <circle cx="14" cy="9.5" r="3.5"/>
    </symbol>

    <symbol id="google-plus" viewBox="0 0 20 20">
        <polygon points="16 7 18 7 18 9 20 9 20 11 18 11 18 13 16 13 16 11 14 11 14 9 16 9" />
        <path d="M12.6463668,9.2187989 C13.0913668,11.4167989 12.1183668,14.3177989 9.67036682,15.4177989 C6.46936682,16.8177989 2.56036682,15.5177989 1.34436682,12.0177989 C0.030366815,8.1187989 2.63236682,4.3187989 6.50636682,4.0187989 C8.02736682,3.9167989 9.38436682,4.2177989 10.5843668,5.2187989 C10.7093668,5.3177989 10.8213668,5.4167989 10.9973668,5.5187989 C10.4783668,6.0177989 9.98236682,6.5177989 9.44936682,7.0187989 C8.54736682,6.2187989 7.49536682,6.0177989 6.34836682,6.2187989 C5.49436682,6.3177989 4.79036682,6.7187989 4.20636682,7.4177989 C3.11236682,8.6177989 2.92236682,10.5177989 3.76136682,11.9177989 C4.63536682,13.4177989 6.26736682,14.1187989 8.03136682,13.7187989 C9.27936682,13.4177989 10.3763668,12.3177989 10.4743668,11.1187989 L7.25436682,11.1187989 L7.25436682,9.2187989 L12.6463668,9.2187989" />
    </symbol>

    <symbol id="joomla" viewBox="0 0 20 20">
        <path d="M3.896,9.799 C2.822,8.701 2.489,7.201 2.897,5.8 C1.823,5.601 1.024,4.601 1.024,3.4 C1.025,2.101 2.099,1 3.431,1 C4.624,1 5.62,1.9 5.804,3.101 C7.103,2.701 8.525,3.101 9.54,4.101 L7.765,5.9 C7.187,5.299 6.253,5.299 5.677,5.9 C5.097,6.501 5.097,7.4 5.672,8.001 L9.477,11.8 L7.702,13.601" />
        <path d="M10.234,4.101 C11.304,3.101 12.826,2.701 14.182,3.101 C14.346,1.9 15.349,1 16.565,1 C17.895,1 18.976,2.101 18.975,3.4 C18.975,4.7 18.064,5.701 16.884,5.8 C17.271,7.201 16.933,8.701 15.873,9.799 L14.095,8.001 C14.672,7.4 14.672,6.501 14.096,5.9 C13.523,5.299 12.59,5.299 12.011,5.9 L8.159,9.799 L6.38,8.001" />
        <path d="M14.227,17.101 C12.863,17.5 11.313,17.2 10.234,16.101 L12.011,14.299 C12.587,14.9 13.523,14.9 14.1,14.299 C14.672,13.8 14.674,12.799 14.095,12.2 L10.263,8.401 L12.038,6.601 L15.873,10.5 C16.893,11.5 17.245,12.901 16.929,14.2 C18.098,14.401 19,15.4 19,16.601 C19,18 17.918,19 16.59,19 C15.423,19 14.453,18.2 14.227,17.101" />
        <path d="M13.372,12.3 L9.54,16.101 C8.514,17.101 7.065,17.5 5.753,17.2 C5.508,18.2 4.553,19 3.408,19 C2.078,19 1,18 1,16.601 C1,15.501 1.789,14.5 2.85,14.299 C2.517,13 2.865,11.5 3.896,10.5 L5.672,12.2 C5.097,12.799 5.097,13.8 5.674,14.299 C6.252,14.9 7.187,14.9 7.765,14.299 L11.596,10.5" />
    </symbol>

    <symbol id="pinterest" viewBox="0 0 20 20">
        <path d="M10.212,1 C5.5,1 3,4.17 3,7.611 C3,9.21 3.852,11.211 5.215,11.841 C5.423,11.94 5.533,11.891 5.579,11.69 C5.616,11.541 5.801,10.8 5.883,10.461 C5.91,10.35 5.896,10.251 5.806,10.14 C5.357,9.6 4.996,8.59 4.996,7.651 C4.996,5.25 6.819,2.92 9.924,2.92 C12.607,2.92 14.483,4.741 14.483,7.36 C14.483,10.31 12.994,12.35 11.053,12.35 C9.981,12.35 9.178,11.47 9.435,10.38 C9.745,9.081 10.34,7.68 10.34,6.75 C10.34,5.911 9.89,5.211 8.959,5.211 C7.863,5.211 6.983,6.34 6.983,7.861 C6.983,8.83 7.31,9.48 7.31,9.48 C7.31,9.48 6.229,14.06 6.032,14.911 C5.695,16.35 6.076,18.69 6.109,18.901 C6.126,19.01 6.248,19.05 6.317,18.951 C6.424,18.81 7.727,16.861 8.096,15.44 C8.227,14.93 8.775,12.85 8.775,12.85 C9.132,13.531 10.17,14.1 11.277,14.1 C14.569,14.1 16.942,11.071 16.942,7.31 C16.942,3.7 14,1 10.212,1" />
    </symbol>
<!-- socials ende -->

<!-- editor runden -->

    <symbol id="quote" viewBox="0 0 20 20">
        <path d="M17.27,7.79 C17.27,9.45 16.97,10.43 15.99,12.02 C14.98,13.64 13,15.23 11.56,15.97 L11.1,15.08 C12.34,14.2 13.14,13.51 14.02,11.82 C14.27,11.34 14.41,10.92 14.49,10.54 C14.3,10.58 14.09,10.6 13.88,10.6 C12.06,10.6 10.59,9.12 10.59,7.3 C10.59,5.48 12.06,4 13.88,4 C15.39,4 16.67,5.02 17.05,6.42 C17.19,6.82 17.27,7.27 17.27,7.79 L17.27,7.79 Z" id="Shape"></path>
        <path d="M8.68,7.79 C8.68,9.45 8.38,10.43 7.4,12.02 C6.39,13.64 4.41,15.23 2.97,15.97 L2.51,15.08 C3.75,14.2 4.55,13.51 5.43,11.82 C5.68,11.34 5.82,10.92 5.9,10.54 C5.71,10.58 5.5,10.6 5.29,10.6 C3.47,10.6 2,9.12 2,7.3 C2,5.48 3.47,4 5.29,4 C6.8,4 8.08,5.02 8.46,6.42 C8.6,6.82 8.68,7.27 8.68,7.79 L8.68,7.79 Z" id="Shape"></path>
    </symbol>

    <symbol id="pen" viewBox="0 0 20 20">
        <polyline points="14.44 7.44 6.66 15.2 3.87 16.2 4.87 13.39 12.63 5.62" fill="none" stroke-width="1" />
        <path d="M12.28,5.27 L13.31,4.23 C14.02,3.54 15.11,3.53 15.85,4.21 C16.56,4.93 16.56,6.03 15.87,6.74 L14.8,7.78" />
    </symbol>

    <symbol id="bold" viewBox="0 0 20 20">
        <path d="M5,15.3 C5.66,15.3 5.9,15 5.9,14.53 L5.9,5.5 C5.9,4.92 5.56,4.7 5,4.7 L5,4 L8.95,4 C12.6,4 13.7,5.37 13.7,6.9 C13.7,7.87 13.14,9.17 10.86,9.59 L10.86,9.7 C13.25,9.86 14.29,11.28 14.3,12.54 C14.3,14.47 12.94,16 9,16 L5,16 L5,15.3 Z M9,9.3 C11.19,9.3 11.8,8.5 11.85,7 C11.85,5.65 11.3,4.8 9,4.8 L7.67,4.8 L7.67,9.3 L9,9.3 Z M9.185,15.22 C11.97,15 12.39,14 12.4,12.58 C12.4,11.15 11.39,10 9,10 L7.67,10 L7.67,15 L9.18,15 Z" />
    </symbol>

    <symbol id="italic" viewBox="0 0 20 20">
        <path d="M11.633,5.479 L9.154,14.529 C9.006,15.09 9.377,15.26 10.925,15.309 L10.719,16 L5,16 L5.204,15.309 C6.787,15.26 7.197,15.09 7.347,14.529 L9.825,5.479 C9.974,4.92 9.639,4.75 8.093,4.699 L8.279,4 L14,4 L13.813,4.699 C12.229,4.75 11.781,4.92 11.633,5.479" />
    </symbol>

    <symbol id="strikethrough" viewBox="0 0 20 20">
        <path d="M6,12.029 L6.65,12.029 C7.636,14.159 8.863,15.129 10.406,15.129 C12.211,15.129 12.918,13.939 12.918,12.899 C12.918,11.559 11.988,11.039 9.737,10.239 C8.045,9.64 6.223,9.119 6.223,6.84 C6.223,4.51 8.081,3.099 10.389,3.099 C11.43,3.099 12.117,3.319 12.713,3.539 L13.327,3 L13.81,3 L13.81,6.59 L13.159,6.59 C12.546,4.879 11.523,3.899 10.072,3.899 C8.845,3.899 7.896,4.699 7.896,6.039 C7.896,7.299 8.9,7.789 10.89,8.449 C12.583,9.029 14.385,9.609 14.385,11.909 C14.385,13.75 13.271,15.93 10.184,15.93 C9.179,15.93 8.175,15.689 7.468,15.39 L6.52,16 L6,16 L6,12.029" />
        <rect x="3" y="9" width="15" height="1"></rect>
    </symbol>

    <symbol id="video" viewBox="0 0 20 20">
        <polygon points="18,6 18,14 12,10 "/>
        <rect x="2" y="5" width="12" height="10"/>
    </symbol>
<!-- editor ende -->

<!-- todo -->
    <symbol id="rss" viewBox="0 0 20 20">
        <circle cx="3.6" cy="16.6" r="2.1" fill="none" stroke-width="1" />
        <path d="M1,8.92 C1.28,8.9 1.56,8.88 1.84,8.88 C7.06,8.88 11.3,13.11 11.3,18.34 C11.3,18.66 11.28,18.97 11.25,19.27" fill="none" stroke-width="1" />
        <path d="M1,3.02 C1.28,3.01 1.56,3 1.85,3 C10.21,3 17,9.74 17,18.07 C17,18.39 16.99,18.69 16.97,19" fill="none" stroke-width="1" />
    </symbol>

    <symbol id="tag" viewBox="0 0 20 20">
        <circle cx="13.56" cy="6.01" r="1.01" fill="none" stroke-width="1" />
        <path d="M16.51,8.59l-8.55,8.55c-0.41,0.41-1.07,0.41-1.48,0l-4.17-4.17 c-0.41-0.41-0.41-1.07,0-1.48l8.55-8.55c0.22-0.22,0.49-0.36,0.78-0.41l3.92-0.48L15.99,2c0.38,0.01,0.74,0.16,1.01,0.44 c0.29,0.29,0.44,0.68,0.44,1.06c0,0.1-0.01,0.2-0.04,0.29l-0.48,4.03C16.88,8.11,16.73,8.38,16.51,8.59L16.51,8.59z" fill="none" stroke-width="1"/>
    </symbol>

    <symbol id="minimize" viewBox="0 0 20 20">
        <polygon points="11 4 12 4 12 8 16 8 16 9 11 9" />
        <polygon points="4 11 9 11 9 16 8 16 8 12 4 12" />
        <path d="M12,8 L18,2" fill="none" stroke-width="1" />
        <path d="M2,18 L8,12" fill="none" stroke-width="1" />
    </symbol>

    <symbol id="fullscreen" viewBox="0 0 20 20">
        <polygon points="13 2 18 2 18 7 17 7 17 3 13 3" />
        <polygon points="2 13 3 13 3 17 7 17 7 18 2 18" />
        <path d="M11,9 L17,3" fill="none" stroke-width="1" />
        <path d="M3,17 L9,11" fill="none" stroke-width="1" />
    </symbol>

    <symbol id="edit" viewBox="0 0 20 20">
        <polygon points="13 3 2 3 2 19 17 19 17 7 16 8 16 18 3 18 3 4 12 4" />
        <path d="M18.651,1.349 C18.413,1.119 18.111,1 17.808,1 C17.496,1 17.212,1.119 16.974,1.349 L8.917,9.42 L8,12 L10.548,11.08 L18.651,3.009 C19.119,2.539 19.119,1.809 18.651,1.349 L18.651,1.349 Z" fill="none" stroke-width="1" />
    </symbol>

    <symbol id="dribbble" viewBox="0 0 20 20">
        <path d="M10,2 C5.591,2 2,5.601 2,10 C2,14.4 5.591,18 10,18 C14.408,18 18,14.4 18,10 C18,5.601 14.408,2 10,2 Z M15.323,5.5 C16.374,6.701 17.006,8.201 17.016,9.9 C16.48,9.8 15.615,9.701 14.476,9.701 C13.62,9.601 12.812,9.701 11.985,9.8 C11.79,9.4 11.332,8.4 11.323,8.4 C12.5,7.8 13.522,7.2 14.311,6.5 C14.758,6.1 15.099,5.799 15.323,5.5 Z M10,3 C11.78,3 13.406,3.701 14.642,4.8 C14.437,5 14.116,5.4 13.668,5.799 C12.948,6.4 11.985,7 10.866,7.5 C10.019,5.901 8.812,4.101 8.199,3.3 C8.773,3.1 9.376,3 10,3 Z M7.235,3.601 C7.751,4.299 9.036,6.201 9.932,7.8 C8.938,8.101 7.576,8.3 6,8.5 C4.802,8.601 3.732,8.7 3.109,8.7 C3.566,6.4 5.143,4.5 7.235,3.601 Z M2.973,10 C2.973,9.9 2.973,9.8 2.993,9.601 C3.605,9.601 4.773,9.601 6.097,9.5 C7.381,9.3 9.084,9.1 10.408,8.7 C10.437,8.7 10.846,9.601 11.012,10.101 C10.34,10.2 9.649,10.5 8.899,10.9 C7.858,11.4 6.865,12.201 6.097,13 C5.561,13.6 5.094,14.3 4.802,14.7 C3.664,13.5 2.973,11.799 2.973,10 Z M10,17.101 C8.296,17.101 6.73,16.401 5.513,15.4 C5.785,15 6.262,14.3 6.817,13.701 C7.508,12.9 8.403,12.201 9.348,11.799 C10.067,11.4 10.739,11.101 11.391,11 C11.78,12 12.092,12.9 12.257,13.401 C12.559,14.5 12.812,15.8 12.919,16.401 C12.034,16.8 11.04,17.101 10,17.101 Z M13.814,15.9 C13.688,15.201 13.464,14.101 13.191,13.101 C13.055,12.701 12.753,11.799 12.354,10.8 C13.045,10.6 13.737,10.6 14.467,10.6 C15.644,10.701 16.5,10.8 16.957,10.9 C16.705,13 15.507,14.799 13.814,15.9 Z" />
    </symbol>

    <symbol id="download" viewBox="0 0 20 20">
        <polyline points="10 12.2 10 2 9 2 9 12.2 6.16 9.36 5.5 10 9.5 14 13.5 10 12.85 9.36 10 12.2" />
        <rect x="3" y="16" width="14" height="1" />
    </symbol>

    <symbol id="close-1" viewBox="0 0 20 20">
        <polyline points="16.999 3.73 4.722 16 4 15.28 16.277 3 16.999 3.73" />
        <polyline points="16.277 16 4 3.73 4.722 3.01 17 15.28 16.277 16" />
    </symbol>

    <symbol id="close-2" viewBox="0 0 20 20">
        <path d="M16,16 L4,4" fill="none" stroke-width="1" />
        <path d="M16,4 L4,16" fill="none" stroke-width="1" />
    </symbol>

    <symbol id="arrow-top" viewBox="0 0 20 20">
        <polyline points="10,5.8 10,16 11,16 11,5.8 15.3,10.15 16,9.5 10.5,4 5,9.5 5.65,10.15 10,5.8 "/>
    </symbol>

    <symbol id="arrow-down" viewBox="0 0 20 20">
        <polyline points="11,14 11,4 10,4 10,14 5.75,9.74 5,10.5 10.5,16 16,10.5 15.25,9.7 11,14" />
    </symbol>

    <symbol id="arrow-left" viewBox="0 0 20 20">
        <polyline points="5.8,11 16,11 16,10 5.8,10 10.15,5.66 9.5,5 4,10.5 9.5,16 10.15,15.34 5.8,11" />
    </symbol>

    <symbol id="arrow-right" viewBox="0 0 20 20">
        <polyline points="4,10 4,11 14,11 9.75,15.25 10.5,16 16,10.5 10.5,5 9.74,5.76 14,10" />
    </symbol>
<!-- todo ende -->






    <symbol id="trash-alt" viewBox="0 0 16 18">
        <rect x="8" y="7" width="1" height="9"></rect>
        <rect x="11" y="7" width="1" height="9"></rect>
        <path d="M16,2 L12,2 L12,0 L4,0 L4,2 L0,2 L0,3 L2,3 L2,18 L14,18 L14,3 L16,3 L16,2 L16,2 L16,2 Z M5,1 L11,1 L11,2 L5,2 L5,1 L5,1 L5,1 Z M13,17 L3,17 L3,3 L13,3 L13,17 L13,17 L13,17 Z"></path>
    </symbol>

    <symbol id="table-alt" viewBox="0 0 14 13">
        <rect x="0" y="0" width="14" height="1"></rect>
        <rect x="0" y="4" width="14" height="1"></rect>
        <rect x="0" y="8" width="14" height="1"></rect>
        <rect x="0" y="12" width="14" height="1"></rect>
    </symbol>

    <symbol id="thumbnails-alt" viewBox="0 0 14 14">
        <path d="M5,1 L5,5 L1,5 L1,1 L5,1 L5,1 L5,1 Z M6,0 L0,0 L0,6 L6,6 L6,0 L6,0 L6,0 L6,0 Z"></path>
        <path d="M13,1 L13,5 L9,5 L9,1 L13,1 L13,1 L13,1 Z M14,0 L8,0 L8,6 L14,6 L14,0 L14,0 L14,0 L14,0 Z"></path>
        <path d="M5,9 L5,13 L1,13 L1,9 L5,9 L5,9 L5,9 Z M6,8 L0,8 L0,14 L6,14 L6,8 L6,8 L6,8 L6,8 Z"></path>
        <path d="M13,9 L13,13 L9,13 L9,9 L13,9 L13,9 L13,9 Z M14,8 L8,8 L8,14 L14,14 L14,8 L14,8 L14,8 L14,8 Z"></path>
    </symbol>

    <symbol id="close" viewBox="0 0 14 14">
        <polygon points="14 1 13 0 7 6 1 0 0 1 6 7 0 13 1 14 7 8 13 14 14 13 8 7"></polygon>
    </symbol>

    <symbol id="small-edit" viewBox="0 0 11 12">
        <path d="M8.787,0.382 L3,6.188 L3,8 L4.776,8 L10.617,2.193 C11.127,1.684 11.127,0.893 10.617,0.382 C10.0877686,-0.04577637 9.32269287,-0.169982916 8.787,0.382 L8.787,0.382 Z M4.415,7 L4,7 L4,6.548 L9.469,0.997 C9.579,0.887 9.667,0.87 9.735,0.87 C9.803,0.87 9.913,0.887 10.022,0.998 C10.133,1.107 10.141,1.187 10.141,1.255 C10.141,1.323 10.111,1.4 10.001,1.514 L4.415,7 L4.415,7 Z"></path>
        <path d="M8,6 L8,11 L1,11 L1,1 L7,1 L7,0 L0,0 L0,12 L9,12 L9,6 L8,6 L8,6 Z"></path>
    </symbol>

    <symbol id="small-trash" viewBox="0 0 13 13">
        <rect x="6" y="7" width="1" height="4"></rect>
        <rect x="8" y="7" width="1" height="4"></rect>
        <path d="M13,2 L10,2 L10,0 L3,0 L3,2 L1.73472348e-18,2 L1.73472348e-18,2.99597168 L2,2.99597168 L2,13 L10.9962158,13 L10.9962158,2.99597168 L12.9962158,2.99597168 L13,2 L13,2 Z M4.01452637,1 L9.01452637,1 L9.01452637,2 L4.01452637,2 L4.01452637,1 L4.01452637,1 L4.01452637,1 L4.01452637,1 L4.01452637,1 Z M3,12 L3,3 L10,3 L10,12 L3,12 L3,12 Z"></path>
    </symbol>

    <symbol id="small-copy" viewBox="0 0 10 13">
        <path d="M0,2 L0,13 L8,13 L8,2 L0,2 L0,2 Z M1,12 L1,3 L7,3 L7,12 L1,12 L1,12 Z"></path>
        <path d="M2,0 L2,1 L9,1 L9,11 L10,11 L10,0 L2,0 L2,0 Z"></path>
    </symbol>

    <symbol id="small-plus" viewBox="0 0 9 9">
        <rect x="0" y="4" width="9" height="1"></rect>
        <rect x="4" y="0" width="1" height="9"></rect>
    </symbol>












    <symbol id="close_close" viewBox="0 0 14 14">
        <polygon points="14 1 13 0 7 6 1 0 0 1 6 7 0 13 1 14 7 8 13 14 14 13 8 7"></polygon>
    </symbol>

    <symbol id="slidenav_previous" viewBox="0 0 18 16">
        <polygon points="18 7 3.828 7 9.414 1.414 8 0 0 8 8 16 9.414 14.586 3.828 9 18 9"></polygon>
    </symbol>

    <symbol id="slidenav_next" viewBox="0 0 18 16">
        <polygon points="10 0 8.586 1.414 14.172 7 0 7 0 9 14.172 9 8.586 14.586 10 16 18 8"></polygon>
    </symbol>

    <symbol id="spinner_spinner" viewBox="0 0 30 30">
        <circle  cx="15" cy="15" r="14"></circle>
    </symbol>

</svg>
