<svg xmlns="http://www.w3.org/2000/svg">



    <symbol id="server" viewBox="0 0 20 20">
        <rect  x="3" y="3" width="1" height="2"/>
        <rect x="5" y="3" width="1" height="2"/>
        <rect x="7" y="3" width="1" height="2"/>
        <rect x="16" y="3" width="1" height="1"/>
        <rect x="16" y="10" width="1" height="1"/>
        <circle fill="none" stroke-width="1" cx="9.9" cy="17.4" r="1.4"/>
        <rect x="3" y="10" width="1" height="2"/>
        <rect x="5" y="10" width="1" height="2"/>
        <rect x="9.5" y="14" width="1" height="2"/>
        <rect x="3" y="17" width="6" height="1"/>
        <rect x="11" y="17" width="6" height="1"/>
        <rect fill="none" stroke-width="1" x="1.5" y="1.5" width="17" height="5"/>
        <rect fill="none" stroke-width="1" x="1.5" y="8.5" width="17" height="5"/>
    </symbol>

    <symbol id="database" viewBox="0 0 20 20">
        <ellipse fill="none" stroke-width="1" cx="10" cy="4.64" rx="7.5" ry="3.14"></ellipse>
        <path fill="none" stroke-width="1" d="M17.5,8.11 C17.5,9.85 14.14,11.25 10,11.25 C5.86,11.25 2.5,9.84 2.5,8.11"></path>
        <path fill="none" stroke-width="1" d="M17.5,11.25 C17.5,12.99 14.14,14.39 10,14.39 C5.86,14.39 2.5,12.98 2.5,11.25"></path>
        <path fill="none" stroke-width="1" d="M17.49,4.64 L17.5,14.36 C17.5,16.1 14.14,17.5 10,17.5 C5.86,17.5 2.5,16.09 2.5,14.36 L2.5,4.64"></path>
    </symbol>

    <symbol id="folder" viewBox="0 0 20 20">
        <polygon fill="none" stroke-width="1" points="9.5 5.5 8.5 3.5 1.5 3.5 1.5 16.5 18.5 16.5 18.5 5.5"></polygon>
    </symbol>

    <symbol id="cloud-upload" viewBox="0 0 20 20">
        <polyline fill="none" stroke-width="1" points="7.25 8.75 9.5 6.5 11.75 8.75"></polyline>
        <path fill="none" stroke-width="1" d="M6.5,11.61 L3.75,11.61 C1.96,11.61 0.5,10.17 0.5,8.39 C0.5,6.76 1.72,5.41 3.31,5.2 C3.38,2.31 5.75,0 8.68,0 C11.19,0 13.31,1.71 13.89,4.02 C14.39,3.8 14.93,3.68 15.5,3.68 C17.71,3.68 19.5,5.45 19.5,7.64 C19.5,9.83 17.71,11.6 15.5,11.6 L12.5,11.6"></path>
        <path fill="none" stroke-width="1" d="M9.5,15 L9.5,6.5"></path>
    </symbol>

    <symbol id="comment" viewBox="0 0 20 20">
        <path d="M6,18.71 L6,14 L1,14 L1,1 L19,1 L19,14 L10.71,14 L6,18.71 L6,18.71 Z M2,13 L7,13 L7,16.29 L10.29,13 L18,13 L18,2 L2,2 L2,13 L2,13 Z"></path>
    </symbol>

    <symbol id="comments" viewBox="0 0 20 20">
        <polygon fill="none" stroke-width="1" points="0.5,3.5 16.5,3.5 16.5,13.5 9.5,13.5 5.5,17.5 5.5,13.5 0.5,13.5 "/>
        <polyline fill="none" stroke-width="1" points="3.5,2 3.5,0.5 19.5,0.5 19.5,10.5 18,10.5 "/>
    </symbol>

    <symbol id="camera" viewBox="0 0 20 20">
        <circle fill="none" stroke-width="1" cx="10" cy="9" r="4"></circle>
        <path fill="none" stroke-width="1" d="M1,2.5 C0.72,2.5 0.5,2.72 0.5,3 L0.5,15 C0.5,15.28 0.72,15.5 1,15.5 L19,15.5 C19.28,15.5 19.5,15.28 19.5,15 L19.5,3 C19.5,2.72 19.28,2.5 19,2.5 L13.5,2.5 L13.5,0.87 C13.5,0.59 13.28,0.5 13,0.5 L7,0.5 C6.72,0.5 6.5,0.59 6.5,0.87 L6.5,2.5 L1,2.5 L1,2.5 Z"></path>
    </symbol>

    <symbol id="cloud-download" viewBox="0 0 20 20">
        <polyline fill="none" stroke-width="1" points="11.75 13 9.5 15.25 7.25 13"></polyline>
        <path fill="none" stroke-width="1" d="M6.5,11.61 L3.75,11.61 C1.96,11.61 0.5,10.17 0.5,8.39 C0.5,6.76 1.72,5.41 3.31,5.2 C3.38,2.31 5.75,0 8.68,0 C11.19,0 13.31,1.71 13.89,4.02 C14.39,3.8 14.93,3.68 15.5,3.68 C17.71,3.68 19.5,5.45 19.5,7.64 C19.5,9.83 17.71,11.6 15.5,11.6 L12.5,11.6"></path>
        <path fill="none" stroke-width="1" d="M9.5,15 L9.5,6.5"></path>
    </symbol>

    <!-- in progress -->

    <symbol id="user" viewBox="0 0 20 20">
        <circle fill="none" stroke-width="1"  id="Oval" cx="10" cy="5.75" r="3.75"></circle>
        <path fill="none" stroke-width="1"  d="M17.5,18.5 L2.5,18.5 C2.5,13 5.93,9.5 10,9.5 C14.07,9.5 17.5,12 17.5,18.5 L17.5,18.5 Z" id="Shape"></path>
    </symbol>

    <symbol id="users" viewBox="0 0 20 20">
        <circle fill="none" stroke-width="1" cx="7.63" cy="7.31" r="3.32"></circle>
        <path fill="none" stroke-width="1" d="M14.26,18.5 L1,18.5 C1,12.98 4.03,10.63 7.63,10.63 C11.23,10.63 14.26,13 14.26,18.5 L14.26,18.5 Z"></path>
        <path fill="none" stroke-width="1" d="M11.02,3.41 C11.49,2.57 12.4,2 13.44,2 C14.97,2 16.22,3.25 16.22,4.78 C16.22,6.32 14.97,7.56 13.44,7.56 C13.28,7.56 13.15,7.52 13,7.5"></path>
        <path fill="none" stroke-width="1" d="M13.5,7.5 C16.52,7.5 18.92,9.97 19,13.5 L15.4,13.5"></path>
</symbol>

    <symbol id="fork" viewBox="0 0 20 20">
        <circle fill="none" stroke-width="1" cx="7.5" cy="2.5" r="2"></circle>
        <circle fill="none" stroke-width="1" cx="13" cy="5.5" r="2"></circle>
        <circle fill="none" stroke-width="1" cx="7.5" cy="17.5" r="2"></circle>
        <path fill="none" stroke-width="1" d="M13,7.5 L13,8.125 C13,9.798 11.932,10.609 10.721,11.343 C9.601,12.021 7.5,13.262 7.5,15.5 L7.5,4.5"></path>
    </symbol>

    <symbol id="bolt" viewBox="0 0 20 20">
        <path d="M2.72,19 L5.71,11 L0.98,11 L13.41,0 L10.3,8 L15,8 L2.72,19 L2.72,19 Z M7.16,10 L5.08,15.39 L12.45,9 L8.84,9 L10.97,3.67 L3.59,10 L7.16,10 L7.16,10 Z"></path>
    </symbol>

    <symbol id="storage" viewBox="0 0 20 20">
        <rect x="5" y="2" width="10" height="1"/>
        <rect x="3" y="4" width="14" height="1"/>
        <rect x="1.5" y="6.5" width="17" height="11" fill="none" stroke-width="1" />
    </symbol>

    <symbol id="notification" viewBox="0 0 20 20">
        <path d="M17,15.5 L3,15.5 C2.99,14.61 3.79,13.34 4.1,12.51 C4.58,11.3 4.72,10.35 5.19,7.01 C5.54,4.53 5.89,3.2 7.28,2.16 C8.13,1.56 9.37,1.5 9.81,1.5 L9.96,1.5 C9.96,1.5 11.62,1.41 12.67,2.17 C14.08,3.2 14.42,4.54 14.77,7.02 C15.26,10.35 15.4,11.31 15.87,12.52 C16.2,13.34 17.01,14.61 17,15.5 L17,15.5 Z" fill="none" stroke-width="1" />
        <path d="M12.39,16 C12.39,17.37 11.35,18.43 9.91,18.43 C8.48,18.43 7.42,17.37 7.42,16" fill="none" stroke-width="1" />
    </symbol>

    <symbol id="large-screen" viewBox="0 0 20 20">
        <rect x="7" y="16" width="6" height="1"/>
        <rect fill="none" stroke-width="1" x="0.5" y="3.5" width="19" height="11"/>
    </symbol>

    <symbol id="desktop" viewBox="0 0 20 20">
        <rect x="9" y="15" width="1" height="2"/>
        <rect x="11" y="15" width="1" height="2"/>
        <rect x="6" y="17" width="9" height="1"/>
        <rect fill="none" stroke-width="1" x="1.5" y="3.5" width="17" height="11"/>
    </symbol>

    <symbol id="notebook" viewBox="0 0 20 20">
        <rect y="16" width="20" height="1"/>
        <rect fill="none" stroke-width="1" x="2.5" y="4.5" width="15" height="10"/>
    </symbol>

    <symbol id="tablet" viewBox="0 0 20 20">
        <path d="M16,1 L5,1 C4.45,1 4,1.45 4,2 L4,17 C4,17.55 4.45,18 5,18 L16,18 C16.55,18 17,17.55 17,17 L17,2 C17,1.45 16.55,1 16,1 L16,1 Z M10.6,17.2 C10.27,17.2 10,16.93 10,16.6 C10,16.27 10.27,16 10.6,16 C10.93,16 11.2,16.27 11.2,16.6 C11.2,16.93 10.93,17.2 10.6,17.2 L10.6,17.2 Z M16,15 L5,15 L5,2 L16,2 L16,15 L16,15 Z"></path>
    </symbol>

    <symbol id="tablet-landscape" viewBox="0 0 20 20">
        <path d="M2,5 L2,16 C2,16.55 2.45,17 3,17 L18,17 C18.55,17 19,16.55 19,16 L19,5 C19,4.45 18.55,4 18,4 L3,4 C2.45,4 2,4.45 2,5 L2,5 Z M18.1,10.5 C18.1,10.83 17.83,11.1 17.5,11.1 C17.17,11.1 16.9,10.83 16.9,10.5 C16.9,10.17 17.17,9.9 17.5,9.9 C17.83,9.9 18.1,10.17 18.1,10.5 L18.1,10.5 Z M16,5 L16,16 L3,16 L3,5 L16,5 L16,5 Z"></path>
    </symbol>

    <symbol id="phone" viewBox="0 0 20 20">
        <path d="M15,18 L15,2 C15,1.45 14.55,1 14,1 L6,1 C5.45,1 5,1.45 5,2 L5,18 C5,18.55 5.45,19 6,19 L14,19 C14.55,19 15,18.55 15,18 L15,18 Z M6,16 L6,3 L14,3 L14,16 L6,16 L6,16 Z M9.4,17.6 C9.4,17.27 9.67,17 10,17 C10.33,17 10.6,17.27 10.6,17.6 C10.6,17.93 10.33,18.2 10,18.2 C9.67,18.2 9.4,17.93 9.4,17.6 L9.4,17.6 Z"></path>
    </symbol>

    <symbol id="phone-landscape" viewBox="0 0 20 20">
        <path d="M18,5 L2,5 C1.45,5 1,5.45 1,6 L1,14 C1,14.55 1.45,15 2,15 L18,15 C18.55,15 19,14.55 19,14 L19,6 C19,5.45 18.55,5 18,5 L18,5 Z M16,14 L3,14 L3,6 L16,6 L16,14 L16,14 Z M17.6,10.7 C17.27,10.7 17,10.43 17,10.1 C17,9.77 17.27,9.5 17.6,9.5 C17.93,9.5 18.2,9.77 18.2,10.1 C18.2,10.43 17.93,10.7 17.6,10.7 L17.6,10.7 Z"></path>
    </symbol>

    <symbol id="settings" viewBox="0 0 20 20">
        <ellipse cx="6.11" cy="3.55" rx="2.11" ry="2.15" fill="none" stroke-width="1" />
        <ellipse cx="6.11" cy="15.55" rx="2.11" ry="2.15" fill="none" stroke-width="1" />
        <circle cx="13.15" cy="9.55" r="2.15" fill="none" stroke-width="1" />
        <rect x="1" y="3" width="3" height="1"/>
        <rect x="10" y="3" width="8" height="1"/>
        <rect x="1" y="9" width="8" height="1"/>
        <rect x="15" y="9" width="3" height="1"/>
        <rect x="1" y="15" width="3" height="1"/>
        <rect x="10" y="15" width="8" height="1"/>
    </symbol>

    <symbol id="refresh" viewBox="0 0 20 20">
        <path fill="none" stroke-width="1" d="M17.08,11.15 C17.09,11.31 17.1,11.47 17.1,11.64 C17.1,15.53 13.94,18.69 10.05,18.69 C6.16,18.68 3,15.53 3,11.63 C3,7.74 6.16,4.58 10.05,4.58 C10.9,4.58 11.71,4.73 12.46,5"></path>
        <polyline fill="none" stroke-width="1" points="9.9 2 12.79 4.89 9.79 7.9"></polyline>
    </symbol>

    <symbol id="help" viewBox="0 0 20 20">
        <polygon points="11.6,5.07 14.52,2.15 17.35,4.98 14.52,7.8"/>
        <polygon points="14.66,11.83 17.56,14.73 14.73,17.56 11.9,14.73"/>
        <polygon points="7.81,14.53 4.98,17.36 2.15,14.53 5.1,11.58"/>
        <polygon points="5.24,8.06 2.29,5.11 5.11,2.27 8.18,5.34"/>
        <circle cx="10" cy="10" r="9" fill="none" stroke-width="1" />
        <circle cx="10" cy="10" r="5" fill="none" stroke-width="1" />
    </symbol>

    <symbol id="help-2" viewBox="0 0 20 20">
        <path d="M10,0.5 C4.76,0.5 0.5,4.76 0.5,10 C0.5,15.24 4.76,19.5 10,19.5 C15.24,19.5 19.5,15.24 19.5,10 C19.5,4.76 15.24,0.5 10,0.5 L10,0.5 Z M10,1.5 C11.49,1.5 12.89,1.88 14.11,2.56 L11.85,4.82 C11.27,4.61 10.65,4.5 10,4.5 C9.21,4.5 8.47,4.67 7.79,4.96 L5.58,2.75 C6.87,1.95 8.38,1.5 10,1.5 L10,1.5 Z M4.96,7.8 C4.67,8.48 4.5,9.21 4.5,10 C4.5,10.65 4.61,11.27 4.83,11.85 L2.56,14.11 C1.88,12.89 1.5,11.49 1.5,10 C1.5,8.38 1.95,6.87 2.75,5.58 L4.96,7.79 L4.96,7.8 L4.96,7.8 Z M10,18.5 C8.25,18.5 6.62,17.97 5.27,17.06 L7.46,14.87 C8.22,15.27 9.08,15.5 10,15.5 C10.79,15.5 11.53,15.33 12.21,15.04 L14.42,17.25 C13.13,18.05 11.62,18.5 10,18.5 L10,18.5 Z M10,14.5 C7.52,14.5 5.5,12.48 5.5,10 C5.5,7.52 7.52,5.5 10,5.5 C12.48,5.5 14.5,7.52 14.5,10 C14.5,12.48 12.48,14.5 10,14.5 L10,14.5 Z M15.04,12.21 C15.33,11.53 15.5,10.79 15.5,10 C15.5,9.08 15.27,8.22 14.87,7.46 L17.06,5.27 C17.97,6.62 18.5,8.25 18.5,10 C18.5,11.62 18.05,13.13 17.25,14.42 L15.04,12.21 L15.04,12.21 Z"></path>
    </symbol>

    <symbol id="question" viewBox="0 0 20 20">
        <circle fill="none" stroke-width="1" cx="10" cy="10" r="9"></circle>
        <circle cx="10.44" cy="14.42" r="1.05"></circle>
        <path fill="none" stroke-width="1" d="M8.17,7.79 C8.17,4.75 12.72,4.73 12.72,7.72 C12.72,8.67 11.81,9.15 11.23,9.75 C10.75,10.24 10.51,10.73 10.45,11.4 C10.44,11.53 10.43,11.64 10.43,11.75"></path>
    </symbol>

    <symbol id="info" viewBox="0 0 20 20">
        <path d="M12.13,11.59 C11.97,12.84 10.35,14.12 9.1,14.16 C6.17,14.2 9.89,9.46 8.74,8.37 C9.3,8.16 10.62,7.83 10.62,8.81 C10.62,9.63 10.12,10.55 9.88,11.32 C8.66,15.16 12.13,11.15 12.14,11.18 C12.16,11.21 12.16,11.35 12.13,11.59 C12.08,11.95 12.16,11.35 12.13,11.59 L12.13,11.59 Z M11.56,5.67 C11.56,6.67 9.36,7.15 9.36,6.03 C9.36,5 11.56,4.54 11.56,5.67 L11.56,5.67 Z"></path>
        <circle fill="none" stroke-width="1" cx="10" cy="10" r="9"></circle>
    </symbol>

    <symbol id="gear" viewBox="0 0 20 20">
        <circle fill="none" stroke-width="1" cx="10.34" cy="9.9" r="3.5"></circle>
        <path fill="none" stroke-width="1" d="M18.75,12 C18.39,13.46 17.68,14.77 16.71,15.85 C15.68,15.13 14.48,14.72 13.75,15.2 C13,15.69 12.9,16.99 13.16,18.24 C12.2,18.59 11.18,18.78 10.11,18.78 C9.27,18.78 8.45,18.66 7.68,18.44 C7.92,17.14 7.8,15.78 7.01,15.3 C6.2,14.81 4.9,15.36 3.85,16.21 C2.74,15.1 1.91,13.7 1.5,12.13 C2.79,11.67 3.95,10.83 3.95,9.88 C3.95,8.94 2.79,8.1 1.51,7.65 C1.89,6.16 2.65,4.83 3.67,3.76 C4.74,4.57 6.05,5.08 6.84,4.57 C7.62,4.07 7.7,2.71 7.42,1.42 C8.27,1.14 9.17,1 10.11,1 C11.08,1 12.02,1.16 12.89,1.45 C12.68,2.71 12.82,4 13.58,4.46 C14.33,4.92 15.51,4.48 16.52,3.73 C17.59,4.84 18.37,6.22 18.74,7.77 C17.6,8.25 16.64,9.02 16.64,9.88 C16.64,10.75 17.61,11.52 18.75,12 L18.75,12 Z"></path>
    </symbol>

    <symbol id="thumbnails" viewBox="0 0 20 20">
        <rect x="3.5" y="3.5" width="5" height="5" fill="none" stroke-width="1" />
        <rect x="11.5" y="3.5" width="5" height="5" fill="none" stroke-width="1" />
        <rect x="11.5" y="11.5" width="5" height="5" fill="none" stroke-width="1" />
        <rect x="3.5" y="11.5" width="5" height="5" fill="none" stroke-width="1" />
    </symbol>

    <symbol id="warning" viewBox="0 0 20 20">
        <polygon points="10 1 19 10 10 19 1 10" fill="none" stroke-width="1" />
        <circle cx="10" cy="14" r="1" />
        <path d="M10.966,7.716 C10.845,9.535 10.56,11.289 10.56,11.289 C10.506,11.866 10.266,12 9.99,12 C9.692,12 9.485,11.866 9.43,11.289 C9.43,11.289 9.156,9.535 9.035,7.716 C8.957,6.539 9.035,5.996 9.035,5.996 C9.035,5.441 9.462,5.011 9.99,5 C10.527,5.011 10.966,5.441 10.966,5.996 C10.966,5.996 11.043,6.539 10.966,7.716"/>
    </symbol>

    <symbol id="share" viewBox="0 0 20 20">
        <polyline points="6.53 3.94 9.5 1 12.42 3.94" fill="none" stroke-width="1" />
        <line x1="9.5" y1="10.41" x2="9.5" y2="1.41" fill="none" stroke-width="1" />
        <polyline points="6 5.5 3.5 5.5 3.5 18.5 15.5 18.5 15.5 5.5 13 5.5" fill="none" stroke-width="1" />
    </symbol>

    <symbol id="upload" viewBox="0 0 20 20">
        <polyline points="6 7 9.5 3.5 13 7" fill="none" stroke-width="1" />
        <rect x="3" y="17" width="13" height="1"/>
        <line x1="9.5" y1="15" x2="9.5" y2="4" fill="none" stroke-width="1" />
    </symbol>

    <symbol id="trash" viewBox="0 0 20 20">
        <polyline points="6.5 3 6.5 1.5 13.5 1.5 13.5 3" fill="none" stroke-width="1" />
        <polyline points="4.5 4 4.5 18.5 15.5 18.5 15.5 4" fill="none" stroke-width="1" />
        <rect x="8" y="7" width="1" height="9"/>
        <rect x="11" y="7" width="1" height="9"/>
        <rect x="2" y="3" width="16" height="1"/>
    </symbol>

    <symbol id="toggler" viewBox="0 0 20 20">
        <rect x="3" y="5" width="14" height="1" />
        <rect x="3" y="9" width="14" height="1" />
        <rect x="3" y="13" width="14" height="1" />
    </symbol>

    <symbol id="toggler-more-vertical" viewBox="0 0 20 20">
        <circle cx="10" cy="3" r="2" />
        <circle cx="10" cy="10" r="2" />
        <circle cx="10" cy="17" r="2" />
    </symbol>

    <symbol id="toggler-more" viewBox="0 0 20 20">
        <circle cx="3" cy="10" r="2" />
        <circle cx="10" cy="10" r="2" />
        <circle cx="17" cy="10" r="2" />
    </symbol>

    <symbol id="table" viewBox="0 0 20 20">
        <rect x="1" y="3" width="18" height="1" />
        <rect x="1" y="7" width="18" height="1" />
        <rect x="1" y="11" width="18" height="1" />
        <rect x="1" y="15" width="18" height="1" />
    </symbol>

    <symbol id="shopping-cart" viewBox="0 0 20 20">
        <polyline points="1 3 4 5 6 13.5 16.5 13.5 18.5 7.5 9.5 7.5" fill="none" stroke-width="1" />
        <circle cx="14.5" cy="16.5" r="1.5"/>
        <circle cx="8.5" cy="16.5" r="1.5"/>
    </symbol>

    <symbol id="block" viewBox="0 0 20 20">
        <circle cx="10" cy="10" r="9" fill="none" stroke-width="1" />
        <line x1="4" y1="3.5" x2="16" y2="16.5" fill="none" stroke-width="1" />
    </symbol>

    <symbol id="star" viewBox="0 0 20 20">
        <polygon points="10 2 12.63 7.27 18.5 8.12 14.25 12.22 15.25 18 10 15.27 4.75 18 5.75 12.22 1.5 8.12 7.37 7.27" fill="none" stroke-width="1" />
    </symbol>

    <symbol id="sort-up" viewBox="0 0 20 20">
        <polygon points="5 13 10 8 15 13" />
    </symbol>

    <symbol id="sort-down" viewBox="0 0 20 20">
        <polygon points="5 7 15 7 10 12" />
    </symbol>

    <symbol id="sort-left" viewBox="0 0 20 20">
        <polygon points="12 5 7 10 12 15" />
    </symbol>

    <symbol id="sort-right" viewBox="0 0 20 20">
        <polygon points="8 5 13 10 8 15" />
    </symbol>

    <symbol id="smily" viewBox="0 0 20 20">
        <circle cx="13" cy="7" r="1"></circle>
        <circle cx="7" cy="7" r="1"></circle>
        <circle fill="none" stroke-width="1" cx="10" cy="10" r="8.5"></circle>
        <path fill="none" stroke-width="1" d="M14.61,11.86 C13.89,13.72 12.08,15.04 9.97,15.04 C7.85,15.04 6.05,13.72 5.33,11.86"></path>
    </symbol>

    <symbol id="search" viewBox="0 0 20 20">
        <circle cx="9" cy="9" r="7" fill="none" stroke-width="1" />
        <path d="M14,14 L18,18 L14,14 Z" fill="none" stroke-width="1" />
    </symbol>

    <symbol id="reply" viewBox="0 0 20 20">
        <path d="M17.7,13.11 C16.12,10.02 13.84,7.85 11.02,6.61 C10.57,6.41 9.75,6.13 9,5.91 L9,2 L1,9 L9,16 L9,12.13 C10.78,12.47 12.5,13.19 14.09,14.25 C17.13,16.28 18.56,18.54 18.56,18.54 C18.56,18.54 18.81,15.28 17.7,13.11 L17.7,13.11 Z M14.82,13.53 C13.17,12.4 11.01,11.4 8,10.92 L8,13.63 L2.55,9 L8,4.25 L8,6.8 C8.3,6.86 9.16,7.02 10.37,7.49 C13.3,8.65 15.54,10.96 16.65,13.08 C16.97,13.7 17.48,14.86 17.68,16 C16.87,15.05 15.73,14.15 14.82,13.53 L14.82,13.53 Z"></path>
    </symbol>

    <symbol id="reply-right" viewBox="0 0 20 20">
        <path d="M2.47,13.11 C4.02,10.02 6.27,7.85 9.04,6.61 C9.48,6.41 10.27,6.13 11,5.91 L11,2 L18.89,9 L11,16 L11,12.13 C9.25,12.47 7.58,13.19 6.02,14.25 C3.03,16.28 1.63,18.54 1.63,18.54 C1.63,18.54 1.38,15.28 2.47,13.11 L2.47,13.11 Z M5.3,13.53 C6.92,12.4 9.04,11.4 12,10.92 L12,13.63 L17.36,9 L12,4.25 L12,6.8 C11.71,6.86 10.86,7.02 9.67,7.49 C6.79,8.65 4.58,10.96 3.49,13.08 C3.18,13.7 2.68,14.87 2.49,16 C3.28,15.05 4.4,14.15 5.3,13.53 L5.3,13.53 Z"></path>
    </symbol>

    <symbol id="plus" viewBox="0 0 20 20">
        <rect x="9" y="1" width="1" height="17"/>
        <rect x="1" y="9" width="17" height="1"/>
    </symbol>

    <symbol id="plus-2" viewBox="0 0 20 20">
        <polygon id="Path-376" points="9 1 10 1 10 9 18 9 18 10 10 10 10 18 9 18 9 10 1 10 1 9 9 9" />
    </symbol>

    <symbol id="lock" viewBox="0 0 20 20">
        <rect fill="none" stroke-width="1" height="10" width="13" y="8.5" x="3.5"></rect>
        <path fill="none" stroke-width="1" d="M6.5,8 L6.5,4.88 C6.5,3.01 8.07,1.5 10,1.5 C11.93,1.5 13.5,3.01 13.5,4.88 L13.5,8"></path>
    </symbol>

    <symbol id="unlock" viewBox="0 0 20 20">
        <rect fill="none" stroke-width="1" x="3.5" y="8.5" width="13" height="10"></rect>
        <path fill="none" stroke-width="1" d="M13.5,5.38 C13.5,3.28 11.98,1.67 10,1.67 C8.02,1.67 6.5,3.27 6.5,5.38 L6.5,8"></path>
    </symbol>

    <symbol id="move" viewBox="0 0 20 20">
        <polygon points="4,5 1,5 1,9 2,9 2,6 4,6 "/>
        <polygon points="1,16 2,16 2,18 4,18 4,19 1,19 "/>
        <polygon points="14,16 14,19 11,19 11,18 13,18 13,16 "/>
        <rect x="5.5" y="1.5" width="13" height="13" fill="none" stroke-width="1" />
        <rect x="1" y="11" width="1" height="3"/>
        <rect x="6" y="18" width="3" height="1"/>
    </symbol>

    <symbol id="media" viewBox="0 0 20 20">
        <polyline points="1,16 6,11 8,13 13,7 19,16 " fill="none" stroke-width="1" />
        <circle r="1.5" cy="6.5" cx="5.5" />
        <rect height="14" width="19" y="2.5" x="0.5" fill="none" stroke-width="1" />
    </symbol>

    <symbol id="minus" viewBox="0 0 20 20">
        <rect height="1" width="18" y="9" x="1" />
    </symbol>

    <symbol id="email" viewBox="0 0 20 20">
        <polyline points="1.4,6.5 10,11 18.6,6.5 " fill="none" stroke-width="1" />
        <path d="M 1,4 1,16 19,16 19,4 1,4 Z M 18,15 2,15 2,5 18,5 18,15 Z" />
    </symbol>

    <symbol id="logout" viewBox="0 0 20 20">
        <polygon points="13.1 13.4 12.5 12.8 15.28 10 8 10 8 9 15.28 9 12.5 6.2 13.1 5.62 17 9.5" />
        <polygon points="13 2 3 2 3 17 13 17 13 16 4 16 4 3 13 3" />
    </symbol>

    <symbol id="home" viewBox="0 0 20 20">
        <polyline points="1 11 10 2 19 11" fill="none" stroke-width="1" />
        <polygon points="15 4 18 4 18 7 17 7 17 5 15 5" />
        <polygon points="3 11 4 11 4 18 7 18 7 12 12 12 12 18 16 18 16 11 17 11 17 19 11 19 11 13 8 13 8 19 3 19" />
    </symbol>

    <symbol id="heart" viewBox="0 0 20 20">
        <path fill="none" stroke-width="1" d="M10,4 C10,4 8.1,2 5.74,2 C3.38,2 1,3.55 1,6.73 C1,8.84 2.67,10.44 2.67,10.44 L10,18 L17.33,10.44 C17.33,10.44 19,8.84 19,6.73 C19,3.55 16.62,2 14.26,2 C11.9,2 10,4 10,4 L10,4 Z"></path>
    </symbol>

    <symbol id="page" viewBox="0 0 20 20">
        <path d="M 12.42,1 3,1 3,19 17,19 17,5.57 12.42,1 Z M 16,18 4,18 4,2 l 7,0 0,5 5,0 0,11 z M 12,6 12,2 16,6 12,6 Z" />
    </symbol>

    <symbol id="hashtag" viewBox="0 0 20 20">
        <path d="M15.431,8 L15.661,7 L12.911,7 L13.831,3 L12.901,3 L11.98,7 L9.29,7 L10.21,3 L9.281,3 L8.361,7 L5.23,7 L5,8 L8.13,8 L7.21,12 L4.23,12 L4,13 L6.98,13 L6.061,17 L6.991,17 L7.911,13 L10.601,13 L9.681,17 L10.611,17 L11.531,13 L14.431,13 L14.661,12 L11.76,12 L12.681,8 L15.431,8 Z M10.831,12 L8.141,12 L9.061,8 L11.75,8 L10.831,12 Z" />
    </symbol>

    <symbol id="hashtag-2" viewBox="0 0 20 20">
        <polygon points="5.23,7 15.66,7 15.43,8 5,8"/>
        <polygon points="4.23,12 14.66,12 14.43,13 4,13"/>
        <path d="M 13.83,3 12.9,3 9.68,17 10.61,17 13.83,3 Z"/>
        <path d="M 10.15,3 9.22,3 6,17 6.93,17 10.15,3 Z" />
    </symbol>

    <symbol id="code" viewBox="0 0 20 20">
        <polyline points="6,14 2,10 6,6" fill="none" stroke-width="1" />
        <polyline points="15,6 19,10 15,14" fill="none" stroke-width="1" />
        <path d="M13,6 L8,14" fill="none" stroke-width="1" />
    </symbol>

    <symbol id="check" viewBox="0 0 20 20">
        <polyline points="4,10 8,15 17,4 " fill="none" stroke-width="1" />
    </symbol>

    <symbol id="angle-top" viewBox="0 0 20 20">
        <polyline points="4 13 10 7 16 13" fill="none" stroke-width="1" />
    </symbol>

    <symbol id="angle-bottom" viewBox="0 0 20 20">
        <polyline points="16 7 10 13 4 7" fill="none" stroke-width="1" />
    </symbol>

    <symbol id="angle-left" viewBox="0 0 20 20">
        <polyline points="13 16 7 10 13 4" fill="none" stroke-width="1" />
    </symbol>

    <symbol id="angle-right" viewBox="0 0 20 20">
        <polyline points="7 4 13 10 7 16" fill="none" stroke-width="1" />
    </symbol>

    <!-- runden -->
    <symbol id="anchor" viewBox="0 0 20 20">
        <path d="M7.39,14.72 C7,15.11 6.37,15.11 5.99,14.72 L5.29,14.02 C4.9,13.63 4.9,13.01 5.29,12.62 L8.6,9.3 C7.94,9.13 7.2,9.29 6.69,9.8 L4.59,11.91 C3.82,12.68 3.82,13.94 4.59,14.72 L5.29,15.42 C6.06,16.2 7.32,16.2 8.1,15.42 L10.21,13.31 C10.73,12.79 10.89,12.06 10.72,11.4 L7.39,14.72 L7.39,14.72 Z"></path>
        <path d="M15.42,5.28 L14.72,4.58 C13.94,3.81 12.68,3.81 11.91,4.58 L9.81,6.69 C9.29,7.2 9.12,7.94 9.3,8.6 L12.61,5.29 C13,4.9 13.63,4.9 14.01,5.29 L14.71,5.99 C15.1,6.38 15.1,7.01 14.71,7.39 L11.4,10.7 C12.06,10.87 12.79,10.71 13.31,10.19 L15.42,8.09 C16.19,7.32 16.19,6.06 15.42,5.28 L15.42,5.28 Z"></path>
        <path d="M7.89,12.11 C7.99,12.21 8.11,12.25 8.24,12.25 C8.37,12.25 8.5,12.2 8.59,12.11 L12.1,8.6 C12.29,8.41 12.29,8.09 12.1,7.9 C11.91,7.71 11.59,7.71 11.4,7.9 L7.9,11.4 C7.7,11.6 7.7,11.91 7.89,12.11 L7.89,12.11 Z"></path>
    </symbol>

    <symbol id="calendar" viewBox="0 0 20 20">
        <path d="M 2,3 2,17 18,17 18,3 2,3 Z M 17,16 3,16 3,8 17,8 17,16 Z M 17,7 3,7 3,4 17,4 17,7 Z" />
        <rect width="1" height="3" x="6" y="2" />
        <rect width="1" height="3" x="13" y="2" />
    </symbol>

    <symbol id="shedule" viewBox="0 0 20 20">
        <path d="M1,3 L1,17 L11,17 L10,16 L2,16 L2,8 L16,8 L16,10 L17,11 L17,3 L1,3 L1,3 Z M16,7 L2,7 L2,4 L16,4 L16,7 L16,7 Z"></path>
        <rect x="5" y="2" width="1" height="3"></rect>
        <rect x="12" y="2" width="1" height="3"></rect>
        <circle fill="none" stroke-width="1" cx="14.5" cy="14.5" r="4.5"></circle>
        <polyline fill="none" stroke-width="1" points="14.5 12 14.5 15.5 17 15.5"></polyline>
    </symbol>

    <symbol id="time" viewBox="0 0 20 20">
        <circle r="8" cy="10" cx="10" fill="none" stroke-width="1" />
        <rect x="9" y="4" width="1" height="7" />
        <rect x="10" y="10" width="5" height="1" />
    </symbol>

<!-- socials todo runden -->

    <symbol id="google" viewBox="0 0 20 20">
        <path d="M17.86,9.09 C18.46,12.12 17.14,16.05 13.81,17.56 C9.45,19.53 4.13,17.68 2.47,12.87 C0.68,7.68 4.22,2.42 9.5,2.03 C11.57,1.88 13.42,2.37 15.05,3.65 C15.22,3.78 15.37,3.93 15.61,4.14 C14.9,4.81 14.23,5.45 13.5,6.14 C12.27,5.08 10.84,4.72 9.28,4.98 C8.12,5.17 7.16,5.76 6.37,6.63 C4.88,8.27 4.62,10.86 5.76,12.82 C6.95,14.87 9.17,15.8 11.57,15.25 C13.27,14.87 14.76,13.33 14.89,11.75 L10.51,11.75 L10.51,9.09 L17.86,9.09 L17.86,9.09 Z"></path>
    </symbol>

    <symbol id="xing" viewBox="0 0 20 20">
        <path d="M4.4,4.56 C4.24,4.56 4.11,4.61 4.05,4.72 C3.98,4.83 3.99,4.97 4.07,5.12 L5.82,8.16 L5.82,8.17 L3.06,13.04 C2.99,13.18 2.99,13.33 3.06,13.44 C3.12,13.55 3.24,13.62 3.4,13.62 L6,13.62 C6.39,13.62 6.57,13.36 6.71,13.12 C6.71,13.12 9.41,8.35 9.51,8.16 C9.49,8.14 7.72,5.04 7.72,5.04 C7.58,4.81 7.39,4.56 6.99,4.56 L4.4,4.56 L4.4,4.56 Z"></path>
        <path d="M15.3,1 C14.91,1 14.74,1.25 14.6,1.5 C14.6,1.5 9.01,11.42 8.82,11.74 C8.83,11.76 12.51,18.51 12.51,18.51 C12.64,18.74 12.84,19 13.23,19 L15.82,19 C15.98,19 16.1,18.94 16.16,18.83 C16.23,18.72 16.23,18.57 16.16,18.43 L12.5,11.74 L12.5,11.72 L18.25,1.56 C18.32,1.42 18.32,1.27 18.25,1.16 C18.21,1.06 18.08,1 17.93,1 L15.3,1 L15.3,1 Z"></path>
    </symbol>

    <symbol id="youtube" viewBox="0 0 20 20">
        <path d="M8.04,4 C10.17,4 12.31,3.97 14.44,4.1 C15.35,4.15 16.44,4.1 17.14,4.77 C17.86,5.46 17.9,6.62 17.95,7.55 C18.01,8.6 18,9.65 18,10.7 C17.87,11.68 17.99,12.8 17.59,13.72 C17.16,14.71 16.26,14.9 15.29,14.99 C14.19,15.09 13.08,15.05 11.97,15.14 C9.86,15.14 7.75,15.16 5.64,15.05 C4.64,15 3.44,15.06 2.73,14.23 C2.13,13.53 2.11,12.42 2.05,11.54 C1.99,10.49 1.98,9.44 2.02,8.39 C2.05,7.39 2.03,6.25 2.47,5.33 C2.9,4.41 3.79,4.23 4.71,4.15 C5.82,4.06 6.93,4.05 8.04,4 C9.35,4 7.81,4.01 8.04,4 L8.04,4 Z M7.94,6.76 L7.94,12.06 L13.03,9.42 L7.94,6.76 L7.94,6.76 Z"></path>
    </symbol>

    <symbol id="wordpress" viewBox="0 0 20 20">
        <path d="M10,1 C5.03,1 1,5.03 1,10 C1,14.97 5.03,19 10,19 C14.97,19 19,14.97 19,10 C19,5.03 14.97,1 10,1 L10,1 Z M1.95,9.98 C1.95,8.81 2.2,7.7 2.65,6.7 L6.5,17.24 C3.81,15.93 1.95,13.17 1.95,9.98 L1.95,9.98 Z M10.02,18.05 C9.23,18.05 8.46,17.93 7.74,17.72 L10.16,10.68 L12.64,17.47 C12.66,17.51 12.68,17.55 12.7,17.58 C11.87,17.88 10.96,18.05 10.02,18.05 L10.02,18.05 Z M11.14,6.19 C11.62,6.16 12.06,6.11 12.06,6.11 C12.5,6.06 12.44,5.42 12.01,5.45 C12.01,5.45 10.7,5.55 9.86,5.55 C9.07,5.55 7.73,5.45 7.73,5.45 C7.3,5.42 7.24,6.09 7.68,6.12 C7.68,6.12 8.09,6.17 8.52,6.2 L9.78,9.64 L8.01,14.94 L5.08,6.19 C5.57,6.17 6,6.12 6,6.12 C6.44,6.07 6.38,5.43 5.95,5.46 C5.95,5.46 4.64,5.56 3.8,5.56 C3.65,5.56 3.47,5.56 3.28,5.55 C4.72,3.36 7.2,1.91 10.02,1.91 C12.12,1.91 14.03,2.71 15.47,4.03 C15.43,4.03 15.4,4.02 15.37,4.02 C14.58,4.02 14.01,4.71 14.01,5.45 C14.01,6.11 14.39,6.68 14.8,7.34 C15.11,7.88 15.47,8.57 15.47,9.56 C15.47,10.25 15.2,11.05 14.85,12.17 L14.05,14.86 L11.14,6.19 L11.14,6.19 Z M14.08,16.95 L16.54,9.82 C17,8.67 17.16,7.75 17.16,6.93 C17.16,6.63 17.14,6.36 17.1,6.1 C17.73,7.25 18.09,8.57 18.09,9.97 C18.09,12.95 16.48,15.55 14.08,16.95 L14.08,16.95 Z"></path>
    </symbol>

    <symbol id="uikit" viewBox="0 0 20 20">
        <polygon points="14.35 3.5 11.27 5.4 14.75 7.4 14.75 12.7 10 15.4 5 12.7 5 8.6 2 7 2 14.5 9.9 19 17.9 14.5 17.9 5.5" />
        <polygon points="12.58 2.8 9.6 1 6.5 3 9.5 4.6" />
    </symbol>

    <symbol id="twitter" viewBox="0 0 20 20">
        <path d="M19,4.74 C18.339,5.029 17.626,5.229 16.881,5.32 C17.644,4.86 18.227,4.139 18.503,3.28 C17.79,3.7 17.001,4.009 16.159,4.17 C15.485,3.45 14.526,3 13.464,3 C11.423,3 9.771,4.66 9.771,6.7 C9.771,6.99 9.804,7.269 9.868,7.539 C6.795,7.38 4.076,5.919 2.254,3.679 C1.936,4.219 1.754,4.86 1.754,5.539 C1.754,6.82 2.405,7.95 3.397,8.61 C2.79,8.589 2.22,8.429 1.723,8.149 L1.723,8.189 C1.723,9.978 2.997,11.478 4.686,11.82 C4.376,11.899 4.049,11.939 3.713,11.939 C3.475,11.939 3.245,11.919 3.018,11.88 C3.49,13.349 4.852,14.419 6.469,14.449 C5.205,15.429 3.612,16.019 1.882,16.019 C1.583,16.019 1.29,16.009 1,15.969 C2.635,17.019 4.576,17.629 6.662,17.629 C13.454,17.629 17.17,12 17.17,7.129 C17.17,6.969 17.166,6.809 17.157,6.649 C17.879,6.129 18.504,5.478 19,4.74" />
    </symbol>

    <symbol id="pagekit" viewBox="0 0 20 20">
        <polygon points="3 0 18 0 18 16 11 16 11 13 15 13 15 3 6 3 6 16 11 16 11 19 3 19" />
    </symbol>

    <symbol id="instagram" viewBox="0 0 20 20">
        <path d="M16.57,1 L3.43,1 C2.09,1 1,2.09 1,3.43 L1,16.57 C1,17.91 2.09,19 3.43,19 L16.57,19 C17.91,19 19,17.91 19,16.57 L19,3.43 C19,2.09 17.91,1 16.57,1 L16.57,1 Z M13.28,3.77 C13.28,3.36 13.61,3.03 14.02,3.03 L16.14,3.03 C16.55,3.03 16.88,3.36 16.88,3.77 L16.88,5.89 C16.88,6.3 16.55,6.63 16.14,6.63 L14.02,6.63 C13.61,6.63 13.28,6.3 13.28,5.89 L13.28,3.77 L13.28,3.77 Z M10,6.31 C12.04,6.31 13.69,7.96 13.69,10 C13.69,12.04 12.04,13.69 10,13.69 C7.96,13.69 6.31,12.04 6.31,10 C6.31,7.96 7.96,6.31 10,6.31 L10,6.31 Z M17.07,16.35 C17.07,16.76 16.74,17.09 16.33,17.09 L3.67,17.09 C3.26,17.09 2.93,16.76 2.93,16.35 L2.93,8.66 L4.48,8.66 C4.37,9.09 4.31,9.54 4.31,10 C4.31,13.14 6.86,15.69 10,15.69 C13.14,15.69 15.69,13.14 15.69,10 C15.69,9.54 15.63,9.09 15.52,8.66 L17.07,8.66 L17.07,16.35 L17.07,16.35 Z"></path>
    </symbol>

    <symbol id="linkedin" viewBox="0 0 20 20">
        <path d="M5.77,17.89 L5.77,7.17 L2.21,7.17 L2.21,17.89 L5.77,17.89 L5.77,17.89 Z M3.99,5.71 C5.23,5.71 6.01,4.89 6.01,3.86 C5.99,2.8 5.24,2 4.02,2 C2.8,2 2,2.8 2,3.85 C2,4.88 2.77,5.7 3.97,5.7 L3.99,5.7 L3.99,5.71 L3.99,5.71 Z"></path>
        <path d="M7.75,17.89 L11.31,17.89 L11.31,11.9 C11.31,11.58 11.33,11.26 11.43,11.03 C11.69,10.39 12.27,9.73 13.26,9.73 C14.55,9.73 15.06,10.71 15.06,12.15 L15.06,17.89 L18.62,17.89 L18.62,11.74 C18.62,8.45 16.86,6.92 14.52,6.92 C12.6,6.92 11.75,7.99 11.28,8.73 L11.3,8.73 L11.3,7.17 L7.75,7.17 C7.79,8.17 7.75,17.89 7.75,17.89 L7.75,17.89 L7.75,17.89 Z"></path>
    </symbol>

    <symbol id="behance" viewBox="0 0 20 20">
        <path d="M9.77,10.08 C9.44,9.59 8.93,9.25 8.25,9.05 C8.75,8.81 9.12,8.51 9.38,8.14 C9.63,7.77 9.76,7.3 9.76,6.74 C9.76,6.23 9.67,5.79 9.51,5.44 C9.33,5.09 9.09,4.81 8.78,4.6 C8.47,4.39 8.1,4.23 7.67,4.14 C7.23,4.05 6.75,4 6.22,4 L1,4 L1,15.07 L6.37,15.07 C6.86,15.07 7.35,15.01 7.81,14.89 C8.29,14.76 8.71,14.57 9.07,14.31 C9.44,14.06 9.73,13.72 9.95,13.31 C10.16,12.9 10.27,12.42 10.27,11.86 C10.27,11.17 10.11,10.57 9.77,10.08 L9.77,10.08 Z M3.42,5.91 L6.18,5.91 C6.89,5.91 7.46,6.48 7.46,7.19 C7.46,7.9 6.89,8.47 6.18,8.47 L3.42,8.47 L3.42,5.91 L3.42,5.91 Z M6.48,13.19 L3.42,13.19 L3.42,10.16 L6.48,10.16 C7.23,10.16 7.84,10.83 7.84,11.67 C7.84,12.51 7.23,13.19 6.48,13.19 L6.48,13.19 Z"></path>
        <path d="M18.95,10.22 C18.77,8.68 17.88,7.21 16.33,6.73 C12.54,5.55 9.72,9.82 11.54,13.09 C12.38,14.59 14.1,15.17 15.74,14.96 C17.31,14.77 18.36,13.78 18.84,12.32 L16.9,12.32 C16.53,13.48 14.67,13.65 13.82,12.94 C13.79,12.92 13.77,12.9 13.74,12.87 C13.34,12.48 13.19,11.85 13.19,11.32 L19.01,11.32 C19.04,10.96 18.97,10.42 18.95,10.22 L18.95,10.22 Z M13.19,9.93 C13.13,8.47 15.2,7.47 16.27,8.66 C16.58,9.01 16.73,9.47 16.77,9.93 L13.19,9.93 L13.19,9.93 Z"></path>
        <rect x="13" y="4" width="4" height="1"></rect>
    </symbol>

    <symbol id="facebook" viewBox="0 0 20 20">
        <path d="M11.73,19 L11.73,11.25 L14.33,11.25 L14.72,8.23 L11.73,8.23 L11.73,6.29 C11.73,5.41 11.97,4.82 13.23,4.82 L14.83,4.82 L14.83,2.12 C14.55,2.08 13.6,2 12.5,2 C10.19,2 8.61,3.41 8.61,5.99 L8.61,8.22 L6,8.22 L6,11.24 L8.61,11.24 L8.61,19 L11.73,19 L11.73,19 Z"></path>
    </symbol>

    <symbol id="github" viewBox="0 0 20 20">
        <path d="M10,1 C5.04,1 1,5.04 1,10 C1,14.96 5.04,19 10,19 C14.96,19 19,14.96 19,10 C19,5.04 14.96,1 10,1 L10,1 Z M12.74,17.49 C12.74,17.49 12.74,17.5 12.74,17.49 C12.41,17.55 12.29,17.39 12.29,17.17 L12.29,16.01 C12.29,15.31 12.04,14.79 11.55,14.44 C12.15,14.39 12.7,14.28 13.19,14.1 C13.78,13.88 14.26,13.59 14.62,13.2 C15.28,12.52 15.61,11.5 15.61,10.16 C15.61,9.26 15.31,8.49 14.71,7.85 C14.97,7.15 14.94,6.38 14.62,5.55 L14.4,5.53 C14.23,5.51 13.96,5.57 13.57,5.71 C13.16,5.88 12.72,6.12 12.25,6.43 C11.51,6.24 10.78,6.14 10.07,6.14 C9.36,6.14 8.64,6.24 7.91,6.43 C7.33,6.05 6.81,5.78 6.34,5.64 C6.16,5.58 6.01,5.55 5.89,5.55 L5.53,5.55 C5.19,6.38 5.16,7.15 5.44,7.85 C4.84,8.49 4.53,9.26 4.53,10.16 C4.53,11.89 5.08,13.08 6.18,13.74 C6.61,14.02 7.13,14.21 7.75,14.32 C8.07,14.39 8.35,14.43 8.59,14.44 C8.11,14.77 7.87,15.29 7.87,16.01 L7.87,17.33 C7.85,17.49 7.76,17.6 7.57,17.6 C4.35,16.57 2.02,13.55 2.02,10 C2.02,5.6 5.6,2.02 10,2.02 C14.4,2.02 17.98,5.6 17.98,10 C17.98,13.44 15.79,16.37 12.74,17.49 L12.74,17.49 Z"></path>
    </symbol>

    <symbol id="github-2" viewBox="0 0 20 20">
        <path d="M10,1 C5.03,1 1,5.03 1,10 C1,13.98 3.58,17.35 7.16,18.54 C7.61,18.62 7.77,18.34 7.77,18.11 C7.77,17.9 7.76,17.33 7.76,16.58 C5.26,17.12 4.73,15.37 4.73,15.37 C4.32,14.33 3.73,14.05 3.73,14.05 C2.91,13.5 3.79,13.5 3.79,13.5 C4.69,13.56 5.17,14.43 5.17,14.43 C5.97,15.8 7.28,15.41 7.79,15.18 C7.87,14.6 8.1,14.2 8.36,13.98 C6.36,13.75 4.26,12.98 4.26,9.53 C4.26,8.55 4.61,7.74 5.19,7.11 C5.1,6.88 4.79,5.97 5.28,4.73 C5.28,4.73 6.04,4.49 7.75,5.65 C8.47,5.45 9.24,5.35 10,5.35 C10.76,5.35 11.53,5.45 12.25,5.65 C13.97,4.48 14.72,4.73 14.72,4.73 C15.21,5.97 14.9,6.88 14.81,7.11 C15.39,7.74 15.73,8.54 15.73,9.53 C15.73,12.99 13.63,13.75 11.62,13.97 C11.94,14.25 12.23,14.8 12.23,15.64 C12.23,16.84 12.22,17.81 12.22,18.11 C12.22,18.35 12.38,18.63 12.84,18.54 C16.42,17.35 19,13.98 19,10 C19,5.03 14.97,1 10,1 L10,1 Z"></path>
    </symbol>

    <symbol id="flickr" viewBox="0 0 20 20">
        <circle cx="5" cy="9.5" r="3.5"/>
        <circle cx="14" cy="9.5" r="3.5"/>
    </symbol>

    <symbol id="google-plus" viewBox="0 0 20 20">
        <path d="M12.65,9.04 C13.1,11.26 12.12,14.15 9.67,15.26 C6.47,16.71 2.56,15.35 1.34,11.82 C0.03,8.01 2.63,4.14 6.51,3.85 C8.03,3.74 9.39,4.1 10.59,5.04 C10.72,5.14 10.83,5.25 11,5.4 C10.48,5.9 9.98,6.37 9.45,6.87 C8.55,6.09 7.5,5.83 6.35,6.02 C5.49,6.16 4.79,6.59 4.21,7.24 C3.12,8.45 2.93,10.35 3.76,11.79 C4.63,13.29 6.27,13.98 8.03,13.58 C9.28,13.3 10.37,12.17 10.47,11.01 L7.25,11.01 L7.25,9.04 L12.65,9.04 L12.65,9.04 Z"></path>
        <polygon points="20 9 20 11 18 11 18 13 16 13 16 11 14 11 14 9 16 9 16 7 18 7 18 9"></polygon>
    </symbol>

    <symbol id="joomla" viewBox="0 0 20 20">
        <path d="M7.7,13.54 L9.48,11.76 L5.68,7.96 C5.1,7.39 5.1,6.44 5.68,5.87 C6.26,5.29 7.19,5.29 7.77,5.87 L9.54,4.09 C8.53,3.07 7.1,2.71 5.8,3.02 C5.62,1.87 4.62,1 3.43,1 C2.1,1 1.03,2.08 1.02,3.41 C1.02,4.56 1.82,5.52 2.89,5.76 C2.48,7.12 2.82,8.66 3.89,9.73 L7.7,13.54 L7.7,13.54 Z"></path>
        <path d="M10.23,4.08 C11.3,3.01 12.82,2.67 14.18,3.07 C14.35,1.9 15.35,1 16.57,1 C17.9,1 18.98,2.08 18.98,3.41 C18.98,4.63 18.07,5.65 16.89,5.8 C17.28,7.15 16.94,8.67 15.88,9.73 L14.1,7.95 C14.68,7.38 14.68,6.44 14.1,5.86 C13.53,5.28 12.59,5.28 12.02,5.86 L8.16,9.72 L6.38,7.94"></path>
        <path d="M14.23,17.07 C12.87,17.49 11.32,17.16 10.24,16.07 L12.02,14.29 C12.6,14.87 13.53,14.87 14.11,14.29 C14.68,13.71 14.69,12.78 14.11,12.2 L10.28,8.36 L12.06,6.59 L15.89,10.43 C16.91,11.45 17.26,12.89 16.95,14.2 C18.1,14.37 19,15.37 19,16.59 C19,17.92 17.92,19 16.59,19 C15.42,19 14.45,18.17 14.23,17.07"></path>
        <path d="M13.37,12.24 L9.54,16.08 C8.51,17.11 7.07,17.46 5.75,17.13 C5.51,18.2 4.55,19 3.41,19 C2.08,19 1,17.92 1,16.59 C1,15.45 1.79,14.49 2.85,14.24 C2.52,12.92 2.86,11.46 3.9,10.43 L5.68,12.2 C5.1,12.78 5.1,13.71 5.68,14.3 C6.26,14.88 7.19,14.88 7.77,14.3 L11.6,10.46"></path>
    </symbol>

    <symbol id="pinterest" viewBox="0 0 20 20">
        <path d="M10.21,1 C5.5,1 3,4.16 3,7.61 C3,9.21 3.85,11.2 5.22,11.84 C5.43,11.94 5.54,11.89 5.58,11.69 C5.62,11.54 5.8,10.8 5.88,10.45 C5.91,10.34 5.89,10.24 5.8,10.14 C5.36,9.59 5,8.58 5,7.65 C5,5.24 6.82,2.91 9.93,2.91 C12.61,2.91 14.49,4.74 14.49,7.35 C14.49,10.3 13,12.35 11.06,12.35 C9.99,12.35 9.19,11.47 9.44,10.38 C9.75,9.08 10.35,7.68 10.35,6.75 C10.35,5.91 9.9,5.21 8.97,5.21 C7.87,5.21 6.99,6.34 6.99,7.86 C6.99,8.83 7.32,9.48 7.32,9.48 C7.32,9.48 6.24,14.06 6.04,14.91 C5.7,16.35 6.08,18.7 6.12,18.9 C6.14,19.01 6.26,19.05 6.33,18.95 C6.44,18.81 7.74,16.85 8.11,15.44 C8.24,14.93 8.79,12.84 8.79,12.84 C9.15,13.52 10.19,14.09 11.29,14.09 C14.58,14.09 16.96,11.06 16.96,7.3 C16.94,3.7 14,1 10.21,1"></path>
    </symbol>
<!-- socials ende -->

<!-- editor runden -->

    <symbol id="quote" viewBox="0 0 20 20">
        <path d="M17.27,7.79 C17.27,9.45 16.97,10.43 15.99,12.02 C14.98,13.64 13,15.23 11.56,15.97 L11.1,15.08 C12.34,14.2 13.14,13.51 14.02,11.82 C14.27,11.34 14.41,10.92 14.49,10.54 C14.3,10.58 14.09,10.6 13.88,10.6 C12.06,10.6 10.59,9.12 10.59,7.3 C10.59,5.48 12.06,4 13.88,4 C15.39,4 16.67,5.02 17.05,6.42 C17.19,6.82 17.27,7.27 17.27,7.79 L17.27,7.79 Z"></path>
        <path d="M8.68,7.79 C8.68,9.45 8.38,10.43 7.4,12.02 C6.39,13.64 4.41,15.23 2.97,15.97 L2.51,15.08 C3.75,14.2 4.55,13.51 5.43,11.82 C5.68,11.34 5.82,10.92 5.9,10.54 C5.71,10.58 5.5,10.6 5.29,10.6 C3.47,10.6 2,9.12 2,7.3 C2,5.48 3.47,4 5.29,4 C6.8,4 8.08,5.02 8.46,6.42 C8.6,6.82 8.68,7.27 8.68,7.79 L8.68,7.79 Z"></path>
    </symbol>

    <symbol id="pen" viewBox="0 0 20 20">
        <path d="M12.28,5.27 L13.31,4.23 C14.02,3.54 15.11,3.53 15.85,4.21 C16.56,4.93 16.56,6.03 15.87,6.74 L14.8,7.78"></path>
        <polyline fill="none" stroke-width="1" points="14.44 7.44 6.66 15.2 3.87 16.2 4.87 13.39 12.63 5.62"></polyline>
    </symbol>

    <symbol id="bold" viewBox="0 0 20 20">
        <path d="M5,15.3 C5.66,15.3 5.9,15 5.9,14.53 L5.9,5.5 C5.9,4.92 5.56,4.7 5,4.7 L5,4 L8.95,4 C12.6,4 13.7,5.37 13.7,6.9 C13.7,7.87 13.14,9.17 10.86,9.59 L10.86,9.7 C13.25,9.86 14.29,11.28 14.3,12.54 C14.3,14.47 12.94,16 9,16 L5,16 L5,15.3 Z M9,9.3 C11.19,9.3 11.8,8.5 11.85,7 C11.85,5.65 11.3,4.8 9,4.8 L7.67,4.8 L7.67,9.3 L9,9.3 Z M9.185,15.22 C11.97,15 12.39,14 12.4,12.58 C12.4,11.15 11.39,10 9,10 L7.67,10 L7.67,15 L9.18,15 Z" />
    </symbol>

    <symbol id="italic" viewBox="0 0 20 20">
        <path d="M12.63,5.48 L10.15,14.52 C10,15.08 10.37,15.25 11.92,15.3 L11.72,16 L6,16 L6.2,15.31 C7.78,15.26 8.19,15.09 8.34,14.53 L10.82,5.49 C10.97,4.92 10.63,4.76 9.09,4.71 L9.28,4 L15,4 L14.81,4.69 C13.23,4.75 12.78,4.91 12.63,5.48 L12.63,5.48 Z"></path>
    </symbol>

    <symbol id="strikethrough" viewBox="0 0 20 20">
        <path d="M6,13.02 L6.65,13.02 C7.64,15.16 8.86,16.12 10.41,16.12 C12.22,16.12 12.92,14.93 12.92,13.89 C12.92,12.55 11.99,12.03 9.74,11.23 C8.05,10.64 6.23,10.11 6.23,7.83 C6.23,5.5 8.09,4.09 10.4,4.09 C11.44,4.09 12.13,4.31 12.72,4.54 L13.33,4 L13.81,4 L13.81,7.59 L13.16,7.59 C12.55,5.88 11.52,4.89 10.07,4.89 C8.84,4.89 7.89,5.69 7.89,7.03 C7.89,8.29 8.89,8.78 10.88,9.45 C12.57,10.03 14.38,10.6 14.38,12.91 C14.38,14.75 13.27,16.93 10.18,16.93 C9.18,16.93 8.17,16.69 7.46,16.39 L6.52,17 L6,17 L6,13.02 L6,13.02 Z"></path>
        <rect x="3" y="10" width="15" height="1"></rect>
    </symbol>

    <symbol id="video" viewBox="0 0 20 20">
        <polygon points="18,6 18,14 12,10 "/>
        <rect x="2" y="5" width="12" height="10"/>
    </symbol>
<!-- editor ende -->

<!-- todo -->
    <symbol id="rss" viewBox="0 0 20 20">
        <circle fill="none" stroke-width="1" cx="4.05" cy="16.07" r="2.12"></circle>
        <path fill="none" stroke-width="1" d="M1.5,8.54 C1.78,8.52 2.06,8.5 2.35,8.5 C7.57,8.5 11.81,12.74 11.81,17.96 C11.81,18.28 11.79,18.59 11.76,18.9"></path>
        <path fill="none" stroke-width="1" d="M1.5,2.52 C1.78,2.51 2.06,2.5 2.35,2.5 C10.72,2.5 17.5,9.28 17.5,17.66 C17.5,17.98 17.49,18.29 17.47,18.6"></path>
    </symbol>

    <symbol id="tag" viewBox="0 0 20 20">
        <circle cx="13.83" cy="6.27" r="1.25"></circle>
        <path fill="none" stroke-width="1" d="M16.51,9.59 L7.96,18.14 C7.55,18.55 6.89,18.55 6.48,18.14 L2.31,13.97 C1.9,13.56 1.9,12.9 2.31,12.49 L10.86,3.94 C11.08,3.72 11.35,3.58 11.64,3.53 L15.56,3.06 L15.99,3 C16.37,3.01 16.73,3.16 17,3.43 C17.29,3.72 17.44,4.11 17.44,4.49 C17.44,4.59 17.43,4.7 17.4,4.78 L16.92,8.81 C16.88,9.1 16.73,9.37 16.51,9.59 L16.51,9.59 Z"></path>
    </symbol>

    <symbol id="minimize" viewBox="0 0 20 20">
        <polygon points="11 4 12 4 12 8 16 8 16 9 11 9" />
        <polygon points="4 11 9 11 9 16 8 16 8 12 4 12" />
        <path d="M12,8 L18,2" fill="none" stroke-width="1" />
        <path d="M2,18 L8,12" fill="none" stroke-width="1" />
    </symbol>

    <symbol id="fullscreen" viewBox="0 0 20 20">
        <polygon points="13 2 18 2 18 7 17 7 17 3 13 3" />
        <polygon points="2 13 3 13 3 17 7 17 7 18 2 18" />
        <path d="M11,9 L17,3" fill="none" stroke-width="1" />
        <path d="M3,17 L9,11" fill="none" stroke-width="1" />
    </symbol>

    <symbol id="edit" viewBox="0 0 20 20">
        <path fill="none" stroke-width="1" d="M18.65,1.68 C18.41,1.45 18.11,1.33 17.81,1.33 C17.5,1.33 17.21,1.45 16.98,1.68 L8.92,9.76 L8,12.33 L10.55,11.41 L18.65,3.34 C19.12,2.87 19.12,2.15 18.65,1.68 L18.65,1.68 Z"></path>
        <polygon points="17 19 2 19 2 3 13.21 3 12.21 4 3 4 3 18 16 18 16 8 17 7"></polygon>
    </symbol>

    <symbol id="dribbble" viewBox="0 0 20 20">
        <path d="M10,2 C5.59,2 2,5.59 2,10 C2,14.41 5.59,18 10,18 C14.41,18 18,14.41 18,10 C18,5.59 14.41,2 10,2 L10,2 Z M15.32,5.43 C16.37,6.64 17,8.2 17.01,9.91 C16.47,9.79 15.61,9.65 14.47,9.63 C13.61,9.61 12.81,9.65 11.98,9.8 C11.79,9.33 11.33,8.34 11.32,8.32 C12.5,7.82 13.52,7.19 14.31,6.51 C14.76,6.11 15.1,5.73 15.32,5.43 L15.32,5.43 Z M10,2.97 C11.78,2.97 13.41,3.63 14.64,4.73 C14.43,4.98 14.11,5.37 13.67,5.77 C12.95,6.39 11.99,6.98 10.87,7.44 C10.02,5.91 8.81,4.11 8.2,3.23 C8.77,3.05 9.38,2.97 10,2.97 L10,2.97 Z M7.24,3.55 C7.76,4.29 9.04,6.17 9.94,7.77 C8.94,8.05 7.58,8.29 6,8.45 C4.8,8.57 3.73,8.62 3.11,8.62 C3.57,6.33 5.14,4.44 7.24,3.55 L7.24,3.55 Z M2.97,10 C2.97,9.86 2.97,9.74 2.99,9.6 C3.6,9.59 4.77,9.55 6.09,9.42 C7.37,9.29 9.08,9.06 10.4,8.66 C10.43,8.71 10.84,9.6 11,10.02 C10.33,10.21 9.64,10.48 8.89,10.86 C7.85,11.4 6.86,12.15 6.09,12.98 C5.55,13.56 5.09,14.24 4.8,14.71 C3.66,13.46 2.97,11.81 2.97,10 L2.97,10 Z M10,17.03 C8.3,17.03 6.73,16.42 5.51,15.4 C5.78,14.96 6.26,14.24 6.81,13.64 C7.5,12.89 8.4,12.21 9.34,11.72 C10.06,11.35 10.73,11.1 11.38,10.92 C11.77,11.92 12.08,12.84 12.25,13.39 C12.55,14.41 12.8,15.75 12.91,16.38 C12.03,16.8 11.04,17.03 10,17.03 L10,17.03 Z M13.81,15.89 C13.68,15.17 13.46,14.04 13.19,13.12 C13.05,12.64 12.75,11.76 12.35,10.73 C13.04,10.62 13.73,10.59 14.46,10.61 C15.64,10.63 16.49,10.79 16.95,10.9 C16.71,12.99 15.51,14.8 13.81,15.89 L13.81,15.89 Z"></path>
    </symbol>

    <symbol id="download" viewBox="0 0 20 20">
        <polyline fill="none" stroke-width="1" points="14,10 9.5,14.5 5,10 "/>
        <rect x="3" y="17" width="13" height="1"/>
        <line fill="none" stroke-width="1" x1="9.5" y1="13.91" x2="9.5" y2="3"/>
    </symbol>

    <symbol id="close" viewBox="0 0 20 20">
        <path d="M16,16 L4,4" fill="none" stroke-width="1" />
        <path d="M16,4 L4,16" fill="none" stroke-width="1" />
    </symbol>

    <symbol id="arrow-top" viewBox="0 0 20 20">
        <polyline fill="none" stroke-width="1" points="15.5,9 10.5,4 5.5,9 "/>
        <line fill="none" stroke-width="1" x1="10.5" y1="16" x2="10.5" y2="4.5"/>
    </symbol>

    <symbol id="arrow-down" viewBox="0 0 20 20">
        <polyline fill="none" stroke-width="1" points="15,10 10.5,15 6,10 "/>
        <line fill="none" stroke-width="1" x1="10.5" y1="3" x2="10.5" y2="14"/>
    </symbol>

    <symbol id="arrow-left" viewBox="0 0 20 20">
        <polyline points="5.8,11 16,11 16,10 5.8,10 10.15,5.66 9.5,5 4,10.5 9.5,16 10.15,15.34 5.8,11" />
    </symbol>

    <symbol id="arrow-right" viewBox="0 0 20 20">
        <polyline fill="none" stroke-width="1" points="10,5 15,9.5 10,14 "/>
        <line fill="none" stroke-width="1" x1="4" y1="9.5" x2="15" y2="9.5"/>
    </symbol>
<!-- todo ende -->






    <symbol id="trash-alt" viewBox="0 0 16 18">
        <rect x="8" y="7" width="1" height="9"></rect>
        <rect x="11" y="7" width="1" height="9"></rect>
        <path d="M16,2 L12,2 L12,0 L4,0 L4,2 L0,2 L0,3 L2,3 L2,18 L14,18 L14,3 L16,3 L16,2 L16,2 L16,2 Z M5,1 L11,1 L11,2 L5,2 L5,1 L5,1 L5,1 Z M13,17 L3,17 L3,3 L13,3 L13,17 L13,17 L13,17 Z"></path>
    </symbol>

    <symbol id="table-alt" viewBox="0 0 14 13">
        <rect x="0" y="0" width="14" height="1"></rect>
        <rect x="0" y="4" width="14" height="1"></rect>
        <rect x="0" y="8" width="14" height="1"></rect>
        <rect x="0" y="12" width="14" height="1"></rect>
    </symbol>

    <symbol id="thumbnails-alt" viewBox="0 0 14 14">
        <path d="M5,1 L5,5 L1,5 L1,1 L5,1 L5,1 L5,1 Z M6,0 L0,0 L0,6 L6,6 L6,0 L6,0 L6,0 L6,0 Z"></path>
        <path d="M13,1 L13,5 L9,5 L9,1 L13,1 L13,1 L13,1 Z M14,0 L8,0 L8,6 L14,6 L14,0 L14,0 L14,0 L14,0 Z"></path>
        <path d="M5,9 L5,13 L1,13 L1,9 L5,9 L5,9 L5,9 Z M6,8 L0,8 L0,14 L6,14 L6,8 L6,8 L6,8 L6,8 Z"></path>
        <path d="M13,9 L13,13 L9,13 L9,9 L13,9 L13,9 L13,9 Z M14,8 L8,8 L8,14 L14,14 L14,8 L14,8 L14,8 L14,8 Z"></path>
    </symbol>

    <symbol id="small-edit" viewBox="0 0 11 12">
        <path d="M8.787,0.382 L3,6.188 L3,8 L4.776,8 L10.617,2.193 C11.127,1.684 11.127,0.893 10.617,0.382 C10.0877686,-0.04577637 9.32269287,-0.169982916 8.787,0.382 L8.787,0.382 Z M4.415,7 L4,7 L4,6.548 L9.469,0.997 C9.579,0.887 9.667,0.87 9.735,0.87 C9.803,0.87 9.913,0.887 10.022,0.998 C10.133,1.107 10.141,1.187 10.141,1.255 C10.141,1.323 10.111,1.4 10.001,1.514 L4.415,7 L4.415,7 Z"></path>
        <path d="M8,6 L8,11 L1,11 L1,1 L7,1 L7,0 L0,0 L0,12 L9,12 L9,6 L8,6 L8,6 Z"></path>
    </symbol>

    <symbol id="small-trash" viewBox="0 0 13 13">
        <rect x="6" y="7" width="1" height="4"></rect>
        <rect x="8" y="7" width="1" height="4"></rect>
        <path d="M13,2 L10,2 L10,0 L3,0 L3,2 L1.73472348e-18,2 L1.73472348e-18,2.99597168 L2,2.99597168 L2,13 L10.9962158,13 L10.9962158,2.99597168 L12.9962158,2.99597168 L13,2 L13,2 Z M4.01452637,1 L9.01452637,1 L9.01452637,2 L4.01452637,2 L4.01452637,1 L4.01452637,1 L4.01452637,1 L4.01452637,1 L4.01452637,1 Z M3,12 L3,3 L10,3 L10,12 L3,12 L3,12 Z"></path>
    </symbol>

    <symbol id="small-copy" viewBox="0 0 10 13">
        <path d="M0,2 L0,13 L8,13 L8,2 L0,2 L0,2 Z M1,12 L1,3 L7,3 L7,12 L1,12 L1,12 Z"></path>
        <path d="M2,0 L2,1 L9,1 L9,11 L10,11 L10,0 L2,0 L2,0 Z"></path>
    </symbol>

    <symbol id="small-plus" viewBox="0 0 9 9">
        <rect x="0" y="4" width="9" height="1"></rect>
        <rect x="4" y="0" width="1" height="9"></rect>
    </symbol>












    <symbol id="close_close" viewBox="0 0 14 14">
        <polygon points="14 1 13 0 7 6 1 0 0 1 6 7 0 13 1 14 7 8 13 14 14 13 8 7"></polygon>
    </symbol>

    <symbol id="slidenav_previous" viewBox="0 0 18 16">
        <polygon points="18 7 3.828 7 9.414 1.414 8 0 0 8 8 16 9.414 14.586 3.828 9 18 9"></polygon>
    </symbol>

    <symbol id="slidenav_next" viewBox="0 0 18 16">
        <polygon points="10 0 8.586 1.414 14.172 7 0 7 0 9 14.172 9 8.586 14.586 10 16 18 8"></polygon>
    </symbol>

    <symbol id="spinner_spinner" viewBox="0 0 30 30">
        <circle  cx="15" cy="15" r="14"></circle>
    </symbol>

</svg>
