<svg width="20" height="20" viewBox="0 0 20 20" xmlns="http://www.w3.org/2000/svg">
	<path d="M9.624,11.866c-0.141,0.132,0.479,0.658,0.662,0.418c0.051-0.046,0.607-0.61,0.662-0.664c0,0,0.738,0.719,0.814,0.719
		c0.1,0,0.207-0.055,0.322-0.17c0.27-0.269,0.135-0.416,0.066-0.495l-0.631-0.616l0.658-0.668c0.146-0.156,0.021-0.314-0.1-0.449
		c-0.182-0.18-0.359-0.226-0.471-0.125l-0.656,0.654l-0.654-0.654c-0.033-0.034-0.08-0.045-0.124-0.045
		c-0.079,0-0.191,0.068-0.307,0.181c-0.202,0.202-0.247,0.351-0.133,0.462l0.665,0.665L9.624,11.866z" />
	<path d="M11.066,2.884c-1.061,0-2.185,0.248-3.011,0.604c-0.087,0.034-0.141,0.106-0.15,0.205C7.893,3.784,7.919,3.909,7.982,4.066
		c0.05,0.136,0.187,0.474,0.452,0.372c0.844-0.326,1.779-0.507,2.633-0.507c0.963,0,1.9,0.191,2.781,0.564
		c0.695,0.292,1.357,0.719,2.078,1.34c0.051,0.044,0.105,0.068,0.164,0.068c0.143,0,0.273-0.137,0.389-0.271
		c0.191-0.214,0.324-0.395,0.135-0.575c-0.686-0.654-1.436-1.138-2.363-1.533C13.24,3.097,12.168,2.884,11.066,2.884z" />
	<path d="M16.43,15.747c-0.092-0.028-0.242,0.05-0.309,0.119l0,0c-0.652,0.652-1.42,1.169-2.268,1.521
		c-0.877,0.371-1.814,0.551-2.779,0.551c-0.961,0-1.896-0.189-2.775-0.564c-0.848-0.36-1.612-0.879-2.268-1.53
		c-0.682-0.688-1.196-1.455-1.529-2.268c-0.325-0.799-0.471-1.643-0.471-1.643c-0.045-0.24-0.258-0.249-0.567-0.203
		c-0.128,0.021-0.519,0.079-0.483,0.36v0.01c0.105,0.644,0.289,1.284,0.545,1.895c0.417,0.969,1.002,1.849,1.756,2.604
		c0.757,0.754,1.636,1.34,2.604,1.757C8.901,18.785,9.97,19,11.088,19c1.104,0,2.186-0.215,3.188-0.645
		c1.838-0.896,2.604-1.757,2.604-1.757c0.182-0.204,0.227-0.317-0.1-0.643C16.779,15.956,16.525,15.774,16.43,15.747z" />
	<path d="M5.633,13.287c0.293,0.71,0.723,1.341,1.262,1.882c0.54,0.54,1.172,0.971,1.882,1.264c0.731,0.303,1.509,0.461,2.298,0.461
		c0.801,0,1.578-0.158,2.297-0.461c0.711-0.293,1.344-0.724,1.883-1.264c0.543-0.541,0.971-1.172,1.264-1.882
		c0.314-0.721,0.463-1.5,0.463-2.298c0-0.79-0.148-1.569-0.463-2.289c-0.293-0.699-0.721-1.329-1.264-1.881
		c-0.539-0.541-1.172-0.959-1.867-1.263c-0.721-0.303-1.5-0.461-2.299-0.461c-0.802,0-1.613,0.159-2.322,0.461
		c-0.577,0.25-1.544,0.867-2.119,1.454v0.012V2.108h8.16C15.1,2.104,15.1,1.69,15.1,1.552C15.1,1.417,15.1,1,14.809,1H5.915
		C5.676,1,5.527,1.192,5.527,1.384v6.84c0,0.214,0.273,0.372,0.529,0.428c0.5,0.105,0.614-0.056,0.737-0.224l0,0
		c0.18-0.273,0.776-0.884,0.787-0.894c0.901-0.905,2.117-1.408,3.416-1.408c1.285,0,2.5,0.501,3.412,1.408
		c0.914,0.914,1.408,2.122,1.408,3.405c0,1.288-0.508,2.496-1.408,3.405c-0.9,0.896-2.152,1.406-3.438,1.406
		c-0.877,0-1.711-0.229-2.433-0.671v-4.158c0-0.553,0.237-1.151,0.643-1.614c0.462-0.519,1.094-0.799,1.782-0.799
		c0.664,0,1.293,0.253,1.758,0.715c0.459,0.459,0.709,1.071,0.709,1.723c0,1.385-1.094,2.468-2.488,2.468
		c-0.273,0-0.769-0.121-0.781-0.125c-0.281-0.087-0.405,0.306-0.438,0.436c-0.159,0.496,0.079,0.585,0.123,0.607
		c0.452,0.137,0.743,0.157,1.129,0.157c1.973,0,3.572-1.6,3.572-3.57c0-1.964-1.6-3.552-3.572-3.552c-0.97,0-1.872,0.36-2.546,1.038
		c-0.656,0.631-1.027,1.487-1.027,2.322v3.438v-0.011c-0.372-0.42-0.732-1.041-0.981-1.682c-0.102-0.248-0.315-0.202-0.607-0.113
		c-0.135,0.035-0.519,0.157-0.44,0.439C5.372,12.799,5.577,13.164,5.633,13.287z" />
</svg>
