<svg width="20" height="20" viewBox="0 0 20 20" xmlns="http://www.w3.org/2000/svg">
    <path d="m14.88,6.77l1.66-2.87c.09-.16.04-.37-.12-.46-.16-.09-.37-.04-.46.12l-1.68,2.91c-1.28-.59-2.73-.91-4.28-.91s-3,.33-4.28.91l-1.68-2.91c-.09-.16-.3-.22-.46-.12-.16.09-.22.3-.12.46l1.66,2.87C2.26,8.32.32,11.22,0,14.61h20c-.32-3.39-2.26-6.29-5.12-7.84h0Zm-9.47,5.03c-.46,0-.84-.38-.84-.84s.38-.84.84-.84.84.38.84.84c0,.46-.37.84-.84.84Zm9.18,0c-.46,0-.84-.38-.84-.84s.38-.84.84-.84.84.38.84.84c0,.46-.37.84-.84.84Z" />
</svg>