<svg width="20" height="20" viewBox="0 0 20 20" xmlns="http://www.w3.org/2000/svg">
    <path d="m17.23,6.93c-.1.08-1.95,1.12-1.95,3.43,0,2.67,2.35,3.62,2.42,3.64-.01.06-.37,1.29-1.24,2.55-.77,1.11-1.58,2.22-2.8,2.22s-1.54-.71-2.95-.71-1.87.73-2.99.73-1.9-1.03-2.8-2.29c-1.04-1.48-1.88-3.78-1.88-5.96,0-3.5,2.28-5.36,4.51-5.36,1.19,0,2.18.78,2.93.78s1.82-.83,3.17-.83c.51,0,2.36.05,3.57,1.79h0Zm-4.21-3.27c.56-.66.96-1.59.96-2.51,0-.13-.01-.26-.03-.36-.91.03-1.99.61-2.65,1.36-.51.58-.99,1.5-.99,2.44,0,.14.02.28.03.33.06.01.15.02.24.02.82,0,1.85-.55,2.44-1.28h0Z" />
</svg>