<svg width="20" height="20" viewBox="0 0 20 20" xmlns="http://www.w3.org/2000/svg">
    <path d="M9.5,10.6c-0.4-0.5-0.9-0.9-1.6-1.1c1.7-1,2.2-3.2,0.7-4.7C7.8,4,6.3,4,5.2,4C3.5,4,1.7,4,0,4v12c1.7,0,3.4,0,5.2,0 c1,0,2.1,0,3.1-0.5C10.2,14.6,10.5,12.3,9.5,10.6L9.5,10.6z M5.6,6.1c1.8,0,1.8,2.7-0.1,2.7c-1,0-2,0-2.9,0V6.1H5.6z M2.6,13.8v-3.1 c1.1,0,2.1,0,3.2,0c2.1,0,2.1,3.2,0.1,3.2L2.6,13.8z" />
    <path d="M19.9,10.9C19.7,9.2,18.7,7.6,17,7c-4.2-1.3-7.3,3.4-5.3,7.1c0.9,1.7,2.8,2.3,4.7,2.1c1.7-0.2,2.9-1.3,3.4-2.9h-2.2 c-0.4,1.3-2.4,1.5-3.5,0.6c-0.4-0.4-0.6-1.1-0.6-1.7H20C20,11.7,19.9,10.9,19.9,10.9z M13.5,10.6c0-1.6,2.3-2.7,3.5-1.4 c0.4,0.4,0.5,0.9,0.6,1.4H13.5L13.5,10.6z" />
    <rect x="13" y="4" width="5" height="1.4" />
</svg>
