<svg width="20" height="20" viewBox="0 0 20 20" xmlns="http://www.w3.org/2000/svg">
    <path fill="none" stroke="#000" stroke-width="1.1" d="M17,15.5 L3,15.5 C2.99,14.61 3.79,13.34 4.1,12.51 C4.58,11.3 4.72,10.35 5.19,7.01 C5.54,4.53 5.89,3.2 7.28,2.16 C8.13,1.56 9.37,1.5 9.81,1.5 L9.96,1.5 C9.96,1.5 11.62,1.41 12.67,2.17 C14.08,3.2 14.42,4.54 14.77,7.02 C15.26,10.35 15.4,11.31 15.87,12.52 C16.2,13.34 17.01,14.61 17,15.5 L17,15.5 Z"></path>
    <path fill="none" stroke="#000" d="M12.39,16 C12.39,17.37 11.35,18.43 9.91,18.43 C8.48,18.43 7.42,17.37 7.42,16"></path>
</svg>