<svg width="20" height="20" viewBox="0 0 20 20" xmlns="http://www.w3.org/2000/svg">
    <path d="M9.993,9.149c-.772-1.495-2.865-4.288-4.813-5.662-1.866-1.317-2.58-1.09-3.043-.878-.54.246-.637,1.075-.637,1.563s.265,4.003.444,4.587c.579,1.939,2.628,2.595,4.519,2.382.096-.014.193-.029.294-.039-.096.014-.198.029-.294.039-2.768.41-5.233,1.418-2.001,5.011,3.55,3.675,4.866-.786,5.541-3.053.675,2.262,1.452,6.564,5.474,3.053,3.024-3.053.83-4.601-1.939-5.011-.096-.01-.198-.024-.294-.039.101.014.198.024.294.039,1.89.212,3.945-.444,4.519-2.382.174-.588.444-4.099.444-4.587s-.096-1.317-.637-1.563c-.468-.212-1.177-.439-3.043.878-1.963,1.379-4.056,4.167-4.827,5.662h0Z" />
</svg>