<svg width="20" height="20" viewBox="0 0 20 20" xmlns="http://www.w3.org/2000/svg">
    <path d="M5,15.3 C5.66,15.3 5.9,15 5.9,14.53 L5.9,5.5 C5.9,4.92 5.56,4.7 5,4.7 L5,4 L8.95,4 C12.6,4 13.7,5.37 13.7,6.9 C13.7,7.87 13.14,9.17 10.86,9.59 L10.86,9.7 C13.25,9.86 14.29,11.28 14.3,12.54 C14.3,14.47 12.94,16 9,16 L5,16 L5,15.3 Z M9,9.3 C11.19,9.3 11.8,8.5 11.85,7 C11.85,5.65 11.3,4.8 9,4.8 L7.67,4.8 L7.67,9.3 L9,9.3 Z M9.185,15.22 C11.97,15 12.39,14 12.4,12.58 C12.4,11.15 11.39,10 9,10 L7.67,10 L7.67,15 L9.18,15 Z"></path>
</svg>