<svg width="20" height="20" viewBox="0 0 20 20" xmlns="http://www.w3.org/2000/svg">
  <path d="m 5,15.3 c 0.66,0 0.9,-0.3 0.9,-0.77 V 5.5 C 5.9,4.92 5.56,4.7 5,4.7 V 4 h 3.95 c 3.65,0 4.75,1.37 4.75,2.9 0,0.97 -0.56,2.27 -2.84,2.69 V 9.7 c 2.39,0.16 3.43,1.58 3.44,2.84 C 14.3,14.47 12.94,16 9,16 H 5 Z m 4,-6 C 11.19,9.3 11.8,8.5 11.85,7 11.85,5.65 11.3,4.8 9,4.8 H 7.67 v 4.5 z m 3.4,3.28 C 12.4,11.15 11.39,10 9,10 H 7.67 l 0.027344,4.941406 C 9.7631554,15.002896 12.36004,14.573299 12.4,12.58 Z" />
</svg>