<svg version="1.1" width="20" height="20" viewBox="0 0 20 20" xmlns="http://www.w3.org/2000/svg">
  <g transform="matrix(0.05712654,0,0,0.05712654,10,10.111111)">
    <g style="opacity:1;fill:none;fill-rule:nonzero;stroke:none;stroke-width:0;stroke-linecap:butt;stroke-linejoin:miter;stroke-miterlimit:10;stroke-dasharray:none" transform="matrix(3.89,0,0,3.89,-175.05,-175.05)">
      <path d="M 26.103,46.529 9.41,64.149 c -0.092,0.97 0.351,1.705 1.9,1.793 l 16.692,-17.62 c -0.133,-1.3 -0.931,-1.708 -1.899,-1.793 z" style="opacity:1;fill:#000000;fill-rule:nonzero;stroke:none;stroke-width:1;stroke-linecap:butt;stroke-linejoin:miter;stroke-miterlimit:10;stroke-dasharray:none" stroke-linecap="round"/>
      <path d="m 43.409,52.88 -6.916,-6.611 c -1.18,-0.01 -1.73,0.703 -1.8,1.893 l 6.987,6.679 c 1.458,-0.025 2.001,-0.727 1.729,-1.961 z" style="opacity:1;fill:#000000;fill-rule:nonzero;stroke:none;stroke-width:1;stroke-linecap:butt;stroke-linejoin:miter;stroke-miterlimit:10;stroke-dasharray:none" stroke-linecap="round"/>
      <path d="m 6.197,65.855 c 1.977,0 3.585,1.608 3.585,3.585 0,1.977 -1.608,3.585 -3.585,3.585 -1.977,0 -3.585,-1.608 -3.585,-3.585 0,-1.977 1.608,-3.585 3.585,-3.585 m 0,-2.612 C 2.774,63.243 0,66.018 0,69.44 c 0,3.422 2.774,6.197 6.197,6.197 3.423,0 6.197,-2.774 6.197,-6.197 0,-3.423 -2.775,-6.197 -6.197,-6.197 z" style="opacity:1;fill:#000000;fill-rule:nonzero;stroke:none;stroke-width:1;stroke-linecap:butt;stroke-linejoin:miter;stroke-miterlimit:10;stroke-dasharray:none" stroke-linecap="round"/>
      <path d="m 31.216,39.446 c 1.977,0 3.585,1.608 3.585,3.585 0,1.977 -1.608,3.585 -3.585,3.585 -1.977,0 -3.585,-1.608 -3.585,-3.585 0,-1.977 1.608,-3.585 3.585,-3.585 m 0,-2.612 c -3.422,0 -6.197,2.774 -6.197,6.197 0,3.423 2.774,6.197 6.197,6.197 3.423,0 6.197,-2.774 6.197,-6.197 0,-3.423 -2.774,-6.197 -6.197,-6.197 z" style="opacity:1;fill:#000000;fill-rule:nonzero;stroke:none;stroke-width:1;stroke-linecap:butt;stroke-linejoin:miter;stroke-miterlimit:10;stroke-dasharray:none" stroke-linecap="round"/>
      <path d="m 47.089,54.272 c 1.977,0 3.585,1.608 3.585,3.585 0,1.977 -1.608,3.585 -3.585,3.585 -1.977,0 -3.585,-1.608 -3.585,-3.585 0,-1.977 1.609,-3.585 3.585,-3.585 m 0,-2.612 c -3.422,0 -6.197,2.774 -6.197,6.197 0,3.423 2.774,6.197 6.197,6.197 3.423,0 6.197,-2.774 6.197,-6.197 0,-3.423 -2.774,-6.197 -6.197,-6.197 z" style="opacity:1;fill:#000000;fill-rule:nonzero;stroke:none;stroke-width:1;stroke-linecap:butt;stroke-linejoin:miter;stroke-miterlimit:10;stroke-dasharray:none" stroke-linecap="round"/>
      <path d="m 83.803,15.975 c 1.977,0 3.585,1.608 3.585,3.585 0,1.977 -1.608,3.585 -3.585,3.585 -1.977,0 -3.585,-1.608 -3.585,-3.585 0,-1.977 1.608,-3.585 3.585,-3.585 m 0,-2.612 c -3.422,0 -6.197,2.774 -6.197,6.197 0,3.423 2.774,6.197 6.197,6.197 3.422,0 6.197,-2.774 6.197,-6.197 0,-3.423 -2.774,-6.197 -6.197,-6.197 z" style="opacity:1;fill:#000000;fill-rule:nonzero;stroke:none;stroke-width:1;stroke-linecap:butt;stroke-linejoin:miter;stroke-miterlimit:10;stroke-dasharray:none" stroke-linecap="round"/>
      <path d="m 81.208,24.026 c -0.133,-1.3 -0.931,-1.708 -1.9,-1.793 l -16.692,17.62 c 0,0 0,10e-4 0,10e-4 l -12.515,13.21 c -0.092,0.97 0.352,1.705 1.9,1.793 l 16.692,-17.62 c 0,0 0,0 0,-0.001 z" style="opacity:1;fill:#000000;fill-rule:nonzero;stroke:none;stroke-width:1;stroke-linecap:butt;stroke-linejoin:miter;stroke-miterlimit:10;stroke-dasharray:none" stroke-linecap="round"/>
    </g>
  </g>
</svg>