<svg width="20" height="20" viewBox="0 0 20 20" xmlns="http://www.w3.org/2000/svg">
    <path fill="none" stroke="#000" stroke-width="1.1" d="M6.5,14.61 L3.75,14.61 C1.96,14.61 0.5,13.17 0.5,11.39 C0.5,9.76 1.72,8.41 3.3,8.2 C3.38,5.31 5.75,3 8.68,3 C11.19,3 13.31,4.71 13.89,7.02 C14.39,6.8 14.93,6.68 15.5,6.68 C17.71,6.68 19.5,8.45 19.5,10.64 C19.5,12.83 17.71,14.6 15.5,14.6 L12.5,14.6"></path>
    <polyline fill="none" stroke="#000" points="11.75 16 9.5 18.25 7.25 16"></polyline>
    <path fill="none" stroke="#000" d="M9.5,18 L9.5,9.5"></path>
</svg>