<svg xmlns="http://www.w3.org/2000/svg" width="20" height="20" viewBox="0 0 20 20">
    <path d="M16.074,4.361a14.243,14.243,0,0,0-3.61-1.134,10.61,10.61,0,0,0-.463.96,13.219,13.219,0,0,0-4,0,10.138,10.138,0,0,0-.468-.96A14.206,14.206,0,0,0,3.919,4.364,15.146,15.146,0,0,0,1.324,14.5a14.435,14.435,0,0,0,4.428,2.269A10.982,10.982,0,0,0,6.7,15.21a9.294,9.294,0,0,1-1.494-.727c.125-.093.248-.19.366-.289a10.212,10.212,0,0,0,8.854,0c.119.1.242.2.366.289a9.274,9.274,0,0,1-1.5.728,10.8,10.8,0,0,0,.948,1.562,14.419,14.419,0,0,0,4.431-2.27A15.128,15.128,0,0,0,16.074,4.361Zm-8.981,8.1a1.7,1.7,0,0,1-1.573-1.79A1.689,1.689,0,0,1,7.093,8.881a1.679,1.679,0,0,1,1.573,1.791A1.687,1.687,0,0,1,7.093,12.462Zm5.814,0a1.7,1.7,0,0,1-1.573-1.79,1.689,1.689,0,0,1,1.573-1.791,1.679,1.679,0,0,1,1.573,1.791A1.688,1.688,0,0,1,12.907,12.462Z"/>
</svg>
