<svg width="20" height="20" viewBox="0 0 20 20" xmlns="http://www.w3.org/2000/svg">
    <path d="M15.68,1H3.81A1.81,1.81,0,0,0,2,2.81V14.68a1.81,1.81,0,0,0,1.81,1.81h10l-.47-1.62,1.14,1.05,1.07,1,1.91,1.65V2.81A1.82,1.82,0,0,0,15.68,1ZM12.26,12.46l-.58-.7a2.85,2.85,0,0,0,1.6-1,4.92,4.92,0,0,1-1,.52,6.23,6.23,0,0,1-3.58.37,6.5,6.5,0,0,1-1.3-.38,4.53,4.53,0,0,1-.64-.3l-.08,0,0,0-.25-.15a2.84,2.84,0,0,0,1.55,1c-.26.33-.59.72-.59.72a3.21,3.21,0,0,1-2.7-1.33A11.71,11.71,0,0,1,5.9,6,4.37,4.37,0,0,1,8.38,5.1l.09.1A5.91,5.91,0,0,0,6.15,6.36s.2-.11.52-.25a7,7,0,0,1,2-.56l.15,0a7.58,7.58,0,0,1,1.79,0,7.38,7.38,0,0,1,2.67.85,5.76,5.76,0,0,0-2.21-1.12l.13-.14A4.31,4.31,0,0,1,13.68,6,11.64,11.64,0,0,1,15,11.14,3.25,3.25,0,0,1,12.26,12.46Z"/>
    <path d="M8.14,8.36a1,1,0,1,0,.91,1A.94.94,0,0,0,8.14,8.36Zm3.23,0a1,1,0,1,0,.91,1A.94.94,0,0,0,11.37,8.36Z"/>
</svg>
