<svg viewBox="0 0 20 20" width="20" height="20" xmlns="http://www.w3.org/2000/svg">
  <path style="fill:none;stroke:#000000;stroke-width:1.02648px;stroke-linecap:butt;stroke-linejoin:miter;stroke-opacity:1" d="m 1.7296846,0.58823998 c -0.6646694,0 -1.21644304,0.44290502 -1.21644304,1.10757442 V 18.46407 c 0,0.405474 0.4546531,0.860154 0.86012744,0.860154 0,0 11.619782,0 16.910845,0 0.567301,0 1.202546,-0.637007 1.202546,-1.20431 0,-4.394645 0,-13.8310519 0,-13.8310519 L 15.879666,0.62456934 c 0,0 -9.8791553,-0.0363294 -14.1499814,-0.0363294 z"/>
  <path style="fill:none;stroke:#000000;stroke-width:1.02648px;stroke-linecap:butt;stroke-linejoin:miter;stroke-opacity:1" d="M 4.0206701,0.78495954 V 7.1988312 c 0,0.4366951 0.4456125,0.9684304 0.8823076,0.9684304 H 12.6824 c 0.503778,0 0.99205,-0.4946636 0.99205,-0.9984423 V 0.78495954"/>
  <path style="fill:none;stroke:#000000;stroke-width:1.02648px;stroke-linecap:butt;stroke-linejoin:miter;stroke-opacity:1" d="M 6.4303224,3.1178693 H 11.173702"/>
  <path style="fill:none;stroke:#000000;stroke-width:1.02648px;stroke-linecap:butt;stroke-linejoin:miter;stroke-opacity:1" d="M 6.4758701,5.5229632 H 11.21925"/>
  <path style="fill:none;stroke:#000000;stroke-width:1.02648px;stroke-linecap:butt;stroke-linejoin:miter;stroke-opacity:1" d="m 4.3319198,19.1238 v -4.682591 c 0,-0.519047 0.6188963,-1.062912 1.1379443,-1.062912 0,0 4.5301359,0 6.7810989,0 0.523823,0 1.112238,0.586329 1.112238,1.110153 0,1.412804 0,4.80237 0,4.80237"/>
</svg>