<svg width="20" height="20" viewBox="0 0 20 20" xmlns="http://www.w3.org/2000/svg">
    <path fill="none" stroke="#000" stroke-width="1.4" d="M1.3,8.9c0,0,5,0.1,8.6-1c1.4-0.4,2.6-0.9,4-1.9 c1.4-1.1,2.5-2.5,2.5-2.5" />
    <path fill="none" stroke="#000" stroke-width="1.4" d="M3.9,16.6c0,0,1.7-2.8,3.5-4.2 c1.8-1.3,4-2,5.7-2.2C16,10,19,10.6,19,10.6" />
    <path fill="none" stroke="#000" stroke-width="1.4" d="M6.9,1.6c0,0,3.3,4.6,4.2,6.8 c0.4,0.9,1.3,3.1,1.9,5.2c0.6,2,0.9,4.4,0.9,4.4" />
    <circle fill="none" stroke="#000" stroke-width="1.4" cx="10" cy="10" r="9" />
</svg>
