<svg xmlns="http://www.w3.org/2000/svg" width="20" height="20" viewBox="0 0 20 20">
    <path d="M8,4.26C8,4.07,8,4,8.31,4h4.46c.79,0,1.22.67,1.53,1.91l.25,1h.76c.14-2.82.26-4,.26-4S13.65,3,12.52,3H6.81L3.75,2.92v.84l1,.2c.73.11.9.27,1,1,0,0,.06,2,.06,5.17s-.06,5.14-.06,5.14c0,.59-.23.81-1,.94l-1,.2v.84l3.06-.1h5.11c1.15,0,3.82.1,3.82.1,0-.7.45-3.88.51-4.22h-.73l-.76,1.69a2.25,2.25,0,0,1-2.45,1.47H9.4c-1,0-1.44-.4-1.44-1.24V10.44s2.16,0,2.86.06c.55,0,.85.19,1.06,1l.23,1H13L12.9,9.94,13,7.41h-.85l-.28,1.13c-.16.74-.28.84-1,1-1,.1-2.89.09-2.89.09Z"/>
</svg>
