<svg xmlns="http://www.w3.org/2000/svg" width="20" height="20" viewBox="0 0 20 20">
    <path d="M7.49,3.23c0-.23,0-.37.41-.37h5.29c.93,0,1.44.79,1.81,2.27l.3,1.17h.9c.16-3.34.3-4.8.3-4.8s-2.27.25-3.61.25H6.13L2.5,1.64v1l1.22.23C4.58,3,4.79,3.19,4.86,4c0,0,.07,2.31.07,6.12s-.07,6.1-.07,6.1c0,.69-.28.95-1.14,1.11l-1.22.23v1l3.63-.12h6.05c1.36,0,4.53.12,4.53.12.06-.83.53-4.6.6-5h-.86l-.9,2a2.66,2.66,0,0,1-2.91,1.74H9.2c-1.16,0-1.71-.47-1.71-1.46V10.55s2.56,0,3.39.07c.65.05,1,.23,1.25,1.14l.28,1.2h1l-.07-3,.14-3h-1l-.33,1.34c-.2.88-.34,1-1.24,1.13-1.18.12-3.42.1-3.42.1Z"/>
</svg>
