<?xml version="1.0" encoding="UTF-8" standalone="no"?>
<svg
   xmlns:dc="http://purl.org/dc/elements/1.1/"
   xmlns:cc="http://creativecommons.org/ns#"
   xmlns:rdf="http://www.w3.org/1999/02/22-rdf-syntax-ns#"
   xmlns:svg="http://www.w3.org/2000/svg"
   xmlns="http://www.w3.org/2000/svg"
   width="20"
   height="20"
   viewBox="0 0 20 20"
   version="1.1"
   id="svg885">
  <metadata
     id="metadata891">
    <rdf:RDF>
      <cc:Work
         rdf:about="">
        <dc:format>image/svg+xml</dc:format>
        <dc:type
           rdf:resource="http://purl.org/dc/dcmitype/StillImage" />
        <dc:title></dc:title>
      </cc:Work>
    </rdf:RDF>
  </metadata>
  <defs
     id="defs889">
    <mask
       id="mask">
      <rect
         style="fill:#ffffff"
         width="100%"
         height="100%"
         id="rect2"
         x="0"
         y="0" />
      <path
         d="M 30,98 V 30 H 50 L 70,55 90,30 h 20 V 98 H 90 V 59 L 70,84 50,59 v 39 z"
         id="path4" />
      <path
         d="M 155,98 125,65 h 20 V 30 h 20 v 35 h 20 z"
         id="path6" />
    </mask>
  </defs>
  <rect
     fill="none"
     stroke="#000"
     width="13"
     height="17"
     x="3.5"
     y="1.5"
     id="rect881" />
  <path
     id="rect1739"
     style="fill:#000000;fill-opacity:0.97931;stroke:none;stroke-width:0.147452;stroke-linecap:round;stroke-linejoin:round;stroke-opacity:1;paint-order:markers stroke fill"
     d="m 10.551732,6.1289204 c -0.305659,-0.3056595 -0.7978046,-0.3056595 -1.1034642,0 L 4.9492797,10.627909 c -0.3056595,0.305659 -0.3056595,0.797804 0,1.103463 l 4.498988,4.498989 c 0.3056596,0.305659 0.7978053,0.305659 1.1034643,0 l 4.498989,-4.498988 c 0.305659,-0.30566 0.305659,-0.797805 0,-1.103464 L 14.467739,10.044926 10.002155,14.510508 6.6540459,11.162399 10.015086,7.8013586 11.119629,8.9059005 8.8469658,11.178563 9.9827583,12.314355 13.359963,8.9371511 Z" />
</svg>
