<svg width="20" height="20" viewBox="0 0 20 20" xmlns="http://www.w3.org/2000/svg">
    <path d="M2.47,13.11 C4.02,10.02 6.27,7.85 9.04,6.61 C9.48,6.41 10.27,6.13 11,5.91 L11,2 L18.89,9 L11,16 L11,12.13 C9.25,12.47 7.58,13.19 6.02,14.25 C3.03,16.28 1.63,18.54 1.63,18.54 C1.63,18.54 1.38,15.28 2.47,13.11 L2.47,13.11 Z M5.3,13.53 C6.92,12.4 9.04,11.4 12,10.92 L12,13.63 L17.36,9 L12,4.25 L12,6.8 C11.71,6.86 10.86,7.02 9.67,7.49 C6.79,8.65 4.58,10.96 3.49,13.08 C3.18,13.7 2.68,14.87 2.49,16 C3.28,15.05 4.4,14.15 5.3,13.53 L5.3,13.53 Z" />
</svg>