<svg width="20" height="20" viewBox="0 0 20 20" xmlns="http://www.w3.org/2000/svg">
    <path d="M15.23,2 C15.96,2 16.4,2.41 16.5,2.86 C16.57,3.15 16.56,3.44 16.51,3.73 C16.46,4.04 14.86,11.72 14.75,12.03 C14.56,12.56 14.16,12.82 13.61,12.83 C13.03,12.84 11.09,12.51 10.69,13 C10.38,13.38 7.79,16.39 6.81,17.53 C6.61,17.76 6.4,17.96 6.08,17.99 C5.68,18.04 5.29,17.87 5.17,17.45 C5.12,17.28 5.1,17.09 5.1,16.91 C5.1,12.4 4.86,7.81 5.11,3.31 C5.17,2.5 5.81,2.12 6.53,2 L15.23,2 L15.23,2 Z M9.76,11.42 C9.94,11.19 10.17,11.1 10.45,11.1 L12.86,11.1 C13.12,11.1 13.31,10.94 13.36,10.69 C13.37,10.64 13.62,9.41 13.74,8.83 C13.81,8.52 13.53,8.28 13.27,8.28 C12.35,8.29 11.42,8.28 10.5,8.28 C9.84,8.28 9.83,7.69 9.82,7.21 C9.8,6.85 10.13,6.55 10.5,6.55 C11.59,6.56 12.67,6.55 13.76,6.55 C14.03,6.55 14.23,6.4 14.28,6.14 C14.34,5.87 14.67,4.29 14.67,4.29 C14.67,4.29 14.82,3.74 14.19,3.74 L7.34,3.74 C7,3.75 6.84,4.02 6.84,4.33 C6.84,7.58 6.85,14.95 6.85,14.99 C6.87,15 8.89,12.51 9.76,11.42 L9.76,11.42 Z" />
</svg>