<svg width="20" height="20" viewBox="0 0 20 20" xmlns="http://www.w3.org/2000/svg">
    <path d="M10,0.5 C4.75,0.5 0.5,4.76 0.5,10.01 C0.5,15.26 4.75,19.51 10,19.51 C15.24,19.51 19.5,15.26 19.5,10.01 C19.5,4.76 15.25,0.5 10,0.5 L10,0.5 Z M12.81,17.69 C12.81,17.69 12.81,17.7 12.79,17.69 C12.47,17.75 12.35,17.59 12.35,17.36 L12.35,16.17 C12.35,15.45 12.09,14.92 11.58,14.56 C12.2,14.51 12.77,14.39 13.26,14.21 C13.87,13.98 14.36,13.69 14.74,13.29 C15.42,12.59 15.76,11.55 15.76,10.17 C15.76,9.25 15.45,8.46 14.83,7.8 C15.1,7.08 15.07,6.29 14.75,5.44 L14.51,5.42 C14.34,5.4 14.06,5.46 13.67,5.61 C13.25,5.78 12.79,6.03 12.31,6.35 C11.55,6.16 10.81,6.05 10.09,6.05 C9.36,6.05 8.61,6.15 7.88,6.35 C7.28,5.96 6.75,5.68 6.26,5.54 C6.07,5.47 5.9,5.44 5.78,5.44 L5.42,5.44 C5.06,6.29 5.04,7.08 5.32,7.8 C4.7,8.46 4.4,9.25 4.4,10.17 C4.4,11.94 4.96,13.16 6.08,13.84 C6.53,14.13 7.05,14.32 7.69,14.43 C8.03,14.5 8.32,14.54 8.55,14.55 C8.07,14.89 7.82,15.42 7.82,16.16 L7.82,17.51 C7.8,17.69 7.7,17.8 7.51,17.8 C4.21,16.74 1.82,13.65 1.82,10.01 C1.82,5.5 5.49,1.83 10,1.83 C14.5,1.83 18.17,5.5 18.17,10.01 C18.18,13.53 15.94,16.54 12.81,17.69 L12.81,17.69 Z" />
</svg>