<svg width="20" height="20" viewBox="0 0 20 20" xmlns="http://www.w3.org/2000/svg">
    <path d="M17.86,9.09 C18.46,12.12 17.14,16.05 13.81,17.56 C9.45,19.53 4.13,17.68 2.47,12.87 C0.68,7.68 4.22,2.42 9.5,2.03 C11.57,1.88 13.42,2.37 15.05,3.65 C15.22,3.78 15.37,3.93 15.61,4.14 C14.9,4.81 14.23,5.45 13.5,6.14 C12.27,5.08 10.84,4.72 9.28,4.98 C8.12,5.17 7.16,5.76 6.37,6.63 C4.88,8.27 4.62,10.86 5.76,12.82 C6.95,14.87 9.17,15.8 11.57,15.25 C13.27,14.87 14.76,13.33 14.89,11.75 L10.51,11.75 L10.51,9.09 L17.86,9.09 L17.86,9.09 Z" />
</svg>