<svg width="20" height="20" viewBox="0 0 20 20" xmlns="http://www.w3.org/2000/svg">
    <path d="M7.8,13.4l1.7-1.7L5.9,8c-0.6-0.5-0.6-1.5,0-2c0.6-0.6,1.4-0.6,2,0l1.7-1.7c-1-1-2.3-1.3-3.6-1C5.8,2.2,4.8,1.4,3.7,1.4 c-1.3,0-2.3,1-2.3,2.3c0,1.1,0.8,2,1.8,2.3c-0.4,1.3-0.1,2.8,1,3.8L7.8,13.4L7.8,13.4z" />
    <path d="M10.2,4.3c1-1,2.5-1.4,3.8-1c0.2-1.1,1.1-2,2.3-2c1.3,0,2.3,1,2.3,2.3c0,1.2-0.9,2.2-2,2.3c0.4,1.3,0,2.8-1,3.8L13.9,8 c0.6-0.5,0.6-1.5,0-2c-0.5-0.6-1.5-0.6-2,0L8.2,9.7L6.5,8" />
    <path d="M14.1,16.8c-1.3,0.4-2.8,0.1-3.8-1l1.7-1.7c0.6,0.6,1.5,0.6,2,0c0.5-0.6,0.6-1.5,0-2l-3.7-3.7L12,6.7l3.7,3.7 c1,1,1.3,2.4,1,3.6c1.1,0.2,2,1.1,2,2.3c0,1.3-1,2.3-2.3,2.3C15.2,18.6,14.3,17.8,14.1,16.8" />
    <path d="M13.2,12.2l-3.7,3.7c-1,1-2.4,1.3-3.6,1c-0.2,1-1.2,1.8-2.2,1.8c-1.3,0-2.3-1-2.3-2.3c0-1.1,0.8-2,1.8-2.3 c-0.3-1.3,0-2.7,1-3.7l1.7,1.7c-0.6,0.6-0.6,1.5,0,2c0.6,0.6,1.4,0.6,2,0l3.7-3.7" />
</svg>
