<svg width="20" height="20" viewBox="0 0 20 20" xmlns="http://www.w3.org/2000/svg">
    <path d="M8,14.3c-1-0.2-2-0.6-2.8-1.2c-0.7-0.4-0.9-1.3-0.5-2c0.4-0.7,1.3-0.9,2-0.4c2,1.3,4.6,1.3,6.6,0c0.7-0.4,1.6-0.2,2,0.4 c0.4,0.7,0.2,1.6-0.4,2c-0.9,0.6-1.8,0.9-2.8,1.2l2.7,2.7c0.6,0.6,0.6,1.5,0,2c-0.3,0.3-0.6,0.4-1,0.4c-0.4,0-0.7-0.1-1-0.4L10,16.4 l-2.7,2.7c-0.6,0.6-1.5,0.6-2,0c-0.6-0.6-0.6-1.5,0-2L8,14.3"></path>
    <path d="M10,3.4c-1.1,0-2,0.9-2,2s0.9,2,2,2s2-0.9,2-2S11.1,3.4,10,3.4z M10,10.3c-2.7,0-4.9-2.2-4.9-4.9c0-2.7,2.2-4.9,4.9-4.9 c2.7,0,4.9,2.2,4.9,4.9C14.9,8.1,12.7,10.3,10,10.3z"></path>
</svg>
