<svg width="20" height="20" viewBox="0 0 20 20" xmlns="http://www.w3.org/2000/svg">
    <path d="M10.21,1 C5.5,1 3,4.16 3,7.61 C3,9.21 3.85,11.2 5.22,11.84 C5.43,11.94 5.54,11.89 5.58,11.69 C5.62,11.54 5.8,10.8 5.88,10.45 C5.91,10.34 5.89,10.24 5.8,10.14 C5.36,9.59 5,8.58 5,7.65 C5,5.24 6.82,2.91 9.93,2.91 C12.61,2.91 14.49,4.74 14.49,7.35 C14.49,10.3 13,12.35 11.06,12.35 C9.99,12.35 9.19,11.47 9.44,10.38 C9.75,9.08 10.35,7.68 10.35,6.75 C10.35,5.91 9.9,5.21 8.97,5.21 C7.87,5.21 6.99,6.34 6.99,7.86 C6.99,8.83 7.32,9.48 7.32,9.48 C7.32,9.48 6.24,14.06 6.04,14.91 C5.7,16.35 6.08,18.7 6.12,18.9 C6.14,19.01 6.26,19.05 6.33,18.95 C6.44,18.81 7.74,16.85 8.11,15.44 C8.24,14.93 8.79,12.84 8.79,12.84 C9.15,13.52 10.19,14.09 11.29,14.09 C14.58,14.09 16.96,11.06 16.96,7.3 C16.94,3.7 14,1 10.21,1" />
</svg>