<svg width="20" height="20" viewBox="0 0 20 20" xmlns="http://www.w3.org/2000/svg">
    <path d="M17.27,7.79 C17.27,9.45 16.97,10.43 15.99,12.02 C14.98,13.64 13,15.23 11.56,15.97 L11.1,15.08 C12.34,14.2 13.14,13.51 14.02,11.82 C14.27,11.34 14.41,10.92 14.49,10.54 C14.3,10.58 14.09,10.6 13.88,10.6 C12.06,10.6 10.59,9.12 10.59,7.3 C10.59,5.48 12.06,4 13.88,4 C15.39,4 16.67,5.02 17.05,6.42 C17.19,6.82 17.27,7.27 17.27,7.79 L17.27,7.79 Z" />
    <path d="M8.68,7.79 C8.68,9.45 8.38,10.43 7.4,12.02 C6.39,13.64 4.41,15.23 2.97,15.97 L2.51,15.08 C3.75,14.2 4.55,13.51 5.43,11.82 C5.68,11.34 5.82,10.92 5.9,10.54 C5.71,10.58 5.5,10.6 5.29,10.6 C3.47,10.6 2,9.12 2,7.3 C2,5.48 3.47,4 5.29,4 C6.8,4 8.08,5.02 8.46,6.42 C8.6,6.82 8.68,7.27 8.68,7.79 L8.68,7.79 Z" />
</svg>