<svg width="20" height="20" viewBox="0 0 20 20" xmlns="http://www.w3.org/2000/svg">
    <path d="M2,12.2c0-1.7,0.3-2.6,1.3-4.2c1-1.6,3-3.2,4.4-3.9l0.5,0.9c-1.2,0.9-2,1.6-2.9,3.3C5,8.6,4.9,9,4.8,9.4 c0.2,0,0.4-0.1,0.6-0.1c1.8,0,3.3,1.5,3.3,3.3S7.2,16,5.4,16c-1.5,0-2.8-1-3.2-2.4C2.1,13.1,2,12.7,2,12.2L2,12.2z"/>
    <path d="M10.6,12.2c0-1.7,0.3-2.6,1.3-4.2c1-1.6,3-3.2,4.4-3.9l0.5,0.9c-1.2,0.9-2,1.6-2.9,3.3c-0.2,0.5-0.4,0.9-0.5,1.3 c0.2,0,0.4-0.1,0.6-0.1c1.8,0,3.3,1.5,3.3,3.3S15.8,16,14,16c-1.5,0-2.8-1-3.2-2.4C10.7,13.1,10.6,12.7,10.6,12.2L10.6,12.2z"/>
</svg>
