<svg width="20" height="20" viewBox="0 0 20 20" xmlns="http://www.w3.org/2000/svg">
    <path d="M19 9.05a2.56 2.56 0 0 0-2.56-2.56 2.59 2.59 0 0 0-1.88.82 10.63 10.63 0 0 0-4.14-1v-.08c.58-1.62 1.58-3.89 2.7-4.1.38-.08.77.12 1.19.57a1.15 1.15 0 0 0-.06.37 1.48 1.48 0 1 0 1.51-1.45 1.43 1.43 0 0 0-.76.19A2.29 2.29 0 0 0 12.91 1c-2.11.43-3.39 4.38-3.63 5.19 0 0 0 .11-.06.11a10.65 10.65 0 0 0-3.75 1A2.56 2.56 0 0 0 1 9.05a2.42 2.42 0 0 0 .72 1.76A5.18 5.18 0 0 0 1.24 13c0 3.66 3.92 6.64 8.73 6.64s8.74-3 8.74-6.64a5.23 5.23 0 0 0-.46-2.13A2.58 2.58 0 0 0 19 9.05zm-16.88 0a1.44 1.44 0 0 1 2.27-1.19 7.68 7.68 0 0 0-2.07 1.91 1.33 1.33 0 0 1-.2-.72zM10 18.4c-4.17 0-7.55-2.4-7.55-5.4S5.83 7.53 10 7.53 17.5 10 17.5 13s-3.38 5.4-7.5 5.4zm7.69-8.61a7.62 7.62 0 0 0-2.09-1.91 1.41 1.41 0 0 1 .84-.28 1.47 1.47 0 0 1 1.44 1.45 1.34 1.34 0 0 1-.21.72z" />
    <path d="M6.69 12.58a1.39 1.39 0 1 1 1.39-1.39 1.38 1.38 0 0 1-1.38 1.39z" />
    <path d="M14.26 11.2a1.39 1.39 0 1 1-1.39-1.39 1.39 1.39 0 0 1 1.39 1.39z" />
    <path d="M13.09 14.88a.54.54 0 0 1-.09.77 5.3 5.3 0 0 1-3.26 1.19 5.61 5.61 0 0 1-3.4-1.22.55.55 0 1 1 .73-.83 4.09 4.09 0 0 0 5.25 0 .56.56 0 0 1 .77.09z" />
</svg>
