<svg width="20" height="20" viewBox="0 0 20 20" xmlns="http://www.w3.org/2000/svg">
    <path d="M17.7,13.11 C16.12,10.02 13.84,7.85 11.02,6.61 C10.57,6.41 9.75,6.13 9,5.91 L9,2 L1,9 L9,16 L9,12.13 C10.78,12.47 12.5,13.19 14.09,14.25 C17.13,16.28 18.56,18.54 18.56,18.54 C18.56,18.54 18.81,15.28 17.7,13.11 L17.7,13.11 Z M14.82,13.53 C13.17,12.4 11.01,11.4 8,10.92 L8,13.63 L2.55,9 L8,4.25 L8,6.8 C8.3,6.86 9.16,7.02 10.37,7.49 C13.3,8.65 15.54,10.96 16.65,13.08 C16.97,13.7 17.48,14.86 17.68,16 C16.87,15.05 15.73,14.15 14.82,13.53 L14.82,13.53 Z" />
</svg>