<svg width="20" height="20" viewBox="0 0 20 20" xmlns="http://www.w3.org/2000/svg">
    <path d="m7.86,1.34l.2.81c-.79.19-1.54.51-2.24.93l-.43-.71c.77-.46,1.6-.81,2.47-1.02Zm4.28,0l-.2.81c.79.19,1.54.51,2.24.93l.43-.72c-.77-.46-1.6-.81-2.47-1.02h0ZM2.37,5.39c-.46.77-.81,1.6-1.02,2.47l.81.2c.19-.79.51-1.54.93-2.24l-.71-.43Zm-.45,4.61c0-.41.03-.81.09-1.21l-.83-.13c-.13.89-.13,1.79,0,2.67l.83-.13c-.06-.4-.09-.81-.09-1.21h0Zm12.69,7.63l-.43-.72c-.7.42-1.45.73-2.24.93l.2.81c.87-.21,1.7-.56,2.46-1.02h0Zm3.47-7.63c0,.41-.03.81-.09,1.21l.83.13c.13-.89.13-1.79,0-2.67l-.83.13c.06.4.09.81.09,1.21Zm.58,2.14l-.81-.2c-.19.79-.51,1.54-.93,2.24l.72.43c.46-.77.81-1.6,1.02-2.47h0Zm-7.44,5.85c-.8.12-1.62.12-2.42,0l-.13.83c.89.13,1.79.13,2.67,0l-.13-.83Zm5.29-3.2c-.48.65-1.06,1.23-1.71,1.71l.5.67c.72-.53,1.36-1.16,1.89-1.88l-.67-.5Zm-1.71-11.29c.65.48,1.23,1.06,1.71,1.71l.67-.5c-.53-.72-1.17-1.35-1.88-1.88l-.5.67Zm-11.29,1.71c.48-.65,1.06-1.23,1.71-1.71l-.5-.67c-.72.53-1.35,1.17-1.88,1.88l.67.5Zm14.14.18l-.72.43c.42.7.73,1.45.93,2.24l.81-.2c-.21-.87-.56-1.7-1.02-2.46h0Zm-8.84-3.38c.8-.12,1.62-.12,2.42,0l.13-.83c-.89-.13-1.79-.13-2.67,0l.13.83Zm-4.86,15.38l-1.73.4.4-1.73-.81-.19-.4,1.73c-.07.28.02.58.22.78s.5.29.78.22l1.73-.39-.19-.82Zm-1.96-2.26l.81.19.28-1.2c-.41-.68-.71-1.42-.9-2.19l-.81.2c.18.74.46,1.45.82,2.12l-.2.88Zm3.9,1.81l-1.19.28.19.81.88-.2c.67.36,1.38.64,2.12.82l.2-.81c-.77-.19-1.51-.5-2.19-.9h0ZM10,2.75c-2.63,0-5.06,1.43-6.34,3.74s-1.19,5.12.21,7.36l-.7,2.97,2.97-.7c2.61,1.64,5.96,1.46,8.37-.46s3.34-5.15,2.32-8.06c-1.02-2.91-3.77-4.85-6.85-4.85Z" />
</svg>
