<svg width="20" height="20" viewBox="0 0 20 20" xmlns="http://www.w3.org/2000/svg">
    <path d="M6,13.02 L6.65,13.02 C7.64,15.16 8.86,16.12 10.41,16.12 C12.22,16.12 12.92,14.93 12.92,13.89 C12.92,12.55 11.99,12.03 9.74,11.23 C8.05,10.64 6.23,10.11 6.23,7.83 C6.23,5.5 8.09,4.09 10.4,4.09 C11.44,4.09 12.13,4.31 12.72,4.54 L13.33,4 L13.81,4 L13.81,7.59 L13.16,7.59 C12.55,5.88 11.52,4.89 10.07,4.89 C8.84,4.89 7.89,5.69 7.89,7.03 C7.89,8.29 8.89,8.78 10.88,9.45 C12.57,10.03 14.38,10.6 14.38,12.91 C14.38,14.75 13.27,16.93 10.18,16.93 C9.18,16.93 8.17,16.69 7.46,16.39 L6.52,17 L6,17 L6,13.02 L6,13.02 Z" />
    <rect x="3" y="10" width="15" height="1" />
</svg>