<svg width="20" height="20" viewBox="0 0 20 20" xmlns="http://www.w3.org/2000/svg">
    <path d="m10,1.09C5.08,1.09,1.09,5.08,1.09,10s3.99,8.91,8.91,8.91,8.91-3.99,8.91-8.91S14.92,1.09,10,1.09Zm4.25,5.8c-.03.36-.23,1.62-.44,2.99-.31,1.93-.64,4.04-.64,4.04,0,0-.05.59-.49.7s-1.16-.36-1.29-.46c-.1-.08-1.93-1.24-2.6-1.8-.18-.15-.39-.46.03-.82.93-.85,2.04-1.91,2.7-2.58.31-.31.62-1.03-.67-.15-1.83,1.26-3.63,2.45-3.63,2.45,0,0-.41.26-1.19.03-.77-.23-1.67-.54-1.67-.54,0,0-.62-.39.44-.8h0s4.46-1.83,6-2.47c.59-.26,2.6-1.08,2.6-1.08,0,0,.93-.36.85.52Z" />
</svg>
