<svg width="20" height="20" viewBox="0 0 20 20" xmlns="http://www.w3.org/2000/svg">
    <path d="m14.47,9.29c-.08-.04-.16-.08-.25-.11-.14-2.66-1.6-4.18-4.04-4.2-.01,0-.02,0-.03,0-1.46,0-2.67.62-3.42,1.76l1.34.92c.56-.85,1.43-1.03,2.08-1.03,0,0,.01,0,.02,0,.8,0,1.41.24,1.8.69.29.33.48.79.57,1.37-.71-.12-1.48-.16-2.31-.11-2.32.13-3.81,1.49-3.71,3.37.05.95.53,1.77,1.34,2.31.69.45,1.57.67,2.49.62,1.21-.07,2.16-.53,2.83-1.38.5-.64.82-1.48.96-2.52.58.35,1.01.81,1.24,1.36.4.94.43,2.48-.83,3.74-1.1,1.1-2.43,1.58-4.43,1.59-2.22-.02-3.9-.73-4.99-2.12-1.02-1.3-1.55-3.18-1.57-5.58.02-2.4.55-4.28,1.57-5.58,1.09-1.39,2.77-2.1,4.99-2.12,2.24.02,3.95.73,5.08,2.13.56.68.98,1.54,1.25,2.55l1.57-.42c-.33-1.23-.86-2.3-1.58-3.18-1.45-1.79-3.58-2.7-6.32-2.72h-.01c-2.73.02-4.84.94-6.25,2.73-1.26,1.6-1.9,3.82-1.93,6.61h0s0,.01,0,.01c.02,2.79.67,5.01,1.93,6.61,1.41,1.8,3.51,2.71,6.25,2.73h.01c2.43-.02,4.14-.65,5.55-2.06,1.85-1.84,1.79-4.16,1.18-5.58-.44-1.02-1.27-1.84-2.41-2.39Zm-4.2,3.95c-1.02.06-2.07-.4-2.12-1.38-.04-.72.52-1.53,2.19-1.63.19-.01.38-.02.56-.02.61,0,1.17.06,1.69.17-.19,2.41-1.32,2.8-2.32,2.85Z" />
</svg>
