<svg width="20" height="20" viewBox="0 0 20 20" xmlns="http://www.w3.org/2000/svg">
	<path d="M19.021,7.866C19.256,6.862,20,5.854,20,5.854h-3.346C14.781,4.641,12.504,4,9.98,4C7.363,4,4.999,4.651,3.135,5.876H0
	c0,0,0.738,0.987,0.976,1.988c-0.611,0.837-0.973,1.852-0.973,2.964c0,2.763,2.249,5.009,5.011,5.009
	c1.576,0,2.976-0.737,3.901-1.879l1.063,1.599l1.075-1.615c0.475,0.611,1.1,1.111,1.838,1.451c1.213,0.547,2.574,0.612,3.825,0.15
	c2.589-0.963,3.913-3.852,2.964-6.439c-0.175-0.463-0.4-0.876-0.675-1.238H19.021z M16.38,14.594
	c-1.002,0.371-2.088,0.328-3.06-0.119c-0.688-0.317-1.252-0.817-1.657-1.438c-0.164-0.25-0.313-0.52-0.417-0.811
	c-0.124-0.328-0.186-0.668-0.217-1.014c-0.063-0.689,0.037-1.396,0.339-2.043c0.448-0.971,1.251-1.71,2.25-2.079
	c2.075-0.765,4.375,0.3,5.14,2.366c0.762,2.066-0.301,4.37-2.363,5.134L16.38,14.594L16.38,14.594z M8.322,13.066
	c-0.72,1.059-1.935,1.76-3.309,1.76c-2.207,0-4.001-1.797-4.001-3.996c0-2.203,1.795-4.002,4.001-4.002
	c2.204,0,3.999,1.8,3.999,4.002c0,0.137-0.024,0.261-0.04,0.396c-0.067,0.678-0.284,1.313-0.648,1.853v-0.013H8.322z M2.472,10.775
	c0,1.367,1.112,2.479,2.476,2.479c1.363,0,2.472-1.11,2.472-2.479c0-1.359-1.11-2.468-2.472-2.468
	C3.584,8.306,2.473,9.416,2.472,10.775L2.472,10.775z M12.514,10.775c0,1.367,1.104,2.479,2.471,2.479
	c1.363,0,2.474-1.108,2.474-2.479c0-1.359-1.11-2.468-2.474-2.468c-1.364,0-2.477,1.109-2.477,2.468H12.514z M3.324,10.775
	c0-0.893,0.726-1.618,1.614-1.618c0.889,0,1.625,0.727,1.625,1.618c0,0.898-0.725,1.627-1.625,1.627
	c-0.901,0-1.625-0.729-1.625-1.627H3.324z M13.354,10.775c0-0.893,0.726-1.618,1.627-1.618c0.886,0,1.61,0.727,1.61,1.618
	c0,0.898-0.726,1.627-1.626,1.627s-1.625-0.729-1.625-1.627H13.354z M9.977,4.875c1.798,0,3.425,0.324,4.849,0.968
	c-0.535,0.015-1.061,0.108-1.586,0.3c-1.264,0.463-2.264,1.388-2.815,2.604c-0.262,0.551-0.398,1.133-0.448,1.72
	C9.79,7.905,7.677,5.873,5.076,5.82C6.501,5.208,8.153,4.875,9.94,4.875H9.977z" />
</svg>
