<svg width="20" height="20" viewBox="0 0 20 20" xmlns="http://www.w3.org/2000/svg">
	<path d="M6.885,8.598c0,0,0,3.393,0,4.996c0,0.282,0,0.66,0.094,0.942c0.377,1.509,1.131,2.545,2.545,3.11 c1.319,0.472,2.356,0.472,3.676,0c0.565-0.188,1.132-0.659,1.132-0.659l-0.849-2.263c0,0-1.036,0.378-1.603,0.283 c-0.565-0.094-1.226-0.66-1.226-1.508c0-1.603,0-4.902,0-4.902h2.828V5.771h-2.828V2H8.205c0,0-0.094,0.66-0.188,0.942 C7.828,3.791,7.262,4.733,6.603,5.394C5.848,6.147,5,6.43,5,6.43v2.168H6.885z" />
</svg>
