<svg width="20" height="20" viewBox="0 0 20 20" xmlns="http://www.w3.org/2000/svg">
	<path d="M2.065,7.59C1.84,7.367,1.654,7.082,1.468,6.838c-0.332-0.42-0.137-0.411,0.274-0.772c1.026-0.91,2.004-1.896,3.127-2.688 c1.017-0.713,2.365-1.173,3.286-0.039c0.849,1.045,0.869,2.629,1.084,3.891c0.215,1.309,0.421,2.648,0.88,3.901 c0.127,0.352,0.37,1.018,0.81,1.074c0.567,0.078,1.145-0.917,1.408-1.289c0.684-0.987,1.611-2.317,1.494-3.587 c-0.115-1.349-1.572-1.095-2.482-0.773c0.146-1.514,1.555-3.216,2.912-3.792c1.439-0.597,3.579-0.587,4.302,1.036 c0.772,1.759,0.078,3.802-0.763,5.396c-0.918,1.731-2.1,3.333-3.363,4.829c-1.114,1.329-2.432,2.787-4.093,3.422 c-1.897,0.723-3.021-0.686-3.667-2.318c-0.705-1.777-1.056-3.771-1.565-5.621C4.898,8.726,4.644,7.836,4.136,7.191 C3.473,6.358,2.72,7.141,2.065,7.59C1.977,7.502,2.115,7.551,2.065,7.59L2.065,7.59z"></path>
</svg>
