<svg width="20" height="20" viewBox="0 0 20 20" xmlns="http://www.w3.org/2000/svg">
    <path d="M9.8,15.1h1.1c0,0,0.3,0,0.5-0.2c0.2-0.2,0.2-0.5,0.2-0.5s0-1.4,0.7-1.7c0.7-0.2,1.5,1.4,2.4,2c0.7,0.5,1.2,0.4,1.2,0.4 l2.4,0c0,0,1.3-0.1,0.7-1.1c0-0.1-0.3-0.7-1.8-2.1c-1.5-1.4-1.3-1.2,0.5-3.6C18.7,6.9,19.1,6,19,5.6c-0.1-0.4-0.9-0.3-0.9-0.3 l-2.7,0c0,0-0.2,0-0.3,0.1c-0.1,0.1-0.2,0.3-0.2,0.3s-0.4,1.1-1,2.1c-1.2,2-1.7,2.2-1.9,2c-0.5-0.3-0.3-1.2-0.3-1.8 c0-2,0.3-2.8-0.6-3c-0.3-0.1-0.5-0.1-1.3-0.1c-1,0-1.8,0-2.2,0.2C7.1,5.3,6.9,5.6,7,5.6c0.2,0,0.6,0.1,0.8,0.4 c0.3,0.4,0.3,1.2,0.3,1.2s0.2,2.3-0.4,2.6c-0.4,0.2-0.9-0.2-1.9-2.1c-0.6-0.9-1-2-1-2S4.7,5.6,4.6,5.5C4.4,5.4,4.2,5.3,4.2,5.3 l-2.6,0c0,0-0.4,0-0.5,0.2C1,5.7,1.1,6,1.1,6s2,4.7,4.3,7.1C7.5,15.3,9.8,15.1,9.8,15.1L9.8,15.1z" />
</svg>
