<svg width="20" height="20" viewBox="0 0 20 20" xmlns="http://www.w3.org/2000/svg">
    <circle cx="10" cy="14" r="1"></circle>
    <circle fill="none" stroke="#000" stroke-width="1.1" cx="10" cy="10" r="9"></circle>
    <path d="M10.97,7.72 C10.85,9.54 10.56,11.29 10.56,11.29 C10.51,11.87 10.27,12 9.99,12 C9.69,12 9.49,11.87 9.43,11.29 C9.43,11.29 9.16,9.54 9.03,7.72 C8.96,6.54 9.03,6 9.03,6 C9.03,5.45 9.46,5.02 9.99,5 C10.53,5.01 10.97,5.44 10.97,6 C10.97,6 11.04,6.54 10.97,7.72 L10.97,7.72 Z"></path>
</svg>
