<svg width="20" height="20" viewBox="0 0 20 20" xmlns="http://www.w3.org/2000/svg">
    <path d="M10,0.5c-5.2,0-9.5,4.3-9.5,9.5s4.3,9.5,9.5,9.5c5.2,0,9.5-4.3,9.5-9.5S15.2,0.5,10,0.5L10,0.5L10,0.5z M15.6,3.9h-0.1 c-0.8,0-1.4,0.7-1.4,1.5c0,0.7,0.4,1.3,0.8,1.9c0.3,0.6,0.7,1.3,0.7,2.3c0,0.7-0.3,1.5-0.6,2.7L14.1,15l-3-8.9 c0.5,0,0.9-0.1,0.9-0.1C12.5,6,12.5,5.3,12,5.4c0,0-1.3,0.1-2.2,0.1C9,5.5,7.7,5.4,7.7,5.4C7.2,5.3,7.2,6,7.6,6c0,0,0.4,0.1,0.9,0.1 l1.3,3.5L8,15L5,6.1C5.5,6.1,5.9,6,5.9,6C6.4,6,6.3,5.3,5.9,5.4c0,0-1.3,0.1-2.2,0.1c-0.2,0-0.3,0-0.5,0c1.5-2.2,4-3.7,6.9-3.7 C12.2,1.7,14.1,2.6,15.6,3.9L15.6,3.9L15.6,3.9z M2.5,6.6l3.9,10.8c-2.7-1.3-4.6-4.2-4.6-7.4C1.8,8.8,2,7.6,2.5,6.6L2.5,6.6L2.5,6.6 z M10.2,10.7l2.5,6.9c0,0,0,0.1,0.1,0.1C11.9,18,11,18.2,10,18.2c-0.8,0-1.6-0.1-2.3-0.3L10.2,10.7L10.2,10.7L10.2,10.7z M14.2,17.1 l2.5-7.3c0.5-1.2,0.6-2.1,0.6-2.9c0-0.3,0-0.6-0.1-0.8c0.6,1.2,1,2.5,1,4C18.3,13,16.6,15.7,14.2,17.1L14.2,17.1L14.2,17.1z" />
</svg>
