<svg width="20" height="20" viewBox="0 0 20 20" xmlns="http://www.w3.org/2000/svg">
    <path d="M4.4,4.56 C4.24,4.56 4.11,4.61 4.05,4.72 C3.98,4.83 3.99,4.97 4.07,5.12 L5.82,8.16 L5.82,8.17 L3.06,13.04 C2.99,13.18 2.99,13.33 3.06,13.44 C3.12,13.55 3.24,13.62 3.4,13.62 L6,13.62 C6.39,13.62 6.57,13.36 6.71,13.12 C6.71,13.12 9.41,8.35 9.51,8.16 C9.49,8.14 7.72,5.04 7.72,5.04 C7.58,4.81 7.39,4.56 6.99,4.56 L4.4,4.56 L4.4,4.56 Z"></path>
    <path d="M15.3,1 C14.91,1 14.74,1.25 14.6,1.5 C14.6,1.5 9.01,11.42 8.82,11.74 C8.83,11.76 12.51,18.51 12.51,18.51 C12.64,18.74 12.84,19 13.23,19 L15.82,19 C15.98,19 16.1,18.94 16.16,18.83 C16.23,18.72 16.23,18.57 16.16,18.43 L12.5,11.74 L12.5,11.72 L18.25,1.56 C18.32,1.42 18.32,1.27 18.25,1.16 C18.21,1.06 18.08,1 17.93,1 L15.3,1 L15.3,1 Z"></path>
</svg>