<svg width="20" height="20" viewBox="0 0 20 20" xmlns="http://www.w3.org/2000/svg">
	<path d="M17.175,14.971c-0.112,0.77-1.686,2.767-2.406,3.054c-0.246,0.1-0.487,0.076-0.675-0.069
	c-0.122-0.096-2.446-3.859-2.446-3.859c-0.194-0.293-0.157-0.682,0.083-0.978c0.234-0.284,0.581-0.393,0.881-0.276
	c0.016,0.01,4.21,1.394,4.332,1.482c0.178,0.148,0.263,0.379,0.225,0.646L17.175,14.971L17.175,14.971z M11.464,10.789
	c-0.203-0.307-0.199-0.666,0.009-0.916c0,0,2.625-3.574,2.745-3.657c0.203-0.135,0.452-0.141,0.69-0.025
	c0.691,0.335,2.085,2.405,2.167,3.199v0.027c0.024,0.271-0.082,0.491-0.273,0.623c-0.132,0.083-4.43,1.155-4.43,1.155
	c-0.322,0.096-0.68-0.06-0.882-0.381L11.464,10.789z M9.475,9.563C9.32,9.609,8.848,9.757,8.269,8.817c0,0-3.916-6.16-4.007-6.351
	c-0.057-0.212,0.011-0.455,0.202-0.65C5.047,1.211,8.21,0.327,9.037,0.529c0.27,0.069,0.457,0.238,0.522,0.479
	c0.047,0.266,0.433,5.982,0.488,7.264C10.098,9.368,9.629,9.517,9.475,9.563z M9.927,19.066c-0.083,0.225-0.273,0.373-0.54,0.421
	c-0.762,0.13-3.15-0.751-3.647-1.342c-0.096-0.131-0.155-0.262-0.167-0.394c-0.011-0.095,0-0.189,0.036-0.272
	c0.061-0.155,2.917-3.538,2.917-3.538c0.214-0.272,0.595-0.355,0.952-0.213c0.345,0.13,0.56,0.428,0.536,0.749
	C10.014,14.479,9.977,18.923,9.927,19.066z M3.495,13.912c-0.235-0.009-0.444-0.148-0.568-0.382c-0.089-0.17-0.151-0.453-0.19-0.794
	C2.63,11.701,2.761,10.144,3.07,9.648c0.145-0.226,0.357-0.345,0.592-0.336c0.154,0,4.255,1.667,4.255,1.667
	c0.321,0.118,0.521,0.453,0.5,0.833c-0.023,0.37-0.236,0.655-0.551,0.738L3.495,13.912z"></path>
</svg>
