<?xml version="1.0" encoding="utf-8"?>
<!-- Generator: Adobe Illustrator 16.0.4, SVG Export Plug-In . SVG Version: 6.00 Build 0)  -->
<!DOCTYPE svg PUBLIC "-//W3C//DTD SVG 1.1//EN" "http://www.w3.org/Graphics/SVG/1.1/DTD/svg11.dtd">
<svg version="1.1" id="Ebene_1" xmlns="http://www.w3.org/2000/svg" xmlns:xlink="http://www.w3.org/1999/xlink" x="0px" y="0px"
	 width="200px" height="140px" viewBox="0 0 200 140" enable-background="new 0 0 200 140" xml:space="preserve">
<defs>
	<filter id="Adobe_OpacityMaskFilter" filterUnits="userSpaceOnUse" x="62" y="-12" width="149" height="169">
		<feColorMatrix  type="matrix" values="1 0 0 0 0  0 1 0 0 0  0 0 1 0 0  0 0 0 1 0"/>
	</filter>
</defs>
<mask maskUnits="userSpaceOnUse" x="62" y="-12" width="149" height="169" id="SVGID_1_">
	<g filter="url(#Adobe_OpacityMaskFilter)">
		<linearGradient id="SVGID_2_" gradientUnits="userSpaceOnUse" x1="99.4766" y1="-10.6123" x2="122.8697" y2="52.3501">
			<stop  offset="0.0257" style="stop-color:#000000"/>
			<stop  offset="0.1769" style="stop-color:#010202"/>
			<stop  offset="1" style="stop-color:#FFFFFF"/>
		</linearGradient>
		<rect x="45.395" y="-18.111" fill-rule="evenodd" clip-rule="evenodd" fill="url(#SVGID_2_)" width="167.652" height="175.111"/>
	</g>
</mask>
<g mask="url(#SVGID_1_)">
	<linearGradient id="SVGID_3_" gradientUnits="userSpaceOnUse" x1="106.0723" y1="54.3931" x2="155.2645" y2="104.3344">
		<stop  offset="0" style="stop-color:#000000;stop-opacity:0.7"/>
		<stop  offset="1" style="stop-color:#000000;stop-opacity:0"/>
	</linearGradient>
	<path opacity="0.1" fill-rule="evenodd" clip-rule="evenodd" fill="url(#SVGID_3_)" d="M196.06,106.47L211,91.54l-5.977-5.972
		l-13.942-13.934l-5.977-5.972l-46.419-46.39l-5.975-5.972l-0.081,0.082c1.292,1.449,2.235,3.501,2.542,6.372L103.398-12
		L92.441-1.052l-7.354,7.35l-3.657,3.655h0.08v6.379h-0.996c-4.91,0-8.963,1.374-8.963,8.221v14.601
		c-0.377,1.757-0.857,3.166-1.51,4.351l0,0l0,0c-0.192,0.354-0.404,0.685-0.632,1.001c-0.037,0.055-0.078,0.108-0.117,0.161
		c-0.228,0.305-0.467,0.6-0.729,0.877c-1.056,1.105-2.649,1.891-5.089,2.677l-0.3,0.1L62,48.708l1.175,0.388l0.3,0.1
		c2.439,0.786,4.033,1.573,5.089,2.677c1.475,1.553,2.37,3.503,2.988,6.389v14.601c0,6.849,4.053,8.223,8.963,8.223h0.996v6.378
		h-1.992c-2.029,0-8.924,0.812-12.593-3.798c-0.364-0.139-0.576-0.222-0.576-0.222l18.717,18.706l7.079,7.075L139.95,157
		l10.956-10.948l7.354-7.351l5.553-5.548l2.774,2.772l14.536-14.527h-0.002l14.94-14.929H196.06z"/>
</g>
<g>
	<g opacity="0.2">
		<path fill-rule="evenodd" clip-rule="evenodd" fill="#010202" d="M119,10.056h2c2.82,0,15-1.57,15,11.921v8.25
			c0,12.082,2.599,13.571,3.999,14.672c1.401,1.12,2.78,1.78,5.001,1.84v1.77v0.981v1.77c-2.221,0.061-3.6,0.72-5.001,1.84
			c-1.4,1.1-3.999,2.59-3.999,14.672v8.251c0,13.491-12.18,11.921-15,11.921h-2v-6.409h1c4.93,0,9-1.381,9-8.263V58.601
			c0.62-2.9,1.519-4.86,3-6.42c1.061-1.11,2.66-1.9,5.109-2.69l0.301-0.1l1.179-0.39l-1.179-0.39l-0.301-0.101
			c-2.449-0.79-4.049-1.58-5.109-2.69c-1.481-1.561-2.38-3.521-3-6.42V24.728c0-6.88-4.07-8.261-9-8.261h-1V10.056z"/>
	</g>
	<g>
		<path fill-rule="evenodd" clip-rule="evenodd" fill="#FFFFFF" d="M118,10.056h2c2.82,0,15-1.57,15,11.921v8.25
			c0,12.082,2.599,13.571,3.999,14.672c1.401,1.12,2.78,1.78,5.001,1.84v1.77v0.981v1.77c-2.221,0.061-3.6,0.72-5.001,1.84
			c-1.4,1.1-3.999,2.59-3.999,14.672v8.251c0,13.491-12.18,11.921-15,11.921h-2v-6.409h1c4.93,0,9-1.381,9-8.263V58.601
			c0.62-2.9,1.519-4.86,3-6.42c1.061-1.11,2.66-1.9,5.109-2.69l0.301-0.1l1.179-0.39l-1.179-0.39l-0.301-0.101
			c-2.449-0.79-4.049-1.58-5.109-2.69c-1.481-1.561-2.38-3.521-3-6.42V24.728c0-6.88-4.07-8.261-9-8.261h-1V10.056z"/>
	</g>
</g>
<g>
	<g opacity="0.2">
		<path fill-rule="evenodd" clip-rule="evenodd" fill="#010202" d="M82,10.056h-2c-2.821,0-15-1.57-15,11.921v8.25
			c0,12.082-2.601,13.571-3.999,14.672C59.6,46.02,58.219,46.68,56,46.74v1.77v0.981v1.77c2.219,0.061,3.6,0.72,5.001,1.84
			c1.398,1.1,3.999,2.59,3.999,14.672v8.251c0,13.491,12.179,11.921,15,11.921h2v-6.409h-1c-4.931,0-9-1.381-9-8.263V58.601
			c-0.62-2.9-1.52-4.86-3-6.42c-1.062-1.11-2.66-1.9-5.11-2.69l-0.3-0.1L62.409,49l1.181-0.39l0.3-0.101
			c2.45-0.79,4.049-1.58,5.11-2.69c1.48-1.561,2.38-3.521,3-6.42V24.728c0-6.88,4.069-8.261,9-8.261h1V10.056z"/>
	</g>
	<g>
		<path fill-rule="evenodd" clip-rule="evenodd" fill="#FFFFFF" d="M81,10.056h-2c-2.821,0-15-1.57-15,11.921v8.25
			c0,12.082-2.601,13.571-3.999,14.672C58.6,46.02,57.219,46.68,55,46.74v1.77v0.981v1.77c2.219,0.061,3.6,0.72,5.001,1.84
			c1.398,1.1,3.999,2.59,3.999,14.672v8.251c0,13.491,12.179,11.921,15,11.921h2v-6.409h-1c-4.931,0-9-1.381-9-8.263V58.601
			c-0.62-2.9-1.52-4.86-3-6.42c-1.062-1.11-2.66-1.9-5.11-2.69l-0.3-0.1L61.409,49l1.181-0.39l0.3-0.101
			c2.45-0.79,4.049-1.58,5.11-2.69c1.48-1.561,2.38-3.521,3-6.42V24.728c0-6.88,4.069-8.261,9-8.261h1V10.056z"/>
	</g>
</g>
<g>
	<g opacity="0.2">
		<path fill-rule="evenodd" clip-rule="evenodd" fill="#010202" d="M82,50.479C82,48,84.009,46,86.499,46s4.5,2,4.5,4.479
			s-2.01,4.479-4.5,4.479S82,52.958,82,50.479z"/>
	</g>
	<g>
		<path fill-rule="evenodd" clip-rule="evenodd" fill="#FFFFFF" d="M81,49.479C81,47,83.009,45,85.499,45s4.5,2,4.5,4.479
			s-2.01,4.479-4.5,4.479S81,51.958,81,49.479z"/>
	</g>
</g>
<g>
	<g opacity="0.2">
		<path fill-rule="evenodd" clip-rule="evenodd" fill="#010202" d="M96,50.479C96,48,98.01,46,100.499,46c2.49,0,4.5,2,4.5,4.479
			s-2.01,4.479-4.5,4.479C98.01,54.958,96,52.958,96,50.479z"/>
	</g>
	<g>
		<path fill-rule="evenodd" clip-rule="evenodd" fill="#FFFFFF" d="M95,49.479C95,47,97.01,45,99.499,45c2.49,0,4.5,2,4.5,4.479
			s-2.01,4.479-4.5,4.479C97.01,53.958,95,51.958,95,49.479z"/>
	</g>
</g>
<g>
	<g opacity="0.2">
		<path fill-rule="evenodd" clip-rule="evenodd" fill="#010202" d="M110,50.479C110,48,112.01,46,114.499,46c2.49,0,4.5,2,4.5,4.479
			s-2.01,4.479-4.5,4.479C112.01,54.958,110,52.958,110,50.479z"/>
	</g>
	<g>
		<path fill-rule="evenodd" clip-rule="evenodd" fill="#FFFFFF" d="M109,49.479C109,47,111.01,45,113.499,45c2.49,0,4.5,2,4.5,4.479
			s-2.01,4.479-4.5,4.479C111.01,53.958,109,51.958,109,49.479z"/>
	</g>
</g>
</svg>
