<?xml version="1.0" encoding="utf-8"?>
<!DOCTYPE svg PUBLIC "-//W3C//DTD SVG 1.1//EN" "http://www.w3.org/Graphics/SVG/1.1/DTD/svg11.dtd">
<svg version="1.1" id="Ebene_1" xmlns="http://www.w3.org/2000/svg" xmlns:xlink="http://www.w3.org/1999/xlink" x="0px" y="0px"
	 width="130px" height="70px" viewBox="0 0 130 70" enable-background="new 0 0 130 70" xml:space="preserve">
<g>
	<path opacity="0.99" d="M10.905,8.008v35.504h21.168v4.48H5.585V8.008H10.905z"/>
	<path opacity="0.99" d="M35.265,27.58c0.597-1.848,1.493-3.453,2.688-4.816c1.194-1.362,2.668-2.436,4.424-3.22
		c1.754-0.784,3.771-1.176,6.048-1.176c2.314,0,4.34,0.392,6.076,1.176c1.736,0.784,3.201,1.858,4.396,3.22
		c1.194,1.363,2.09,2.968,2.688,4.816c0.597,1.848,0.896,3.836,0.896,5.963c0,2.129-0.299,4.107-0.896,5.937
		c-0.598,1.829-1.494,3.426-2.688,4.788c-1.195,1.363-2.66,2.428-4.396,3.191c-1.736,0.766-3.762,1.148-6.076,1.148
		c-2.277,0-4.293-0.383-6.048-1.148c-1.755-0.764-3.229-1.828-4.424-3.191c-1.195-1.362-2.091-2.959-2.688-4.788
		c-0.598-1.829-0.896-3.808-0.896-5.937C34.369,31.416,34.667,29.428,35.265,27.58z M40.108,38.22
		c0.466,1.363,1.11,2.501,1.932,3.416c0.821,0.915,1.782,1.615,2.884,2.101c1.101,0.484,2.268,0.728,3.5,0.728
		c1.232,0,2.398-0.243,3.5-0.728c1.101-0.485,2.062-1.186,2.884-2.101c0.821-0.915,1.465-2.053,1.932-3.416
		c0.466-1.362,0.7-2.921,0.7-4.677c0-1.754-0.233-3.312-0.7-4.676c-0.467-1.361-1.111-2.51-1.932-3.443
		c-0.822-0.933-1.783-1.643-2.884-2.128c-1.102-0.485-2.268-0.728-3.5-0.728c-1.232,0-2.399,0.243-3.5,0.728
		c-1.102,0.485-2.063,1.195-2.884,2.128c-0.822,0.934-1.466,2.082-1.932,3.443c-0.467,1.363-0.7,2.922-0.7,4.676
		C39.409,35.299,39.641,36.857,40.108,38.22z"/>
	<path opacity="0.99" d="M89.808,56.168c-2.165,2.352-5.562,3.527-10.191,3.527c-1.344,0-2.716-0.148-4.116-0.447
		s-2.67-0.785-3.808-1.457c-1.14-0.672-2.082-1.549-2.828-2.631c-0.747-1.084-1.158-2.408-1.232-3.977h4.761
		c0.036,0.859,0.308,1.586,0.812,2.184s1.12,1.082,1.848,1.457c0.729,0.373,1.521,0.643,2.38,0.811s1.681,0.254,2.465,0.254
		c1.567,0,2.893-0.271,3.976-0.812c1.082-0.543,1.979-1.289,2.688-2.24c0.708-0.953,1.222-2.1,1.539-3.443
		c0.317-1.346,0.477-2.818,0.477-4.424v-1.905h-0.112c-0.821,1.792-2.063,3.108-3.724,3.948c-1.662,0.84-3.426,1.26-5.292,1.26
		c-2.166,0-4.052-0.393-5.656-1.176c-1.605-0.783-2.949-1.838-4.032-3.164c-1.083-1.324-1.895-2.875-2.436-4.648
		c-0.542-1.772-0.812-3.648-0.812-5.627c0-1.717,0.225-3.481,0.673-5.293c0.447-1.811,1.194-3.452,2.239-4.928
		c1.045-1.474,2.427-2.688,4.145-3.64c1.717-0.952,3.826-1.428,6.328-1.428c1.828,0,3.509,0.402,5.04,1.204
		c1.53,0.803,2.725,2.007,3.584,3.612h0.056V19.04h4.479v26.488C93.056,50.268,91.973,53.816,89.808,56.168z M83.732,43.147
		c1.101-0.652,1.987-1.512,2.66-2.575c0.672-1.064,1.166-2.269,1.483-3.613c0.316-1.344,0.477-2.688,0.477-4.031
		c0-1.269-0.15-2.52-0.448-3.752c-0.3-1.232-0.775-2.342-1.428-3.332c-0.654-0.989-1.504-1.782-2.549-2.38
		c-1.045-0.597-2.314-0.896-3.808-0.896c-1.531,0-2.838,0.29-3.92,0.868c-1.083,0.58-1.97,1.354-2.66,2.324
		c-0.691,0.971-1.195,2.092-1.512,3.359c-0.317,1.27-0.477,2.596-0.477,3.977c0,1.307,0.131,2.613,0.393,3.92
		c0.261,1.307,0.709,2.492,1.344,3.557c0.635,1.063,1.475,1.923,2.52,2.575c1.045,0.653,2.353,0.98,3.921,0.98
		C81.296,44.128,82.631,43.801,83.732,43.147z"/>
	<path opacity="0.99" d="M99.552,27.58c0.597-1.848,1.492-3.453,2.688-4.816c1.194-1.362,2.669-2.436,4.425-3.22
		c1.754-0.784,3.77-1.176,6.048-1.176c2.314,0,4.34,0.392,6.076,1.176c1.735,0.784,3.2,1.858,4.396,3.22
		c1.194,1.363,2.091,2.968,2.688,4.816c0.597,1.848,0.896,3.836,0.896,5.963c0,2.129-0.299,4.107-0.896,5.937
		c-0.598,1.829-1.494,3.426-2.688,4.788c-1.195,1.363-2.66,2.428-4.396,3.191c-1.736,0.766-3.762,1.148-6.076,1.148
		c-2.278,0-4.294-0.383-6.048-1.148c-1.756-0.764-3.23-1.828-4.425-3.191c-1.195-1.362-2.091-2.959-2.688-4.788
		c-0.598-1.829-0.896-3.808-0.896-5.937C98.655,31.416,98.954,29.428,99.552,27.58z M104.396,38.22
		c0.467,1.363,1.11,2.501,1.933,3.416c0.82,0.915,1.782,1.615,2.884,2.101c1.101,0.484,2.268,0.728,3.5,0.728
		c1.231,0,2.398-0.243,3.5-0.728c1.101-0.485,2.062-1.186,2.884-2.101c0.82-0.915,1.465-2.053,1.932-3.416
		c0.467-1.362,0.7-2.921,0.7-4.677c0-1.754-0.233-3.312-0.7-4.676c-0.467-1.361-1.111-2.51-1.932-3.443
		c-0.821-0.933-1.783-1.643-2.884-2.128c-1.102-0.485-2.269-0.728-3.5-0.728c-1.232,0-2.399,0.243-3.5,0.728
		c-1.102,0.485-2.063,1.195-2.884,2.128c-0.822,0.934-1.466,2.082-1.933,3.443c-0.467,1.363-0.7,2.922-0.7,4.676
		C103.695,35.299,103.929,36.857,104.396,38.22z"/>
</g>
</svg>
