<?xml version="1.0" encoding="utf-8"?>
<!-- Generator: Adobe Illustrator 16.0.4, SVG Export Plug-In . SVG Version: 6.00 Build 0)  -->
<!DOCTYPE svg PUBLIC "-//W3C//DTD SVG 1.1//EN" "http://www.w3.org/Graphics/SVG/1.1/DTD/svg11.dtd">
<svg version="1.1" id="Ebene_1" xmlns="http://www.w3.org/2000/svg" xmlns:xlink="http://www.w3.org/1999/xlink" x="0px" y="0px"
	 width="90px" height="30px" viewBox="0 0 90 30" enable-background="new 0 0 90 30" xml:space="preserve">
<g opacity="0.8">
	<g>
		<path fill="#FFFFFF" d="M43.508,19.512c0,0.766-0.324,1.293-0.923,1.582c-0.601,0.289-1.612,0.434-3.161,0.434
			c-0.703,0-1.287-0.066-1.752-0.201s-1.015-0.331-1.211-0.59c-0.197-0.258-0.326-0.512-0.388-0.76s-0.068-0.558-0.068-0.93V8.51
			h-2.502v10.692c0,1.446,0.278,2.526,1.022,3.239s2.107,1.07,4.092,1.07c2.996,0,4.576-0.713,4.867-2.14v2.142h2.507V8.51h-2.484
			V19.512z M49.5,5.998h2.494V3.507H49.5V5.998z M49.51,23.514h2.484V8.51H49.51V23.514z M67.193,8.51h-3.41l-5.789,6.215V3.501
			H55.5v20.013h2.494V15.94l6.316,7.573h3.473l-7.1-8.215L67.193,8.51z M70.5,23.514h2.51V8.51H70.5V23.514z M70.5,5.998h2.51V3.507
			H70.5V5.998z M87.5,10.504V8.51h-5.504V3.5h-2.492v5.01H76.5v1.994h3.004v8.326c0,1.818,0.465,3.054,1.209,3.705
			c0.744,0.65,2.057,0.977,3.938,0.977c1.096,0,1.857-0.084,2.85-0.248v-1.986c-1.158,0.166-1.621,0.248-1.951,0.248
			c-1.26,0-2.535-0.18-2.947-0.542c-0.414-0.361-0.605-0.923-0.605-1.998v-8.481H87.5z"/>
	</g>
</g>
<g opacity="0.8">
	<g>
		<path fill-rule="evenodd" clip-rule="evenodd" fill="#FFFFFF" d="M20.857,5.154l-4.83,2.926l5.473,3.172v8.318l-7.381,4.16
			l-7.725-4.16v-6.447L1.5,10.637v11.812L13.943,29.5l12.451-7.052V8.34L20.857,5.154z M18.089,3.989l-4.678-2.706l-4.879,3.02
			l4.742,2.607L18.089,3.989z"/>
	</g>
</g>
</svg>
