<svg width="200px" height="225px" xmlns="http://www.w3.org/2000/svg">

<g id="Group" transform="translate(0.000000, 34.000000)" opacity="0.9">

		<linearGradient id="Shape_3_" gradientUnits="userSpaceOnUse" x1="184.1602" y1="12.1992" x2="184.7221" y2="12.8885" gradientTransform="matrix(200 0 0 175.096 -36792.625 -2110.6113)">
		<stop  offset="0" style="stop-color:#2F96C2"/>
		<stop  offset="1" style="stop-color:#2F96C2;stop-opacity:0"/>
	</linearGradient>
	<polygon id="Shape" fill="url(#Shape_3_)" points="119.799,15.775 119.799,85.327 59.006,120.093 0.432,85.121 0.343,85.211
		105.576,191 106.571,189.999 114.534,181.993 115.532,180.993 200,96.079 	"/>
</g>
<g id="Group_1_">
	<path id="Shape_1_" fill="#2E92BE" d="M81.729,29.341L58.829,16L34.93,30.882l23.22,12.858L81.729,29.341L81.729,29.341z
		 M92.68,35.084L69.031,49.506l26.804,15.531v41.029l-36.147,20.596l-35.729-20.596V74.043L0,62.115v57.962l58.829,35.026
		l60.964-34.766V50.786L92.68,35.084L92.68,35.084z"/>
	<path id="Shape_2_" fill="#FFFFFF" d="M81.729,28.34L58.829,15L34.93,29.881l23.22,12.859L81.729,28.34L81.729,28.34z
		 M92.68,34.084l-23.648,14.42l26.804,15.532v41.03l-36.147,20.595l-35.729-20.595V73.043L0,61.113v57.963l58.829,35.026
		l60.964-34.766V49.785L92.68,34.084L92.68,34.084z"/>
</g>
<g>
	<g>
		<path fill="#2D91BF" d="M123.674,25.571l2.332-2.566c1.857,2.566,5.096,4.343,8.859,4.343c4.619,0,7.428-2.368,7.428-6.169
			c0-4.096-4.492-5.823-9.158-5.823l-2.084,0.058l8.742-10.987h-13.502V1h20.035l-8.824,11.565c4.133,0.256,8.695,3.678,8.695,8.96
			c0,5.478-4.236,9.475-11.236,9.475C129.578,31,125.625,28.533,123.674,25.571z"/>
	</g>
	<g>
		<g>
			<path fill="#FFFFFF" d="M123.674,24.571l2.332-2.566c1.857,2.566,5.096,4.343,8.859,4.343c4.619,0,7.428-2.368,7.428-6.169
				c0-4.096-4.492-5.823-9.158-5.823l-2.084,0.058l8.742-10.987h-13.502V0h20.035l-8.824,11.565c4.133,0.256,8.695,3.678,8.695,8.96
				c0,5.478-4.236,9.475-11.236,9.475C129.578,30,125.625,27.533,123.674,24.571z"/>
		</g>
	</g>
</g>
</svg>
