<?xml version="1.0" encoding="utf-8"?>
<!DOCTYPE svg PUBLIC "-//W3C//DTD SVG 1.1//EN" "http://www.w3.org/Graphics/SVG/1.1/DTD/svg11.dtd">
<svg version="1.1" id="Ebene_1" xmlns="http://www.w3.org/2000/svg" xmlns:xlink="http://www.w3.org/1999/xlink" x="0px" y="0px"
	 width="130px" height="70px" viewBox="0 0 130 70" enable-background="new 0 0 130 70" xml:space="preserve">
<g>
	<path opacity="0.99" fill="#FFFFFF" enable-background="new    " d="M10.905,8.008v35.504h21.168v4.48H5.585V8.008H10.905z"/>
	<path opacity="0.99" fill="#FFFFFF" enable-background="new    " d="M35.265,27.58c0.597-1.848,1.493-3.453,2.688-4.816
		c1.194-1.362,2.668-2.436,4.424-3.22c1.754-0.784,3.771-1.176,6.048-1.176c2.314,0,4.34,0.392,6.076,1.176s3.201,1.858,4.396,3.22
		c1.194,1.363,2.09,2.968,2.688,4.816c0.597,1.848,0.896,3.836,0.896,5.963c0,2.129-0.299,4.107-0.896,5.938
		c-0.598,1.828-1.494,3.426-2.688,4.787c-1.195,1.363-2.66,2.428-4.396,3.191c-1.736,0.766-3.762,1.148-6.076,1.148
		c-2.277,0-4.293-0.383-6.048-1.148c-1.755-0.764-3.229-1.828-4.424-3.191c-1.195-1.361-2.091-2.959-2.688-4.787
		c-0.598-1.83-0.896-3.809-0.896-5.938C34.369,31.416,34.667,29.428,35.265,27.58z M40.108,38.221c0.466,1.362,1.11,2.5,1.932,3.415
		c0.821,0.915,1.782,1.615,2.884,2.101c1.101,0.484,2.268,0.729,3.5,0.729c1.232,0,2.398-0.242,3.5-0.729
		c1.101-0.484,2.062-1.186,2.884-2.101c0.821-0.915,1.465-2.053,1.932-3.415c0.466-1.363,0.7-2.922,0.7-4.678
		c0-1.754-0.233-3.312-0.7-4.676c-0.467-1.361-1.111-2.51-1.932-3.443c-0.822-0.933-1.783-1.643-2.884-2.128
		c-1.102-0.485-2.268-0.728-3.5-0.728c-1.232,0-2.399,0.243-3.5,0.728c-1.102,0.485-2.063,1.195-2.884,2.128
		c-0.822,0.934-1.466,2.082-1.932,3.443c-0.467,1.363-0.7,2.922-0.7,4.676C39.409,35.299,39.641,36.857,40.108,38.221z"/>
	<path opacity="0.99" fill="#FFFFFF" enable-background="new    " d="M89.809,56.168c-2.166,2.352-5.562,3.527-10.191,3.527
		c-1.344,0-2.717-0.148-4.116-0.447s-2.67-0.785-3.808-1.457c-1.141-0.672-2.082-1.549-2.828-2.631
		c-0.747-1.084-1.158-2.408-1.232-3.977h4.762c0.035,0.858,0.308,1.586,0.812,2.184s1.12,1.082,1.849,1.457
		c0.729,0.373,1.521,0.643,2.379,0.811c0.859,0.168,1.682,0.254,2.465,0.254c1.567,0,2.894-0.271,3.977-0.812
		c1.082-0.543,1.979-1.289,2.688-2.24c0.709-0.953,1.223-2.101,1.539-3.442c0.317-1.347,0.478-2.818,0.478-4.424v-1.906h-0.112
		c-0.82,1.793-2.062,3.108-3.724,3.949c-1.662,0.84-3.427,1.26-5.292,1.26c-2.166,0-4.053-0.394-5.656-1.176
		c-1.605-0.783-2.949-1.839-4.031-3.164c-1.084-1.324-1.896-2.875-2.437-4.648c-0.542-1.771-0.812-3.648-0.812-5.627
		c0-1.717,0.225-3.481,0.672-5.293c0.447-1.811,1.194-3.452,2.239-4.928c1.046-1.474,2.427-2.688,4.146-3.64
		c1.717-0.952,3.826-1.428,6.328-1.428c1.828,0,3.509,0.402,5.039,1.204c1.53,0.803,2.726,2.007,3.584,3.612h0.057V19.04h4.479
		v26.487C93.057,50.268,91.973,53.816,89.809,56.168z M83.732,43.146c1.101-0.651,1.986-1.512,2.66-2.574
		c0.672-1.064,1.166-2.27,1.482-3.613s0.477-2.688,0.477-4.031c0-1.269-0.149-2.52-0.447-3.752
		c-0.301-1.232-0.775-2.342-1.428-3.332c-0.654-0.989-1.504-1.782-2.55-2.38c-1.045-0.597-2.313-0.896-3.808-0.896
		c-1.531,0-2.838,0.29-3.92,0.868c-1.083,0.58-1.971,1.354-2.66,2.324c-0.691,0.971-1.195,2.092-1.512,3.359
		c-0.317,1.27-0.478,2.596-0.478,3.977c0,1.307,0.132,2.613,0.394,3.919c0.261,1.308,0.709,2.492,1.344,3.558
		c0.635,1.062,1.475,1.923,2.52,2.575s2.354,0.979,3.922,0.979C81.296,44.128,82.631,43.801,83.732,43.146z"/>
	<path opacity="0.99" fill="#FFFFFF" enable-background="new    " d="M99.552,27.58c0.597-1.848,1.492-3.453,2.688-4.816
		c1.193-1.362,2.669-2.436,4.425-3.22c1.754-0.784,3.771-1.176,6.048-1.176c2.314,0,4.34,0.392,6.076,1.176
		c1.734,0.784,3.2,1.858,4.396,3.22c1.193,1.363,2.09,2.968,2.688,4.816c0.597,1.848,0.896,3.836,0.896,5.963
		c0,2.129-0.3,4.107-0.896,5.938c-0.598,1.828-1.494,3.426-2.688,4.787c-1.195,1.363-2.66,2.428-4.396,3.191
		c-1.736,0.766-3.762,1.148-6.076,1.148c-2.277,0-4.294-0.383-6.048-1.148c-1.756-0.764-3.229-1.828-4.425-3.191
		c-1.195-1.361-2.092-2.959-2.688-4.787c-0.598-1.83-0.896-3.809-0.896-5.938C98.655,31.416,98.954,29.428,99.552,27.58z
		 M104.396,38.221c0.467,1.362,1.109,2.5,1.933,3.415c0.819,0.915,1.782,1.615,2.884,2.101c1.102,0.484,2.268,0.729,3.5,0.729
		c1.23,0,2.398-0.242,3.5-0.729c1.102-0.484,2.062-1.186,2.885-2.101c0.819-0.915,1.465-2.053,1.932-3.415
		c0.467-1.363,0.699-2.922,0.699-4.678c0-1.754-0.232-3.312-0.699-4.676c-0.467-1.361-1.111-2.51-1.932-3.443
		c-0.822-0.933-1.783-1.643-2.885-2.128c-1.102-0.485-2.27-0.728-3.5-0.728c-1.232,0-2.398,0.243-3.5,0.728
		c-1.102,0.485-2.062,1.195-2.884,2.128c-0.822,0.934-1.466,2.082-1.933,3.443c-0.467,1.363-0.701,2.922-0.701,4.676
		C103.695,35.299,103.93,36.857,104.396,38.221z"/>
</g>
</svg>
