<?xml version="1.0" encoding="utf-8"?>
<!DOCTYPE svg PUBLIC "-//W3C//DTD SVG 1.1//EN" "http://www.w3.org/Graphics/SVG/1.1/DTD/svg11.dtd">
<svg version="1.1" id="placeholder" xmlns="http://www.w3.org/2000/svg" xmlns:xlink="http://www.w3.org/1999/xlink" x="0px" y="0px"
	 width="50px" height="50px" viewBox="0 0 50 50" enable-background="new 0 0 50 50" xml:space="preserve">
<rect fill="#3AA9D7" width="50" height="50"/>
<g>
	<path fill="#FFFFFF" d="M45.45,41.346c-0.209-1.166-0.474-2.246-0.791-3.242c-0.319-0.996-0.747-1.968-1.286-2.914
		c-0.538-0.944-1.155-1.754-1.852-2.42c-0.699-0.668-1.551-1.201-2.559-1.599c-1.006-0.397-2.115-0.598-3.332-0.598
		c-0.179,0-0.597,0.214-1.255,0.642c-0.655,0.43-1.397,0.907-2.228,1.434c-0.825,0.528-1.901,1.006-3.228,1.437
		c-1.325,0.431-2.655,0.646-3.989,0.646c-1.334,0-2.664-0.215-3.989-0.646c-1.325-0.431-2.401-0.905-3.227-1.437
		c-0.828-0.524-1.569-1.004-2.226-1.434c-0.658-0.428-1.076-0.642-1.255-0.642c-1.216,0-2.326,0.198-3.332,0.598
		c-1.006,0.397-1.858,0.931-2.554,1.599c-0.699,0.666-1.315,1.476-1.853,2.42c-0.538,0.946-0.967,1.916-1.285,2.914
		C4.895,39.1,4.63,40.18,4.421,41.346c-0.209,1.164-0.349,2.25-0.418,3.256c-0.07,1.006-0.104,2.102-0.104,3.154
		C3.901,48.54,3.987,49,4.143,50h41.589c0.156-1,0.242-1.46,0.242-2.243c0-1.055-0.035-2.118-0.105-3.124S45.66,42.51,45.45,41.346z
		"/>
	<path fill="#FFFFFF" d="M24.938,32.484c3.167,0,5.871-1.12,8.113-3.36c2.241-2.242,3.361-4.945,3.361-8.113
		c0-3.168-1.121-5.872-3.361-8.112c-2.242-2.241-4.945-3.362-8.113-3.362c-3.167,0-5.872,1.121-8.112,3.362
		c-2.242,2.241-3.362,4.945-3.362,8.112c0,3.167,1.12,5.871,3.362,8.113C19.065,31.365,21.771,32.484,24.938,32.484z"/>
</g>
</svg>
